%TF.GenerationSoftware,KiCad,Pcbnew,(6.0.4)*%
%TF.CreationDate,2023-03-03T22:10:40+01:00*%
%TF.ProjectId,OT_windows_remapper,4f545f77-696e-4646-9f77-735f72656d61,rev?*%
%TF.SameCoordinates,Original*%
%TF.FileFunction,Copper,L1,Top*%
%TF.FilePolarity,Positive*%
%FSLAX46Y46*%
G04 Gerber Fmt 4.6, Leading zero omitted, Abs format (unit mm)*
G04 Created by KiCad (PCBNEW (6.0.4)) date 2023-03-03 22:10:40*
%MOMM*%
%LPD*%
G01*
G04 APERTURE LIST*
G04 Aperture macros list*
%AMRoundRect*
0 Rectangle with rounded corners*
0 $1 Rounding radius*
0 $2 $3 $4 $5 $6 $7 $8 $9 X,Y pos of 4 corners*
0 Add a 4 corners polygon primitive as box body*
4,1,4,$2,$3,$4,$5,$6,$7,$8,$9,$2,$3,0*
0 Add four circle primitives for the rounded corners*
1,1,$1+$1,$2,$3*
1,1,$1+$1,$4,$5*
1,1,$1+$1,$6,$7*
1,1,$1+$1,$8,$9*
0 Add four rect primitives between the rounded corners*
20,1,$1+$1,$2,$3,$4,$5,0*
20,1,$1+$1,$4,$5,$6,$7,0*
20,1,$1+$1,$6,$7,$8,$9,0*
20,1,$1+$1,$8,$9,$2,$3,0*%
G04 Aperture macros list end*
%TA.AperFunction,ComponentPad*%
%ADD10R,2.400000X1.600000*%
%TD*%
%TA.AperFunction,ComponentPad*%
%ADD11O,2.400000X1.600000*%
%TD*%
%TA.AperFunction,ComponentPad*%
%ADD12R,2.200000X2.200000*%
%TD*%
%TA.AperFunction,ComponentPad*%
%ADD13O,2.200000X2.200000*%
%TD*%
%TA.AperFunction,ComponentPad*%
%ADD14C,1.600000*%
%TD*%
%TA.AperFunction,ComponentPad*%
%ADD15RoundRect,0.249999X-1.025001X-1.025001X1.025001X-1.025001X1.025001X1.025001X-1.025001X1.025001X0*%
%TD*%
%TA.AperFunction,ComponentPad*%
%ADD16R,2.000000X1.905000*%
%TD*%
%TA.AperFunction,ComponentPad*%
%ADD17O,2.000000X1.905000*%
%TD*%
%TA.AperFunction,ComponentPad*%
%ADD18O,1.600000X1.600000*%
%TD*%
%TA.AperFunction,ComponentPad*%
%ADD19R,1.100000X1.800000*%
%TD*%
%TA.AperFunction,ComponentPad*%
%ADD20RoundRect,0.275000X0.275000X0.625000X-0.275000X0.625000X-0.275000X-0.625000X0.275000X-0.625000X0*%
%TD*%
%TA.AperFunction,ComponentPad*%
%ADD21R,1.800000X1.100000*%
%TD*%
%TA.AperFunction,ComponentPad*%
%ADD22RoundRect,0.275000X0.625000X-0.275000X0.625000X0.275000X-0.625000X0.275000X-0.625000X-0.275000X0*%
%TD*%
%TA.AperFunction,ComponentPad*%
%ADD23RoundRect,0.250002X1.699998X-1.699998X1.699998X1.699998X-1.699998X1.699998X-1.699998X-1.699998X0*%
%TD*%
%TA.AperFunction,ComponentPad*%
%ADD24RoundRect,0.249999X1.025001X-1.025001X1.025001X1.025001X-1.025001X1.025001X-1.025001X-1.025001X0*%
%TD*%
%TA.AperFunction,ComponentPad*%
%ADD25RoundRect,0.250002X-1.699998X-1.699998X1.699998X-1.699998X1.699998X1.699998X-1.699998X1.699998X0*%
%TD*%
%TA.AperFunction,ComponentPad*%
%ADD26RoundRect,0.275000X-0.625000X0.275000X-0.625000X-0.275000X0.625000X-0.275000X0.625000X0.275000X0*%
%TD*%
%TA.AperFunction,ComponentPad*%
%ADD27R,1.700000X1.700000*%
%TD*%
%TA.AperFunction,ComponentPad*%
%ADD28O,1.700000X1.700000*%
%TD*%
%TA.AperFunction,ComponentPad*%
%ADD29C,1.500000*%
%TD*%
%TA.AperFunction,ComponentPad*%
%ADD30C,2.550000*%
%TD*%
%TA.AperFunction,ComponentPad*%
%ADD31R,1.600000X1.600000*%
%TD*%
%TA.AperFunction,ViaPad*%
%ADD32C,0.800000*%
%TD*%
%TA.AperFunction,Conductor*%
%ADD33C,1.000000*%
%TD*%
G04 APERTURE END LIST*
D10*
%TO.P,U1,1,~{RESET}/PC6*%
%TO.N,Net-(J5-Pad5)*%
X133700000Y-34975000D03*
D11*
%TO.P,U1,2,PD0*%
%TO.N,Net-(R11-Pad1)*%
X133700000Y-37515000D03*
%TO.P,U1,3,PD1*%
%TO.N,Net-(R12-Pad1)*%
X133700000Y-40055000D03*
%TO.P,U1,4,PD2*%
%TO.N,Net-(R13-Pad1)*%
X133700000Y-42595000D03*
%TO.P,U1,5,PD3*%
%TO.N,Net-(Q7-Pad1)*%
X133700000Y-45135000D03*
%TO.P,U1,6,PD4*%
%TO.N,Net-(U1-Pad6)*%
X133700000Y-47675000D03*
%TO.P,U1,7,VCC*%
%TO.N,Net-(C4-Pad1)*%
X133700000Y-50215000D03*
%TO.P,U1,8,GND*%
%TO.N,GND*%
X133700000Y-52755000D03*
%TO.P,U1,9,XTAL1/PB6*%
%TO.N,Net-(C1-Pad1)*%
X133700000Y-55295000D03*
%TO.P,U1,10,XTAL2/PB7*%
%TO.N,Net-(C2-Pad1)*%
X133700000Y-57835000D03*
%TO.P,U1,11,PD5*%
%TO.N,Net-(Q9-Pad1)*%
X133700000Y-60375000D03*
%TO.P,U1,12,PD6*%
%TO.N,Net-(Q8-Pad1)*%
X133700000Y-62915000D03*
%TO.P,U1,13,PD7*%
%TO.N,unconnected-(U1-Pad13)*%
X133700000Y-65455000D03*
%TO.P,U1,14,PB0*%
%TO.N,Net-(Q5-Pad1)*%
X133700000Y-67995000D03*
%TO.P,U1,15,PB1*%
%TO.N,Net-(U1-Pad15)*%
X141320000Y-67995000D03*
%TO.P,U1,16,PB2*%
%TO.N,Net-(R25-Pad1)*%
X141320000Y-65455000D03*
%TO.P,U1,17,PB3*%
%TO.N,Net-(J5-Pad2)*%
X141320000Y-62915000D03*
%TO.P,U1,18,PB4*%
%TO.N,Net-(J5-Pad3)*%
X141320000Y-60375000D03*
%TO.P,U1,19,PB5*%
%TO.N,Net-(J5-Pad4)*%
X141320000Y-57835000D03*
%TO.P,U1,20,AVCC*%
%TO.N,Net-(C4-Pad1)*%
X141320000Y-55295000D03*
%TO.P,U1,21,AREF*%
%TO.N,unconnected-(U1-Pad21)*%
X141320000Y-52755000D03*
%TO.P,U1,22,GND*%
%TO.N,GND*%
X141320000Y-50215000D03*
%TO.P,U1,23,PC0*%
%TO.N,unconnected-(U1-Pad23)*%
X141320000Y-47675000D03*
%TO.P,U1,24,PC1*%
%TO.N,unconnected-(U1-Pad24)*%
X141320000Y-45135000D03*
%TO.P,U1,25,PC2*%
%TO.N,unconnected-(U1-Pad25)*%
X141320000Y-42595000D03*
%TO.P,U1,26,PC3*%
%TO.N,unconnected-(U1-Pad26)*%
X141320000Y-40055000D03*
%TO.P,U1,27,PC4*%
%TO.N,unconnected-(U1-Pad27)*%
X141320000Y-37515000D03*
%TO.P,U1,28,PC5*%
%TO.N,unconnected-(U1-Pad28)*%
X141320000Y-34975000D03*
%TD*%
D12*
%TO.P,D3,1,K*%
%TO.N,Net-(D3-Pad1)*%
X129700000Y-92700000D03*
D13*
%TO.P,D3,2,A*%
%TO.N,Net-(D3-Pad2)*%
X129700000Y-90160000D03*
%TD*%
D14*
%TO.P,C5,1*%
%TO.N,Net-(C4-Pad1)*%
X129000000Y-47000000D03*
%TO.P,C5,2*%
%TO.N,GND*%
X124000000Y-47000000D03*
%TD*%
D15*
%TO.P,J10,1,Pin_1*%
%TO.N,Net-(D6-Pad1)*%
X102750000Y-95550000D03*
%TD*%
D12*
%TO.P,D4,1,K*%
%TO.N,Net-(D4-Pad1)*%
X140200000Y-92700000D03*
D13*
%TO.P,D4,2,A*%
%TO.N,Net-(D4-Pad2)*%
X140200000Y-90160000D03*
%TD*%
D16*
%TO.P,U2,1,IN*%
%TO.N,Net-(C3-Pad1)*%
X150555000Y-47460000D03*
D17*
%TO.P,U2,2,GND*%
%TO.N,GND*%
X150555000Y-50000000D03*
%TO.P,U2,3,OUT*%
%TO.N,Net-(C4-Pad1)*%
X150555000Y-52540000D03*
%TD*%
D14*
%TO.P,R2,1*%
%TO.N,GND*%
X116515000Y-36021000D03*
D18*
%TO.P,R2,2*%
%TO.N,Net-(Q1-Pad2)*%
X113975000Y-36021000D03*
%TD*%
D14*
%TO.P,R24,1*%
%TO.N,Net-(Q9-Pad1)*%
X114045000Y-85700000D03*
D18*
%TO.P,R24,2*%
%TO.N,GND*%
X111505000Y-85700000D03*
%TD*%
D14*
%TO.P,R16,1*%
%TO.N,Net-(C4-Pad1)*%
X113970000Y-61924000D03*
D18*
%TO.P,R16,2*%
%TO.N,Net-(Q7-Pad2)*%
X111430000Y-61924000D03*
%TD*%
D15*
%TO.P,J16,1,Pin_1*%
%TO.N,GND*%
X135000000Y-96190000D03*
%TD*%
D14*
%TO.P,R4,1*%
%TO.N,GND*%
X116261000Y-54128500D03*
D18*
%TO.P,R4,2*%
%TO.N,Net-(Q3-Pad2)*%
X113721000Y-54128500D03*
%TD*%
D14*
%TO.P,C1,1*%
%TO.N,Net-(C1-Pad1)*%
X130500000Y-53750000D03*
%TO.P,C1,2*%
%TO.N,GND*%
X130500000Y-51250000D03*
%TD*%
D19*
%TO.P,Q5,1,C*%
%TO.N,Net-(Q5-Pad1)*%
X128920000Y-79520000D03*
D20*
%TO.P,Q5,2,B*%
%TO.N,Net-(Q5-Pad2)*%
X127650000Y-81590000D03*
%TO.P,Q5,3,E*%
%TO.N,Net-(C4-Pad1)*%
X126380000Y-79520000D03*
%TD*%
D21*
%TO.P,Q9,1,C*%
%TO.N,Net-(Q9-Pad1)*%
X119220000Y-84920000D03*
D22*
%TO.P,Q9,2,B*%
%TO.N,Net-(Q9-Pad2)*%
X117150000Y-83650000D03*
%TO.P,Q9,3,E*%
%TO.N,Net-(C4-Pad1)*%
X119220000Y-82380000D03*
%TD*%
D23*
%TO.P,J2,1,Pin_1*%
%TO.N,Net-(J15-Pad1)*%
X152000000Y-80000000D03*
%TD*%
%TO.P,J4,1,Pin_1*%
%TO.N,Net-(J15-Pad1)*%
X152000000Y-92000000D03*
%TD*%
D15*
%TO.P,J11,1,Pin_1*%
%TO.N,Net-(D7-Pad1)*%
X102550000Y-85700000D03*
%TD*%
D14*
%TO.P,R15,1*%
%TO.N,Net-(C4-Pad1)*%
X136500000Y-84695000D03*
D18*
%TO.P,R15,2*%
%TO.N,Net-(Q6-Pad2)*%
X136500000Y-87235000D03*
%TD*%
D14*
%TO.P,C6,1*%
%TO.N,Net-(C3-Pad1)*%
X147500000Y-43000000D03*
%TO.P,C6,2*%
%TO.N,GND*%
X152500000Y-43000000D03*
%TD*%
D24*
%TO.P,J13,1,Pin_1*%
%TO.N,Net-(D4-Pad1)*%
X140200000Y-96190000D03*
%TD*%
D14*
%TO.P,R25,1*%
%TO.N,Net-(R25-Pad1)*%
X144455000Y-71500000D03*
D18*
%TO.P,R25,2*%
%TO.N,Net-(Q10-Pad2)*%
X146995000Y-71500000D03*
%TD*%
D25*
%TO.P,J18,1,Pin_1*%
%TO.N,GND*%
X145500000Y-85000000D03*
%TD*%
D14*
%TO.P,R13,1*%
%TO.N,Net-(R13-Pad1)*%
X116256000Y-50928500D03*
D18*
%TO.P,R13,2*%
%TO.N,Net-(Q3-Pad2)*%
X113716000Y-50928500D03*
%TD*%
D14*
%TO.P,R9,1*%
%TO.N,Net-(D7-Pad2)*%
X106200000Y-82000000D03*
D18*
%TO.P,R9,2*%
%TO.N,Net-(Q9-Pad2)*%
X108740000Y-82000000D03*
%TD*%
D21*
%TO.P,Q3,1,C*%
%TO.N,Net-(D1-Pad2)*%
X109116000Y-51233500D03*
D26*
%TO.P,Q3,2,B*%
%TO.N,Net-(Q3-Pad2)*%
X111186000Y-52503500D03*
%TO.P,Q3,3,E*%
%TO.N,GND*%
X109116000Y-53773500D03*
%TD*%
D14*
%TO.P,R19,1*%
%TO.N,Net-(U1-Pad6)*%
X113941000Y-75530000D03*
D18*
%TO.P,R19,2*%
%TO.N,GND*%
X111401000Y-75530000D03*
%TD*%
D12*
%TO.P,D2,1,K*%
%TO.N,Net-(D2-Pad1)*%
X105936000Y-75530000D03*
D13*
%TO.P,D2,2,A*%
%TO.N,Net-(D2-Pad2)*%
X108476000Y-75530000D03*
%TD*%
D14*
%TO.P,R12,1*%
%TO.N,Net-(R12-Pad1)*%
X116425500Y-41858000D03*
D18*
%TO.P,R12,2*%
%TO.N,Net-(Q2-Pad2)*%
X113885500Y-41858000D03*
%TD*%
D15*
%TO.P,J1,1,Pin_1*%
%TO.N,Net-(C3-Pad1)*%
X145500000Y-31000000D03*
%TD*%
D12*
%TO.P,D7,1,K*%
%TO.N,Net-(D7-Pad1)*%
X106040000Y-85700000D03*
D13*
%TO.P,D7,2,A*%
%TO.N,Net-(D7-Pad2)*%
X108580000Y-85700000D03*
%TD*%
D21*
%TO.P,Q2,1,C*%
%TO.N,Net-(J7-Pad1)*%
X109285500Y-42163000D03*
D26*
%TO.P,Q2,2,B*%
%TO.N,Net-(Q2-Pad2)*%
X111355500Y-43433000D03*
%TO.P,Q2,3,E*%
%TO.N,GND*%
X109285500Y-44703000D03*
%TD*%
D27*
%TO.P,J5,1,Pin_1*%
%TO.N,GND*%
X145500000Y-68000000D03*
D28*
%TO.P,J5,2,Pin_2*%
%TO.N,Net-(J5-Pad2)*%
X145500000Y-65460000D03*
%TO.P,J5,3,Pin_3*%
%TO.N,Net-(J5-Pad3)*%
X145500000Y-62920000D03*
%TO.P,J5,4,Pin_4*%
%TO.N,Net-(J5-Pad4)*%
X145500000Y-60380000D03*
%TO.P,J5,5,Pin_5*%
%TO.N,Net-(J5-Pad5)*%
X145500000Y-57840000D03*
%TD*%
D15*
%TO.P,J7,1,Pin_1*%
%TO.N,Net-(J7-Pad1)*%
X105180500Y-43483000D03*
%TD*%
%TO.P,J17,1,Pin_1*%
%TO.N,GND*%
X145500000Y-96500000D03*
%TD*%
D14*
%TO.P,R1,1*%
%TO.N,Net-(D2-Pad2)*%
X106096000Y-71830000D03*
D18*
%TO.P,R1,2*%
%TO.N,Net-(Q4-Pad2)*%
X108636000Y-71830000D03*
%TD*%
D14*
%TO.P,C2,1*%
%TO.N,Net-(C2-Pad1)*%
X130500000Y-56250000D03*
%TO.P,C2,2*%
%TO.N,GND*%
X130500000Y-58750000D03*
%TD*%
D29*
%TO.P,Y1,1,1*%
%TO.N,Net-(C2-Pad1)*%
X126000000Y-56950000D03*
%TO.P,Y1,2,2*%
%TO.N,Net-(C1-Pad1)*%
X126000000Y-52070000D03*
%TD*%
D21*
%TO.P,Q4,1,C*%
%TO.N,Net-(U1-Pad6)*%
X119116000Y-74750000D03*
D22*
%TO.P,Q4,2,B*%
%TO.N,Net-(Q4-Pad2)*%
X117046000Y-73480000D03*
%TO.P,Q4,3,E*%
%TO.N,Net-(C4-Pad1)*%
X119116000Y-72210000D03*
%TD*%
D25*
%TO.P,J19,1,Pin_1*%
%TO.N,GND*%
X145500000Y-90500000D03*
%TD*%
D23*
%TO.P,J15,1,Pin_1*%
%TO.N,Net-(J15-Pad1)*%
X152000000Y-85950000D03*
%TD*%
D24*
%TO.P,J3,1,Pin_1*%
%TO.N,Net-(J3-Pad1)*%
X151000000Y-66500000D03*
D30*
%TO.P,J3,2,Pin_2*%
%TO.N,Net-(C4-Pad1)*%
X151000000Y-61700000D03*
%TD*%
D12*
%TO.P,D5,1,K*%
%TO.N,Net-(D1-Pad1)*%
X105965000Y-65624000D03*
D13*
%TO.P,D5,2,A*%
%TO.N,Net-(D5-Pad2)*%
X108505000Y-65624000D03*
%TD*%
D14*
%TO.P,R6,1*%
%TO.N,Net-(D4-Pad2)*%
X136500000Y-92540000D03*
D18*
%TO.P,R6,2*%
%TO.N,Net-(Q6-Pad2)*%
X136500000Y-90000000D03*
%TD*%
D21*
%TO.P,Q1,1,C*%
%TO.N,Net-(J6-Pad1)*%
X109370000Y-33126000D03*
D26*
%TO.P,Q1,2,B*%
%TO.N,Net-(Q1-Pad2)*%
X111440000Y-34396000D03*
%TO.P,Q1,3,E*%
%TO.N,GND*%
X109370000Y-35666000D03*
%TD*%
D13*
%TO.P,D6,2,A*%
%TO.N,Net-(D6-Pad2)*%
X108780000Y-95550000D03*
D12*
%TO.P,D6,1,K*%
%TO.N,Net-(D6-Pad1)*%
X106240000Y-95550000D03*
%TD*%
D14*
%TO.P,R26,1*%
%TO.N,GND*%
X144455000Y-74500000D03*
D18*
%TO.P,R26,2*%
%TO.N,Net-(Q10-Pad2)*%
X146995000Y-74500000D03*
%TD*%
D22*
%TO.P,Q8,3,E*%
%TO.N,Net-(C4-Pad1)*%
X119420000Y-92230000D03*
%TO.P,Q8,2,B*%
%TO.N,Net-(Q8-Pad2)*%
X117350000Y-93500000D03*
D21*
%TO.P,Q8,1,C*%
%TO.N,Net-(Q8-Pad1)*%
X119420000Y-94770000D03*
%TD*%
D14*
%TO.P,R22,1*%
%TO.N,Net-(Q7-Pad1)*%
X113970000Y-65624000D03*
D18*
%TO.P,R22,2*%
%TO.N,GND*%
X111430000Y-65624000D03*
%TD*%
D12*
%TO.P,D1,1,K*%
%TO.N,Net-(D1-Pad1)*%
X102286000Y-60852234D03*
D13*
%TO.P,D1,2,A*%
%TO.N,Net-(D1-Pad2)*%
X102286000Y-58312234D03*
%TD*%
D21*
%TO.P,Q7,1,C*%
%TO.N,Net-(Q7-Pad1)*%
X119145000Y-64844000D03*
D22*
%TO.P,Q7,2,B*%
%TO.N,Net-(Q7-Pad2)*%
X117075000Y-63574000D03*
%TO.P,Q7,3,E*%
%TO.N,Net-(C4-Pad1)*%
X119145000Y-62304000D03*
%TD*%
D14*
%TO.P,R11,1*%
%TO.N,Net-(R11-Pad1)*%
X116510000Y-32821000D03*
D18*
%TO.P,R11,2*%
%TO.N,Net-(Q1-Pad2)*%
X113970000Y-32821000D03*
%TD*%
D14*
%TO.P,R21,1*%
%TO.N,Net-(U1-Pad15)*%
X140200000Y-84695000D03*
D18*
%TO.P,R21,2*%
%TO.N,GND*%
X140200000Y-87235000D03*
%TD*%
%TO.P,R8,2*%
%TO.N,Net-(Q8-Pad2)*%
X108940000Y-91850000D03*
D14*
%TO.P,R8,1*%
%TO.N,Net-(D6-Pad2)*%
X106400000Y-91850000D03*
%TD*%
D15*
%TO.P,J9,1,Pin_1*%
%TO.N,Net-(D1-Pad1)*%
X102475000Y-65624000D03*
%TD*%
D14*
%TO.P,C4,1*%
%TO.N,Net-(C4-Pad1)*%
X147000000Y-53500000D03*
%TO.P,C4,2*%
%TO.N,GND*%
X147000000Y-48500000D03*
%TD*%
D15*
%TO.P,J8,1,Pin_1*%
%TO.N,Net-(D1-Pad2)*%
X105011000Y-52553500D03*
%TD*%
D19*
%TO.P,Q6,1,C*%
%TO.N,Net-(U1-Pad15)*%
X139420000Y-79520000D03*
D20*
%TO.P,Q6,2,B*%
%TO.N,Net-(Q6-Pad2)*%
X138150000Y-81590000D03*
%TO.P,Q6,3,E*%
%TO.N,Net-(C4-Pad1)*%
X136880000Y-79520000D03*
%TD*%
D14*
%TO.P,R20,1*%
%TO.N,Net-(Q5-Pad1)*%
X129700000Y-84695000D03*
D18*
%TO.P,R20,2*%
%TO.N,GND*%
X129700000Y-87235000D03*
%TD*%
D15*
%TO.P,J14,1,Pin_1*%
%TO.N,Net-(D2-Pad1)*%
X102446000Y-75530000D03*
%TD*%
D21*
%TO.P,Q10,1,C*%
%TO.N,Net-(J3-Pad1)*%
X151595000Y-74195000D03*
D22*
%TO.P,Q10,2,B*%
%TO.N,Net-(Q10-Pad2)*%
X149525000Y-72925000D03*
%TO.P,Q10,3,E*%
%TO.N,GND*%
X151595000Y-71655000D03*
%TD*%
D15*
%TO.P,J6,1,Pin_1*%
%TO.N,Net-(J6-Pad1)*%
X105265000Y-34446000D03*
%TD*%
D14*
%TO.P,R7,1*%
%TO.N,Net-(D5-Pad2)*%
X106125000Y-61924000D03*
D18*
%TO.P,R7,2*%
%TO.N,Net-(Q7-Pad2)*%
X108665000Y-61924000D03*
%TD*%
D14*
%TO.P,R18,1*%
%TO.N,Net-(C4-Pad1)*%
X114045000Y-82000000D03*
D18*
%TO.P,R18,2*%
%TO.N,Net-(Q9-Pad2)*%
X111505000Y-82000000D03*
%TD*%
D31*
%TO.P,C3,1*%
%TO.N,Net-(C3-Pad1)*%
X148000000Y-37000000D03*
D14*
%TO.P,C3,2*%
%TO.N,GND*%
X150500000Y-37000000D03*
%TD*%
%TO.P,R14,1*%
%TO.N,Net-(C4-Pad1)*%
X126000000Y-84695000D03*
D18*
%TO.P,R14,2*%
%TO.N,Net-(Q5-Pad2)*%
X126000000Y-87235000D03*
%TD*%
D14*
%TO.P,R3,1*%
%TO.N,GND*%
X116430500Y-45058000D03*
D18*
%TO.P,R3,2*%
%TO.N,Net-(Q2-Pad2)*%
X113890500Y-45058000D03*
%TD*%
D24*
%TO.P,J12,1,Pin_1*%
%TO.N,Net-(D3-Pad1)*%
X129700000Y-96190000D03*
%TD*%
D18*
%TO.P,R17,2*%
%TO.N,Net-(Q8-Pad2)*%
X111705000Y-91850000D03*
D14*
%TO.P,R17,1*%
%TO.N,Net-(C4-Pad1)*%
X114245000Y-91850000D03*
%TD*%
D18*
%TO.P,R23,2*%
%TO.N,GND*%
X111705000Y-95550000D03*
D14*
%TO.P,R23,1*%
%TO.N,Net-(Q8-Pad1)*%
X114245000Y-95550000D03*
%TD*%
%TO.P,R10,1*%
%TO.N,Net-(C4-Pad1)*%
X113941000Y-71830000D03*
D18*
%TO.P,R10,2*%
%TO.N,Net-(Q4-Pad2)*%
X111401000Y-71830000D03*
%TD*%
D14*
%TO.P,R5,1*%
%TO.N,Net-(D3-Pad2)*%
X126000000Y-92540000D03*
D18*
%TO.P,R5,2*%
%TO.N,Net-(Q5-Pad2)*%
X126000000Y-90000000D03*
%TD*%
D32*
%TO.N,Net-(C4-Pad1)*%
X122000000Y-87500000D03*
X136500000Y-76000000D03*
%TO.N,Net-(J5-Pad5)*%
X144000000Y-52500000D03*
%TD*%
D33*
%TO.N,Net-(R11-Pad1)*%
X117821000Y-32821000D02*
X119750000Y-34750000D01*
X116510000Y-32821000D02*
X117821000Y-32821000D01*
X119750000Y-34750000D02*
X129750000Y-34750000D01*
X129750000Y-34750000D02*
X132515000Y-37515000D01*
X132515000Y-37515000D02*
X133700000Y-37515000D01*
%TO.N,Net-(J5-Pad5)*%
X134500000Y-32500000D02*
X133700000Y-33300000D01*
X142500000Y-32500000D02*
X134500000Y-32500000D01*
X144000000Y-34000000D02*
X142500000Y-32500000D01*
X133700000Y-33300000D02*
X133700000Y-34975000D01*
X144000000Y-52500000D02*
X144000000Y-34000000D01*
%TO.N,Net-(Q10-Pad2)*%
X146995000Y-71500000D02*
X146995000Y-74500000D01*
X148500000Y-71500000D02*
X146995000Y-71500000D01*
%TO.N,Net-(C3-Pad1)*%
X150555000Y-46055000D02*
X150555000Y-47460000D01*
X147500000Y-43000000D02*
X150555000Y-46055000D01*
X148000000Y-37000000D02*
X148000000Y-33000000D01*
X148000000Y-39750000D02*
X148000000Y-37000000D01*
X147500000Y-40250000D02*
X148000000Y-39750000D01*
X147500000Y-43000000D02*
X147500000Y-40250000D01*
X146500000Y-31500000D02*
X148000000Y-33000000D01*
%TO.N,Net-(C4-Pad1)*%
X120770000Y-92230000D02*
X119020000Y-92230000D01*
X122000000Y-87500000D02*
X122000000Y-91000000D01*
X122000000Y-91000000D02*
X120770000Y-92230000D01*
X129000000Y-48000000D02*
X129000000Y-47000000D01*
X118440000Y-82000000D02*
X118820000Y-82380000D01*
X133215000Y-50215000D02*
X132000000Y-49000000D01*
X136500000Y-80300000D02*
X136880000Y-79920000D01*
X114245000Y-91850000D02*
X118640000Y-91850000D01*
X132000000Y-49000000D02*
X130000000Y-49000000D01*
X136500000Y-52000000D02*
X134715000Y-50215000D01*
X136500000Y-55500000D02*
X136500000Y-52000000D01*
X126000000Y-84695000D02*
X126000000Y-80300000D01*
X118365000Y-61924000D02*
X118745000Y-62304000D01*
X148000000Y-53500000D02*
X148960000Y-52540000D01*
X141320000Y-55295000D02*
X143955000Y-55295000D01*
X145750000Y-53500000D02*
X147000000Y-53500000D01*
X147000000Y-53500000D02*
X148000000Y-53500000D01*
X151000000Y-52985000D02*
X150555000Y-52540000D01*
X143955000Y-55295000D02*
X145750000Y-53500000D01*
X136705000Y-55295000D02*
X136500000Y-55500000D01*
X126000000Y-80300000D02*
X126380000Y-79920000D01*
X148960000Y-52540000D02*
X150555000Y-52540000D01*
X114045000Y-82000000D02*
X118440000Y-82000000D01*
X136500000Y-84695000D02*
X136500000Y-80300000D01*
X113941000Y-71830000D02*
X118336000Y-71830000D01*
X113970000Y-61924000D02*
X118365000Y-61924000D01*
X118336000Y-71830000D02*
X118716000Y-72210000D01*
X151000000Y-61700000D02*
X151000000Y-52985000D01*
X134715000Y-50215000D02*
X133700000Y-50215000D01*
X118640000Y-91850000D02*
X119020000Y-92230000D01*
X141320000Y-55295000D02*
X136705000Y-55295000D01*
X130000000Y-49000000D02*
X129000000Y-48000000D01*
X136500000Y-76000000D02*
X136500000Y-55500000D01*
%TO.N,Net-(D2-Pad2)*%
X108476000Y-74210000D02*
X108476000Y-75530000D01*
X106096000Y-71830000D02*
X108476000Y-74210000D01*
%TO.N,Net-(D3-Pad2)*%
X128380000Y-90160000D02*
X129700000Y-90160000D01*
X126000000Y-92540000D02*
X128380000Y-90160000D01*
%TO.N,Net-(D4-Pad2)*%
X138880000Y-90160000D02*
X140200000Y-90160000D01*
X136500000Y-92540000D02*
X138880000Y-90160000D01*
%TO.N,Net-(D5-Pad2)*%
X108505000Y-64304000D02*
X108505000Y-65624000D01*
X106125000Y-61924000D02*
X108505000Y-64304000D01*
%TO.N,Net-(D6-Pad2)*%
X108780000Y-94230000D02*
X108780000Y-95550000D01*
X106400000Y-91850000D02*
X108780000Y-94230000D01*
%TO.N,Net-(D7-Pad2)*%
X108580000Y-84380000D02*
X108580000Y-85700000D01*
X106200000Y-82000000D02*
X108580000Y-84380000D01*
%TO.N,Net-(J5-Pad2)*%
X141915000Y-62915000D02*
X144460000Y-65460000D01*
X144460000Y-65460000D02*
X145500000Y-65460000D01*
X141320000Y-62915000D02*
X141915000Y-62915000D01*
%TO.N,Net-(J5-Pad3)*%
X141875000Y-60375000D02*
X144420000Y-62920000D01*
X144420000Y-62920000D02*
X145500000Y-62920000D01*
X141320000Y-60375000D02*
X141875000Y-60375000D01*
%TO.N,Net-(J5-Pad4)*%
X141320000Y-57835000D02*
X142335000Y-57835000D01*
X142335000Y-57835000D02*
X144880000Y-60380000D01*
X144880000Y-60380000D02*
X145500000Y-60380000D01*
%TO.N,Net-(Q1-Pad2)*%
X113970000Y-36016000D02*
X113975000Y-36021000D01*
X112615000Y-32821000D02*
X111040000Y-34396000D01*
X113970000Y-32821000D02*
X113970000Y-36016000D01*
X113970000Y-32821000D02*
X112615000Y-32821000D01*
%TO.N,Net-(Q2-Pad2)*%
X113885500Y-41858000D02*
X113885500Y-45053000D01*
X113885500Y-45053000D02*
X113890500Y-45058000D01*
X113885500Y-41858000D02*
X112530500Y-41858000D01*
X112530500Y-41858000D02*
X110955500Y-43433000D01*
%TO.N,Net-(Q3-Pad2)*%
X113716000Y-50928500D02*
X113716000Y-54123500D01*
X112361000Y-50928500D02*
X110786000Y-52503500D01*
X113716000Y-54123500D02*
X113721000Y-54128500D01*
X113716000Y-50928500D02*
X112361000Y-50928500D01*
%TO.N,Net-(U1-Pad6)*%
X128500000Y-43500000D02*
X132675000Y-47675000D01*
X121500000Y-66000000D02*
X123000000Y-64500000D01*
X122000000Y-58500000D02*
X122000000Y-45000000D01*
X121500000Y-73500000D02*
X121500000Y-66000000D01*
X122000000Y-45000000D02*
X123500000Y-43500000D01*
X117936000Y-75530000D02*
X118666000Y-74800000D01*
X120250000Y-74750000D02*
X121500000Y-73500000D01*
X123500000Y-43500000D02*
X128500000Y-43500000D01*
X118716000Y-74750000D02*
X120250000Y-74750000D01*
X123000000Y-64500000D02*
X123000000Y-59500000D01*
X132675000Y-47675000D02*
X133700000Y-47675000D01*
X113941000Y-75530000D02*
X117936000Y-75530000D01*
X123000000Y-59500000D02*
X122000000Y-58500000D01*
%TO.N,Net-(Q4-Pad2)*%
X108636000Y-71830000D02*
X111401000Y-71830000D01*
X111401000Y-71830000D02*
X111401000Y-72635000D01*
X112246000Y-73480000D02*
X117446000Y-73480000D01*
X111401000Y-72635000D02*
X112246000Y-73480000D01*
%TO.N,Net-(Q5-Pad1)*%
X131000000Y-77840000D02*
X131000000Y-70000000D01*
X128920000Y-79920000D02*
X131000000Y-77840000D01*
X129700000Y-80700000D02*
X128970000Y-79970000D01*
X129700000Y-84695000D02*
X129700000Y-80700000D01*
X133005000Y-67995000D02*
X131000000Y-70000000D01*
X133700000Y-67995000D02*
X133005000Y-67995000D01*
%TO.N,Net-(Q5-Pad2)*%
X127650000Y-86390000D02*
X127650000Y-81190000D01*
X126000000Y-90000000D02*
X126000000Y-87235000D01*
X126805000Y-87235000D02*
X127650000Y-86390000D01*
X126000000Y-87235000D02*
X126805000Y-87235000D01*
%TO.N,Net-(U1-Pad15)*%
X139420000Y-79920000D02*
X141320000Y-78020000D01*
X141320000Y-78020000D02*
X141320000Y-67995000D01*
X140200000Y-84695000D02*
X140200000Y-80700000D01*
X140200000Y-80700000D02*
X139470000Y-79970000D01*
%TO.N,Net-(Q6-Pad2)*%
X138150000Y-86390000D02*
X138150000Y-81190000D01*
X137305000Y-87235000D02*
X138150000Y-86390000D01*
X136500000Y-87235000D02*
X137305000Y-87235000D01*
X136500000Y-90000000D02*
X136500000Y-87235000D01*
%TO.N,Net-(Q7-Pad1)*%
X113970000Y-65624000D02*
X117965000Y-65624000D01*
X120156000Y-64844000D02*
X121500000Y-63500000D01*
X121500000Y-63500000D02*
X121500000Y-60500000D01*
X129250000Y-42000000D02*
X132385000Y-45135000D01*
X121500000Y-60500000D02*
X120500000Y-59500000D01*
X117965000Y-65624000D02*
X118695000Y-64894000D01*
X120500000Y-43500000D02*
X122000000Y-42000000D01*
X120500000Y-59500000D02*
X120500000Y-43500000D01*
X118745000Y-64844000D02*
X120156000Y-64844000D01*
X132385000Y-45135000D02*
X133700000Y-45135000D01*
X122000000Y-42000000D02*
X129250000Y-42000000D01*
%TO.N,Net-(Q7-Pad2)*%
X111430000Y-61924000D02*
X111430000Y-62729000D01*
X112275000Y-63574000D02*
X117475000Y-63574000D01*
X108665000Y-61924000D02*
X111430000Y-61924000D01*
X111430000Y-62729000D02*
X112275000Y-63574000D01*
%TO.N,Net-(Q8-Pad1)*%
X119020000Y-94770000D02*
X121230000Y-94770000D01*
X118240000Y-95550000D02*
X118970000Y-94820000D01*
X129000000Y-65500000D02*
X131585000Y-62915000D01*
X131585000Y-62915000D02*
X133700000Y-62915000D01*
X121230000Y-94770000D02*
X123500000Y-92500000D01*
X123500000Y-92500000D02*
X123500000Y-77000000D01*
X114245000Y-95550000D02*
X118240000Y-95550000D01*
X123500000Y-77000000D02*
X129000000Y-71500000D01*
X129000000Y-71500000D02*
X129000000Y-65500000D01*
%TO.N,Net-(Q8-Pad2)*%
X111705000Y-91850000D02*
X111705000Y-92655000D01*
X108940000Y-91850000D02*
X111705000Y-91850000D01*
X112550000Y-93500000D02*
X117750000Y-93500000D01*
X111705000Y-92655000D02*
X112550000Y-93500000D01*
%TO.N,Net-(Q9-Pad1)*%
X133700000Y-60375000D02*
X131125000Y-60375000D01*
X131125000Y-60375000D02*
X126500000Y-65000000D01*
X126500000Y-71000000D02*
X121500000Y-76000000D01*
X121500000Y-84000000D02*
X120500000Y-85000000D01*
X118040000Y-85700000D02*
X118770000Y-84970000D01*
X114045000Y-85700000D02*
X118040000Y-85700000D01*
X126500000Y-65000000D02*
X126500000Y-71000000D01*
X121500000Y-76000000D02*
X121500000Y-84000000D01*
X120500000Y-85000000D02*
X118900000Y-85000000D01*
X118900000Y-85000000D02*
X118820000Y-84920000D01*
%TO.N,Net-(Q9-Pad2)*%
X111505000Y-82000000D02*
X111505000Y-82805000D01*
X112350000Y-83650000D02*
X117550000Y-83650000D01*
X111505000Y-82805000D02*
X112350000Y-83650000D01*
X108740000Y-82000000D02*
X111505000Y-82000000D01*
%TO.N,Net-(R12-Pad1)*%
X133700000Y-40055000D02*
X132555000Y-40055000D01*
X130500000Y-38000000D02*
X120283500Y-38000000D01*
X132555000Y-40055000D02*
X130500000Y-38000000D01*
X120283500Y-38000000D02*
X116425500Y-41858000D01*
%TO.N,Net-(R13-Pad1)*%
X132595000Y-42595000D02*
X133700000Y-42595000D01*
X116256000Y-50928500D02*
X118071500Y-50928500D01*
X130000000Y-40000000D02*
X132595000Y-42595000D01*
X119000000Y-42250000D02*
X121250000Y-40000000D01*
X118071500Y-50928500D02*
X119000000Y-50000000D01*
X119000000Y-50000000D02*
X119000000Y-42250000D01*
X121250000Y-40000000D02*
X130000000Y-40000000D01*
%TO.N,Net-(D1-Pad1)*%
X102475000Y-65624000D02*
X105965000Y-65624000D01*
X102286000Y-65435000D02*
X102475000Y-65624000D01*
X102286000Y-60852234D02*
X102286000Y-65435000D01*
%TO.N,Net-(D1-Pad2)*%
X105011000Y-52553500D02*
X105861000Y-52553500D01*
X105011000Y-52553500D02*
X103446500Y-52553500D01*
X105861000Y-52553500D02*
X107181000Y-51233500D01*
X107181000Y-51233500D02*
X109516000Y-51233500D01*
X103446500Y-52553500D02*
X102286000Y-53714000D01*
X102286000Y-53714000D02*
X102286000Y-58312234D01*
%TO.N,Net-(D2-Pad1)*%
X102446000Y-75530000D02*
X105936000Y-75530000D01*
%TO.N,Net-(D3-Pad1)*%
X129700000Y-96190000D02*
X129700000Y-92700000D01*
%TO.N,Net-(D4-Pad1)*%
X140200000Y-96190000D02*
X140200000Y-92700000D01*
%TO.N,Net-(D6-Pad1)*%
X102750000Y-95550000D02*
X106240000Y-95550000D01*
%TO.N,Net-(D7-Pad1)*%
X102550000Y-85700000D02*
X106040000Y-85700000D01*
%TO.N,Net-(J3-Pad1)*%
X153805000Y-74195000D02*
X151195000Y-74195000D01*
X154000000Y-67500000D02*
X154000000Y-74000000D01*
X153000000Y-66500000D02*
X154000000Y-67500000D01*
X154000000Y-74000000D02*
X153805000Y-74195000D01*
X151000000Y-66500000D02*
X153000000Y-66500000D01*
%TO.N,Net-(J6-Pad1)*%
X106115000Y-34446000D02*
X107435000Y-33126000D01*
X107435000Y-33126000D02*
X109770000Y-33126000D01*
X105265000Y-34446000D02*
X106115000Y-34446000D01*
%TO.N,Net-(J7-Pad1)*%
X105180500Y-43483000D02*
X106030500Y-43483000D01*
X107350500Y-42163000D02*
X109685500Y-42163000D01*
X106030500Y-43483000D02*
X107350500Y-42163000D01*
%TO.N,Net-(Q10-Pad2)*%
X148500000Y-71500000D02*
X149925000Y-72925000D01*
%TO.N,Net-(R25-Pad1)*%
X141955000Y-65455000D02*
X141320000Y-65455000D01*
X143500000Y-67000000D02*
X141955000Y-65455000D01*
X144455000Y-71500000D02*
X143500000Y-70545000D01*
X143500000Y-70545000D02*
X143500000Y-67000000D01*
%TD*%
M02*
