M48
; DRILL file {KiCad (6.0.4)} date Sun Jul 23 18:33:26 2023
; FORMAT={-:-/ absolute / inch / decimal}
; #@! TF.CreationDate,2023-07-23T18:33:26+02:00
; #@! TF.GenerationSoftware,Kicad,Pcbnew,(6.0.4)
; #@! TF.FileFunction,Plated,1,2,PTH
FMAT,2
INCH
; #@! TA.AperFunction,Plated,PTH,ViaDrill
T1C0.0157
; #@! TA.AperFunction,Plated,PTH,ComponentDrill
T2C0.0295
; #@! TA.AperFunction,Plated,PTH,ComponentDrill
T3C0.0315
; #@! TA.AperFunction,Plated,PTH,ComponentDrill
T4C0.0394
; #@! TA.AperFunction,Plated,PTH,ComponentDrill
T5C0.0433
; #@! TA.AperFunction,Plated,PTH,ComponentDrill
T6C0.0610
; #@! TA.AperFunction,Plated,PTH,ComponentDrill
T7C0.0984
%
G90
G05
T1
X4.6772Y-2.0709
X4.7165Y-2.7165
X4.7165Y-3.126
X4.7402Y-3.5354
X4.8819Y-2.6772
X4.9291Y-2.4252
X5.0079Y-1.3386
X5.0866Y-2.9291
X5.2441Y-3.0315
X5.6693Y-2.0669
T2
X4.3117Y-2.0171
X4.3117Y-2.1171
X4.3183Y-1.66
X4.3183Y-1.76
X4.3217Y-1.3042
X4.3217Y-1.4042
X4.3617Y-2.0671
X4.3683Y-1.71
X4.3717Y-1.3542
X4.6239Y-2.8929
X4.625Y-2.5029
X4.628Y-3.2933
X4.6358Y-3.6811
X4.6739Y-2.8429
X4.6739Y-2.9429
X4.675Y-2.4529
X4.675Y-2.5529
X4.678Y-3.2433
X4.678Y-3.3433
X4.6858Y-3.6311
X4.6858Y-3.7311
X4.9756Y-3.1465
X5.0256Y-3.1965
X5.0756Y-3.1465
X5.389Y-3.1465
X5.439Y-3.1965
X5.489Y-3.1465
X5.9026Y-2.8711
X5.9526Y-2.8211
X5.9526Y-2.9211
T3
X4.177Y-2.828
X4.1781Y-2.438
X4.1793Y-2.7087
X4.1793Y-3.1024
X4.1811Y-3.2283
X4.189Y-3.4961
X4.189Y-3.6161
X4.277Y-2.828
X4.2781Y-2.438
X4.2793Y-2.7087
X4.2793Y-3.1024
X4.2811Y-3.2283
X4.289Y-3.4961
X4.289Y-3.6161
X4.3859Y-2.828
X4.3859Y-2.9736
X4.387Y-2.438
X4.387Y-2.5836
X4.39Y-3.2283
X4.39Y-3.374
X4.3978Y-3.6161
X4.3978Y-3.7618
X4.4156Y-2.2835
X4.477Y-2.0051
X4.4772Y-2.131
X4.4837Y-1.648
X4.4839Y-1.7739
X4.4859Y-2.828
X4.4859Y-2.9736
X4.487Y-1.2922
X4.487Y-2.438
X4.487Y-2.5836
X4.4872Y-1.4181
X4.49Y-3.2283
X4.49Y-3.374
X4.4978Y-3.6161
X4.4978Y-3.7618
X4.5156Y-2.2835
X4.577Y-2.0051
X4.5772Y-2.131
X4.5837Y-1.648
X4.5839Y-1.7739
X4.587Y-1.2922
X4.5872Y-1.4181
X4.8819Y-1.8504
X4.9606Y-2.05
X4.9606Y-2.2421
X4.9606Y-3.3344
X4.9606Y-3.4344
X4.9606Y-3.5433
X4.9606Y-3.6433
X4.9764Y-3.76
X4.9764Y-3.86
X5.0787Y-1.8504
X5.1063Y-3.3344
X5.1063Y-3.4344
X5.1378Y-2.0177
X5.1378Y-2.1161
X5.1378Y-2.2146
X5.1378Y-2.313
X5.2441Y-3.3191
X5.2441Y-3.4191
X5.2638Y-1.377
X5.2638Y-1.477
X5.2638Y-1.577
X5.2638Y-1.677
X5.2638Y-1.777
X5.2638Y-1.877
X5.2638Y-1.977
X5.2638Y-2.077
X5.2638Y-2.177
X5.2638Y-2.277
X5.2638Y-2.377
X5.2638Y-2.477
X5.2638Y-2.577
X5.2638Y-2.677
X5.374Y-3.3344
X5.374Y-3.4344
X5.374Y-3.5433
X5.374Y-3.6433
X5.5197Y-3.3344
X5.5197Y-3.4344
X5.5638Y-1.377
X5.5638Y-1.477
X5.5638Y-1.577
X5.5638Y-1.677
X5.5638Y-1.777
X5.5638Y-1.877
X5.5638Y-1.977
X5.5638Y-2.077
X5.5638Y-2.177
X5.5638Y-2.277
X5.5638Y-2.377
X5.5638Y-2.477
X5.5638Y-2.577
X5.5638Y-2.677
X5.6872Y-2.815
X5.6872Y-2.9331
X5.7872Y-2.815
X5.7872Y-2.9331
X5.7874Y-1.9094
X5.7874Y-2.1063
X5.8071Y-1.6929
X5.8268Y-1.4567
X5.9252Y-1.4567
X6.0039Y-1.6929
T4
X5.7283Y-2.2772
X5.7283Y-2.3772
X5.7283Y-2.4772
X5.7283Y-2.5772
X5.7283Y-2.6772
T5
X4.027Y-2.2958
X4.027Y-2.3958
X4.0394Y-2.7373
X4.0394Y-2.8373
X4.0394Y-3.1389
X4.0394Y-3.2389
X4.0472Y-3.5299
X4.0472Y-3.6299
X4.1707Y-2.9736
X4.1719Y-2.5836
X4.1748Y-3.374
X4.1784Y-2.2835
X4.1827Y-3.7618
X4.2707Y-2.9736
X4.2719Y-2.5836
X4.2748Y-3.374
X4.2784Y-2.2835
X4.2827Y-3.7618
X5.1063Y-3.5496
X5.1063Y-3.6496
X5.2441Y-3.5484
X5.2441Y-3.6484
X5.2728Y-3.7874
X5.3728Y-3.7874
X5.5197Y-3.5496
X5.5197Y-3.6496
X5.9274Y-1.8685
X5.9274Y-1.9685
X5.9274Y-2.0685
T6
X4.0333Y-2.9736
X4.0344Y-2.5836
X4.0374Y-3.374
X4.0453Y-3.7618
X4.1343Y-2.069
X4.141Y-1.7119
X4.1443Y-1.3561
X5.1063Y-3.787
X5.5197Y-3.787
X5.7283Y-1.2205
X5.7283Y-3.7992
X5.9449Y-2.4291
X5.9449Y-2.6181
T7
X5.7283Y-3.3465
X5.7283Y-3.563
X5.9843Y-3.1496
X5.9843Y-3.3839
X5.9843Y-3.622
T0
M30
