%TF.GenerationSoftware,KiCad,Pcbnew,(6.0.4)*%
%TF.CreationDate,2023-03-03T22:10:40+01:00*%
%TF.ProjectId,OT_windows_remapper,4f545f77-696e-4646-9f77-735f72656d61,rev?*%
%TF.SameCoordinates,Original*%
%TF.FileFunction,Legend,Top*%
%TF.FilePolarity,Positive*%
%FSLAX46Y46*%
G04 Gerber Fmt 4.6, Leading zero omitted, Abs format (unit mm)*
G04 Created by KiCad (PCBNEW (6.0.4)) date 2023-03-03 22:10:40*
%MOMM*%
%LPD*%
G01*
G04 APERTURE LIST*
%ADD10C,0.200000*%
%ADD11C,0.150000*%
%ADD12C,0.120000*%
G04 APERTURE END LIST*
D10*
X123261904Y-72647380D02*
X123452380Y-72647380D01*
X123547619Y-72695000D01*
X123642857Y-72790238D01*
X123690476Y-72980714D01*
X123690476Y-73314047D01*
X123642857Y-73504523D01*
X123547619Y-73599761D01*
X123452380Y-73647380D01*
X123261904Y-73647380D01*
X123166666Y-73599761D01*
X123071428Y-73504523D01*
X123023809Y-73314047D01*
X123023809Y-72980714D01*
X123071428Y-72790238D01*
X123166666Y-72695000D01*
X123261904Y-72647380D01*
X123976190Y-72647380D02*
X124547619Y-72647380D01*
X124261904Y-73647380D02*
X124261904Y-72647380D01*
X124642857Y-73742619D02*
X125404761Y-73742619D01*
X125547619Y-72980714D02*
X125738095Y-73647380D01*
X125928571Y-73171190D01*
X126119047Y-73647380D01*
X126309523Y-72980714D01*
X126690476Y-73647380D02*
X126690476Y-72980714D01*
X126690476Y-72647380D02*
X126642857Y-72695000D01*
X126690476Y-72742619D01*
X126738095Y-72695000D01*
X126690476Y-72647380D01*
X126690476Y-72742619D01*
X127166666Y-72980714D02*
X127166666Y-73647380D01*
X127166666Y-73075952D02*
X127214285Y-73028333D01*
X127309523Y-72980714D01*
X127452380Y-72980714D01*
X127547619Y-73028333D01*
X127595238Y-73123571D01*
X127595238Y-73647380D01*
X128500000Y-73647380D02*
X128500000Y-72647380D01*
X128500000Y-73599761D02*
X128404761Y-73647380D01*
X128214285Y-73647380D01*
X128119047Y-73599761D01*
X128071428Y-73552142D01*
X128023809Y-73456904D01*
X128023809Y-73171190D01*
X128071428Y-73075952D01*
X128119047Y-73028333D01*
X128214285Y-72980714D01*
X128404761Y-72980714D01*
X128500000Y-73028333D01*
X129119047Y-73647380D02*
X129023809Y-73599761D01*
X128976190Y-73552142D01*
X128928571Y-73456904D01*
X128928571Y-73171190D01*
X128976190Y-73075952D01*
X129023809Y-73028333D01*
X129119047Y-72980714D01*
X129261904Y-72980714D01*
X129357142Y-73028333D01*
X129404761Y-73075952D01*
X129452380Y-73171190D01*
X129452380Y-73456904D01*
X129404761Y-73552142D01*
X129357142Y-73599761D01*
X129261904Y-73647380D01*
X129119047Y-73647380D01*
X129785714Y-72980714D02*
X129976190Y-73647380D01*
X130166666Y-73171190D01*
X130357142Y-73647380D01*
X130547619Y-72980714D01*
X130880952Y-73599761D02*
X130976190Y-73647380D01*
X131166666Y-73647380D01*
X131261904Y-73599761D01*
X131309523Y-73504523D01*
X131309523Y-73456904D01*
X131261904Y-73361666D01*
X131166666Y-73314047D01*
X131023809Y-73314047D01*
X130928571Y-73266428D01*
X130880952Y-73171190D01*
X130880952Y-73123571D01*
X130928571Y-73028333D01*
X131023809Y-72980714D01*
X131166666Y-72980714D01*
X131261904Y-73028333D01*
X131500000Y-73742619D02*
X132261904Y-73742619D01*
X132642857Y-73647380D02*
X132547619Y-73599761D01*
X132500000Y-73504523D01*
X132500000Y-72647380D01*
X133023809Y-73647380D02*
X133023809Y-72980714D01*
X133023809Y-72647380D02*
X132976190Y-72695000D01*
X133023809Y-72742619D01*
X133071428Y-72695000D01*
X133023809Y-72647380D01*
X133023809Y-72742619D01*
X133357142Y-72980714D02*
X133738095Y-72980714D01*
X133500000Y-73647380D02*
X133500000Y-72790238D01*
X133547619Y-72695000D01*
X133642857Y-72647380D01*
X133738095Y-72647380D01*
X133928571Y-72980714D02*
X134309523Y-72980714D01*
X134071428Y-72647380D02*
X134071428Y-73504523D01*
X134119047Y-73599761D01*
X134214285Y-73647380D01*
X134309523Y-73647380D01*
X135404761Y-73647380D02*
X135404761Y-72980714D01*
X135404761Y-73171190D02*
X135452380Y-73075952D01*
X135500000Y-73028333D01*
X135595238Y-72980714D01*
X135690476Y-72980714D01*
X136404761Y-73599761D02*
X136309523Y-73647380D01*
X136119047Y-73647380D01*
X136023809Y-73599761D01*
X135976190Y-73504523D01*
X135976190Y-73123571D01*
X136023809Y-73028333D01*
X136119047Y-72980714D01*
X136309523Y-72980714D01*
X136404761Y-73028333D01*
X136452380Y-73123571D01*
X136452380Y-73218809D01*
X135976190Y-73314047D01*
X136880952Y-73647380D02*
X136880952Y-72980714D01*
X136880952Y-73075952D02*
X136928571Y-73028333D01*
X137023809Y-72980714D01*
X137166666Y-72980714D01*
X137261904Y-73028333D01*
X137309523Y-73123571D01*
X137309523Y-73647380D01*
X137309523Y-73123571D02*
X137357142Y-73028333D01*
X137452380Y-72980714D01*
X137595238Y-72980714D01*
X137690476Y-73028333D01*
X137738095Y-73123571D01*
X137738095Y-73647380D01*
X138642857Y-73647380D02*
X138642857Y-73123571D01*
X138595238Y-73028333D01*
X138500000Y-72980714D01*
X138309523Y-72980714D01*
X138214285Y-73028333D01*
X138642857Y-73599761D02*
X138547619Y-73647380D01*
X138309523Y-73647380D01*
X138214285Y-73599761D01*
X138166666Y-73504523D01*
X138166666Y-73409285D01*
X138214285Y-73314047D01*
X138309523Y-73266428D01*
X138547619Y-73266428D01*
X138642857Y-73218809D01*
X139119047Y-72980714D02*
X139119047Y-73980714D01*
X139119047Y-73028333D02*
X139214285Y-72980714D01*
X139404761Y-72980714D01*
X139500000Y-73028333D01*
X139547619Y-73075952D01*
X139595238Y-73171190D01*
X139595238Y-73456904D01*
X139547619Y-73552142D01*
X139500000Y-73599761D01*
X139404761Y-73647380D01*
X139214285Y-73647380D01*
X139119047Y-73599761D01*
X140023809Y-72980714D02*
X140023809Y-73980714D01*
X140023809Y-73028333D02*
X140119047Y-72980714D01*
X140309523Y-72980714D01*
X140404761Y-73028333D01*
X140452380Y-73075952D01*
X140500000Y-73171190D01*
X140500000Y-73456904D01*
X140452380Y-73552142D01*
X140404761Y-73599761D01*
X140309523Y-73647380D01*
X140119047Y-73647380D01*
X140023809Y-73599761D01*
X141309523Y-73599761D02*
X141214285Y-73647380D01*
X141023809Y-73647380D01*
X140928571Y-73599761D01*
X140880952Y-73504523D01*
X140880952Y-73123571D01*
X140928571Y-73028333D01*
X141023809Y-72980714D01*
X141214285Y-72980714D01*
X141309523Y-73028333D01*
X141357142Y-73123571D01*
X141357142Y-73218809D01*
X140880952Y-73314047D01*
X141785714Y-73647380D02*
X141785714Y-72980714D01*
X141785714Y-73171190D02*
X141833333Y-73075952D01*
X141880952Y-73028333D01*
X141976190Y-72980714D01*
X142071428Y-72980714D01*
X126071428Y-74590714D02*
X126309523Y-75257380D01*
X126547619Y-74590714D01*
X127452380Y-75257380D02*
X126880952Y-75257380D01*
X127166666Y-75257380D02*
X127166666Y-74257380D01*
X127071428Y-74400238D01*
X126976190Y-74495476D01*
X126880952Y-74543095D01*
X127880952Y-75162142D02*
X127928571Y-75209761D01*
X127880952Y-75257380D01*
X127833333Y-75209761D01*
X127880952Y-75162142D01*
X127880952Y-75257380D01*
X128547619Y-74257380D02*
X128642857Y-74257380D01*
X128738095Y-74305000D01*
X128785714Y-74352619D01*
X128833333Y-74447857D01*
X128880952Y-74638333D01*
X128880952Y-74876428D01*
X128833333Y-75066904D01*
X128785714Y-75162142D01*
X128738095Y-75209761D01*
X128642857Y-75257380D01*
X128547619Y-75257380D01*
X128452380Y-75209761D01*
X128404761Y-75162142D01*
X128357142Y-75066904D01*
X128309523Y-74876428D01*
X128309523Y-74638333D01*
X128357142Y-74447857D01*
X128404761Y-74352619D01*
X128452380Y-74305000D01*
X128547619Y-74257380D01*
X129309523Y-75162142D02*
X129357142Y-75209761D01*
X129309523Y-75257380D01*
X129261904Y-75209761D01*
X129309523Y-75162142D01*
X129309523Y-75257380D01*
X129976190Y-74257380D02*
X130071428Y-74257380D01*
X130166666Y-74305000D01*
X130214285Y-74352619D01*
X130261904Y-74447857D01*
X130309523Y-74638333D01*
X130309523Y-74876428D01*
X130261904Y-75066904D01*
X130214285Y-75162142D01*
X130166666Y-75209761D01*
X130071428Y-75257380D01*
X129976190Y-75257380D01*
X129880952Y-75209761D01*
X129833333Y-75162142D01*
X129785714Y-75066904D01*
X129738095Y-74876428D01*
X129738095Y-74638333D01*
X129785714Y-74447857D01*
X129833333Y-74352619D01*
X129880952Y-74305000D01*
X129976190Y-74257380D01*
X131404761Y-74257380D02*
X132023809Y-74257380D01*
X131690476Y-74638333D01*
X131833333Y-74638333D01*
X131928571Y-74685952D01*
X131976190Y-74733571D01*
X132023809Y-74828809D01*
X132023809Y-75066904D01*
X131976190Y-75162142D01*
X131928571Y-75209761D01*
X131833333Y-75257380D01*
X131547619Y-75257380D01*
X131452380Y-75209761D01*
X131404761Y-75162142D01*
X133166666Y-74209761D02*
X132309523Y-75495476D01*
X133404761Y-74257380D02*
X134023809Y-74257380D01*
X133690476Y-74638333D01*
X133833333Y-74638333D01*
X133928571Y-74685952D01*
X133976190Y-74733571D01*
X134023809Y-74828809D01*
X134023809Y-75066904D01*
X133976190Y-75162142D01*
X133928571Y-75209761D01*
X133833333Y-75257380D01*
X133547619Y-75257380D01*
X133452380Y-75209761D01*
X133404761Y-75162142D01*
X135166666Y-74209761D02*
X134309523Y-75495476D01*
X135452380Y-74352619D02*
X135500000Y-74305000D01*
X135595238Y-74257380D01*
X135833333Y-74257380D01*
X135928571Y-74305000D01*
X135976190Y-74352619D01*
X136023809Y-74447857D01*
X136023809Y-74543095D01*
X135976190Y-74685952D01*
X135404761Y-75257380D01*
X136023809Y-75257380D01*
X136642857Y-74257380D02*
X136738095Y-74257380D01*
X136833333Y-74305000D01*
X136880952Y-74352619D01*
X136928571Y-74447857D01*
X136976190Y-74638333D01*
X136976190Y-74876428D01*
X136928571Y-75066904D01*
X136880952Y-75162142D01*
X136833333Y-75209761D01*
X136738095Y-75257380D01*
X136642857Y-75257380D01*
X136547619Y-75209761D01*
X136500000Y-75162142D01*
X136452380Y-75066904D01*
X136404761Y-74876428D01*
X136404761Y-74638333D01*
X136452380Y-74447857D01*
X136500000Y-74352619D01*
X136547619Y-74305000D01*
X136642857Y-74257380D01*
X137357142Y-74352619D02*
X137404761Y-74305000D01*
X137500000Y-74257380D01*
X137738095Y-74257380D01*
X137833333Y-74305000D01*
X137880952Y-74352619D01*
X137928571Y-74447857D01*
X137928571Y-74543095D01*
X137880952Y-74685952D01*
X137309523Y-75257380D01*
X137928571Y-75257380D01*
X138261904Y-74257380D02*
X138880952Y-74257380D01*
X138547619Y-74638333D01*
X138690476Y-74638333D01*
X138785714Y-74685952D01*
X138833333Y-74733571D01*
X138880952Y-74828809D01*
X138880952Y-75066904D01*
X138833333Y-75162142D01*
X138785714Y-75209761D01*
X138690476Y-75257380D01*
X138404761Y-75257380D01*
X138309523Y-75209761D01*
X138261904Y-75162142D01*
D11*
%TO.C,U1*%
X131843333Y-70491666D02*
X132319523Y-70491666D01*
X131748095Y-70777380D02*
X132081428Y-69777380D01*
X132414761Y-70777380D01*
X132605238Y-69777380D02*
X133176666Y-69777380D01*
X132890952Y-70777380D02*
X132890952Y-69777380D01*
X133510000Y-70777380D02*
X133510000Y-70110714D01*
X133510000Y-70205952D02*
X133557619Y-70158333D01*
X133652857Y-70110714D01*
X133795714Y-70110714D01*
X133890952Y-70158333D01*
X133938571Y-70253571D01*
X133938571Y-70777380D01*
X133938571Y-70253571D02*
X133986190Y-70158333D01*
X134081428Y-70110714D01*
X134224285Y-70110714D01*
X134319523Y-70158333D01*
X134367142Y-70253571D01*
X134367142Y-70777380D01*
X135224285Y-70729761D02*
X135129047Y-70777380D01*
X134938571Y-70777380D01*
X134843333Y-70729761D01*
X134795714Y-70634523D01*
X134795714Y-70253571D01*
X134843333Y-70158333D01*
X134938571Y-70110714D01*
X135129047Y-70110714D01*
X135224285Y-70158333D01*
X135271904Y-70253571D01*
X135271904Y-70348809D01*
X134795714Y-70444047D01*
X136129047Y-70110714D02*
X136129047Y-70920238D01*
X136081428Y-71015476D01*
X136033809Y-71063095D01*
X135938571Y-71110714D01*
X135795714Y-71110714D01*
X135700476Y-71063095D01*
X136129047Y-70729761D02*
X136033809Y-70777380D01*
X135843333Y-70777380D01*
X135748095Y-70729761D01*
X135700476Y-70682142D01*
X135652857Y-70586904D01*
X135652857Y-70301190D01*
X135700476Y-70205952D01*
X135748095Y-70158333D01*
X135843333Y-70110714D01*
X136033809Y-70110714D01*
X136129047Y-70158333D01*
X137033809Y-70777380D02*
X137033809Y-70253571D01*
X136986190Y-70158333D01*
X136890952Y-70110714D01*
X136700476Y-70110714D01*
X136605238Y-70158333D01*
X137033809Y-70729761D02*
X136938571Y-70777380D01*
X136700476Y-70777380D01*
X136605238Y-70729761D01*
X136557619Y-70634523D01*
X136557619Y-70539285D01*
X136605238Y-70444047D01*
X136700476Y-70396428D01*
X136938571Y-70396428D01*
X137033809Y-70348809D01*
X137414761Y-69777380D02*
X138033809Y-69777380D01*
X137700476Y-70158333D01*
X137843333Y-70158333D01*
X137938571Y-70205952D01*
X137986190Y-70253571D01*
X138033809Y-70348809D01*
X138033809Y-70586904D01*
X137986190Y-70682142D01*
X137938571Y-70729761D01*
X137843333Y-70777380D01*
X137557619Y-70777380D01*
X137462380Y-70729761D01*
X137414761Y-70682142D01*
X138414761Y-69872619D02*
X138462380Y-69825000D01*
X138557619Y-69777380D01*
X138795714Y-69777380D01*
X138890952Y-69825000D01*
X138938571Y-69872619D01*
X138986190Y-69967857D01*
X138986190Y-70063095D01*
X138938571Y-70205952D01*
X138367142Y-70777380D01*
X138986190Y-70777380D01*
X139557619Y-70205952D02*
X139462380Y-70158333D01*
X139414761Y-70110714D01*
X139367142Y-70015476D01*
X139367142Y-69967857D01*
X139414761Y-69872619D01*
X139462380Y-69825000D01*
X139557619Y-69777380D01*
X139748095Y-69777380D01*
X139843333Y-69825000D01*
X139890952Y-69872619D01*
X139938571Y-69967857D01*
X139938571Y-70015476D01*
X139890952Y-70110714D01*
X139843333Y-70158333D01*
X139748095Y-70205952D01*
X139557619Y-70205952D01*
X139462380Y-70253571D01*
X139414761Y-70301190D01*
X139367142Y-70396428D01*
X139367142Y-70586904D01*
X139414761Y-70682142D01*
X139462380Y-70729761D01*
X139557619Y-70777380D01*
X139748095Y-70777380D01*
X139843333Y-70729761D01*
X139890952Y-70682142D01*
X139938571Y-70586904D01*
X139938571Y-70396428D01*
X139890952Y-70301190D01*
X139843333Y-70253571D01*
X139748095Y-70205952D01*
X140367142Y-70777380D02*
X140367142Y-69777380D01*
X140748095Y-69777380D01*
X140843333Y-69825000D01*
X140890952Y-69872619D01*
X140938571Y-69967857D01*
X140938571Y-70110714D01*
X140890952Y-70205952D01*
X140843333Y-70253571D01*
X140748095Y-70301190D01*
X140367142Y-70301190D01*
X141367142Y-70396428D02*
X142129047Y-70396428D01*
X142605238Y-70777380D02*
X142605238Y-69777380D01*
X142986190Y-69777380D01*
X143081428Y-69825000D01*
X143129047Y-69872619D01*
X143176666Y-69967857D01*
X143176666Y-70110714D01*
X143129047Y-70205952D01*
X143081428Y-70253571D01*
X142986190Y-70301190D01*
X142605238Y-70301190D01*
%TO.C,D3*%
X132752380Y-93382857D02*
X132752380Y-93954285D01*
X132752380Y-93668571D02*
X131752380Y-93668571D01*
X131895238Y-93763809D01*
X131990476Y-93859047D01*
X132038095Y-93954285D01*
X132752380Y-92954285D02*
X131752380Y-92954285D01*
X132752380Y-92382857D01*
X131752380Y-92382857D01*
X132085714Y-91478095D02*
X132752380Y-91478095D01*
X131704761Y-91716190D02*
X132419047Y-91954285D01*
X132419047Y-91335238D01*
X131752380Y-90763809D02*
X131752380Y-90668571D01*
X131800000Y-90573333D01*
X131847619Y-90525714D01*
X131942857Y-90478095D01*
X132133333Y-90430476D01*
X132371428Y-90430476D01*
X132561904Y-90478095D01*
X132657142Y-90525714D01*
X132704761Y-90573333D01*
X132752380Y-90668571D01*
X132752380Y-90763809D01*
X132704761Y-90859047D01*
X132657142Y-90906666D01*
X132561904Y-90954285D01*
X132371428Y-91001904D01*
X132133333Y-91001904D01*
X131942857Y-90954285D01*
X131847619Y-90906666D01*
X131800000Y-90859047D01*
X131752380Y-90763809D01*
X131752380Y-89811428D02*
X131752380Y-89716190D01*
X131800000Y-89620952D01*
X131847619Y-89573333D01*
X131942857Y-89525714D01*
X132133333Y-89478095D01*
X132371428Y-89478095D01*
X132561904Y-89525714D01*
X132657142Y-89573333D01*
X132704761Y-89620952D01*
X132752380Y-89716190D01*
X132752380Y-89811428D01*
X132704761Y-89906666D01*
X132657142Y-89954285D01*
X132561904Y-90001904D01*
X132371428Y-90049523D01*
X132133333Y-90049523D01*
X131942857Y-90001904D01*
X131847619Y-89954285D01*
X131800000Y-89906666D01*
X131752380Y-89811428D01*
X131752380Y-89144761D02*
X131752380Y-88478095D01*
X132752380Y-88906666D01*
X130152380Y-94601904D02*
X129152380Y-94601904D01*
X130152380Y-94030476D02*
X129580952Y-94459047D01*
X129152380Y-94030476D02*
X129723809Y-94601904D01*
%TO.C,C5*%
X125380952Y-44952380D02*
X124809523Y-44952380D01*
X125095238Y-44952380D02*
X125095238Y-43952380D01*
X125000000Y-44095238D01*
X124904761Y-44190476D01*
X124809523Y-44238095D01*
X126000000Y-43952380D02*
X126095238Y-43952380D01*
X126190476Y-44000000D01*
X126238095Y-44047619D01*
X126285714Y-44142857D01*
X126333333Y-44333333D01*
X126333333Y-44571428D01*
X126285714Y-44761904D01*
X126238095Y-44857142D01*
X126190476Y-44904761D01*
X126095238Y-44952380D01*
X126000000Y-44952380D01*
X125904761Y-44904761D01*
X125857142Y-44857142D01*
X125809523Y-44761904D01*
X125761904Y-44571428D01*
X125761904Y-44333333D01*
X125809523Y-44142857D01*
X125857142Y-44047619D01*
X125904761Y-44000000D01*
X126000000Y-43952380D01*
X126952380Y-43952380D02*
X127047619Y-43952380D01*
X127142857Y-44000000D01*
X127190476Y-44047619D01*
X127238095Y-44142857D01*
X127285714Y-44333333D01*
X127285714Y-44571428D01*
X127238095Y-44761904D01*
X127190476Y-44857142D01*
X127142857Y-44904761D01*
X127047619Y-44952380D01*
X126952380Y-44952380D01*
X126857142Y-44904761D01*
X126809523Y-44857142D01*
X126761904Y-44761904D01*
X126714285Y-44571428D01*
X126714285Y-44333333D01*
X126761904Y-44142857D01*
X126809523Y-44047619D01*
X126857142Y-44000000D01*
X126952380Y-43952380D01*
X127714285Y-44285714D02*
X127714285Y-44952380D01*
X127714285Y-44380952D02*
X127761904Y-44333333D01*
X127857142Y-44285714D01*
X128000000Y-44285714D01*
X128095238Y-44333333D01*
X128142857Y-44428571D01*
X128142857Y-44952380D01*
%TO.C,J10*%
X101976380Y-93657333D02*
X100976380Y-93657333D01*
X100976380Y-93419238D01*
X101024000Y-93276380D01*
X101119238Y-93181142D01*
X101214476Y-93133523D01*
X101404952Y-93085904D01*
X101547809Y-93085904D01*
X101738285Y-93133523D01*
X101833523Y-93181142D01*
X101928761Y-93276380D01*
X101976380Y-93419238D01*
X101976380Y-93657333D01*
X101976380Y-92514476D02*
X101928761Y-92609714D01*
X101881142Y-92657333D01*
X101785904Y-92704952D01*
X101500190Y-92704952D01*
X101404952Y-92657333D01*
X101357333Y-92609714D01*
X101309714Y-92514476D01*
X101309714Y-92371619D01*
X101357333Y-92276380D01*
X101404952Y-92228761D01*
X101500190Y-92181142D01*
X101785904Y-92181142D01*
X101881142Y-92228761D01*
X101928761Y-92276380D01*
X101976380Y-92371619D01*
X101976380Y-92514476D01*
X101309714Y-91847809D02*
X101976380Y-91657333D01*
X101500190Y-91466857D01*
X101976380Y-91276380D01*
X101309714Y-91085904D01*
X101309714Y-90704952D02*
X101976380Y-90704952D01*
X101404952Y-90704952D02*
X101357333Y-90657333D01*
X101309714Y-90562095D01*
X101309714Y-90419238D01*
X101357333Y-90324000D01*
X101452571Y-90276380D01*
X101976380Y-90276380D01*
X102071619Y-90038285D02*
X102071619Y-89276380D01*
X101976380Y-89038285D02*
X100976380Y-89038285D01*
X101976380Y-88562095D02*
X100976380Y-88562095D01*
X101976380Y-87990666D01*
X100976380Y-87990666D01*
%TO.C,D4*%
X143124380Y-93474857D02*
X143124380Y-94046285D01*
X143124380Y-93760571D02*
X142124380Y-93760571D01*
X142267238Y-93855809D01*
X142362476Y-93951047D01*
X142410095Y-94046285D01*
X143124380Y-93046285D02*
X142124380Y-93046285D01*
X143124380Y-92474857D01*
X142124380Y-92474857D01*
X142457714Y-91570095D02*
X143124380Y-91570095D01*
X142076761Y-91808190D02*
X142791047Y-92046285D01*
X142791047Y-91427238D01*
X142124380Y-90855809D02*
X142124380Y-90760571D01*
X142172000Y-90665333D01*
X142219619Y-90617714D01*
X142314857Y-90570095D01*
X142505333Y-90522476D01*
X142743428Y-90522476D01*
X142933904Y-90570095D01*
X143029142Y-90617714D01*
X143076761Y-90665333D01*
X143124380Y-90760571D01*
X143124380Y-90855809D01*
X143076761Y-90951047D01*
X143029142Y-90998666D01*
X142933904Y-91046285D01*
X142743428Y-91093904D01*
X142505333Y-91093904D01*
X142314857Y-91046285D01*
X142219619Y-90998666D01*
X142172000Y-90951047D01*
X142124380Y-90855809D01*
X142124380Y-89903428D02*
X142124380Y-89808190D01*
X142172000Y-89712952D01*
X142219619Y-89665333D01*
X142314857Y-89617714D01*
X142505333Y-89570095D01*
X142743428Y-89570095D01*
X142933904Y-89617714D01*
X143029142Y-89665333D01*
X143076761Y-89712952D01*
X143124380Y-89808190D01*
X143124380Y-89903428D01*
X143076761Y-89998666D01*
X143029142Y-90046285D01*
X142933904Y-90093904D01*
X142743428Y-90141523D01*
X142505333Y-90141523D01*
X142314857Y-90093904D01*
X142219619Y-90046285D01*
X142172000Y-89998666D01*
X142124380Y-89903428D01*
X142124380Y-89236761D02*
X142124380Y-88570095D01*
X143124380Y-88998666D01*
X140652380Y-94601904D02*
X139652380Y-94601904D01*
X140652380Y-94030476D02*
X140080952Y-94459047D01*
X139652380Y-94030476D02*
X140223809Y-94601904D01*
%TO.C,U2*%
X149966761Y-56478380D02*
X149490571Y-56478380D01*
X149490571Y-55478380D01*
X150204857Y-55478380D02*
X150871523Y-55478380D01*
X150442952Y-56478380D01*
X151395333Y-55906952D02*
X151300095Y-55859333D01*
X151252476Y-55811714D01*
X151204857Y-55716476D01*
X151204857Y-55668857D01*
X151252476Y-55573619D01*
X151300095Y-55526000D01*
X151395333Y-55478380D01*
X151585809Y-55478380D01*
X151681047Y-55526000D01*
X151728666Y-55573619D01*
X151776285Y-55668857D01*
X151776285Y-55716476D01*
X151728666Y-55811714D01*
X151681047Y-55859333D01*
X151585809Y-55906952D01*
X151395333Y-55906952D01*
X151300095Y-55954571D01*
X151252476Y-56002190D01*
X151204857Y-56097428D01*
X151204857Y-56287904D01*
X151252476Y-56383142D01*
X151300095Y-56430761D01*
X151395333Y-56478380D01*
X151585809Y-56478380D01*
X151681047Y-56430761D01*
X151728666Y-56383142D01*
X151776285Y-56287904D01*
X151776285Y-56097428D01*
X151728666Y-56002190D01*
X151681047Y-55954571D01*
X151585809Y-55906952D01*
X152395333Y-55478380D02*
X152490571Y-55478380D01*
X152585809Y-55526000D01*
X152633428Y-55573619D01*
X152681047Y-55668857D01*
X152728666Y-55859333D01*
X152728666Y-56097428D01*
X152681047Y-56287904D01*
X152633428Y-56383142D01*
X152585809Y-56430761D01*
X152490571Y-56478380D01*
X152395333Y-56478380D01*
X152300095Y-56430761D01*
X152252476Y-56383142D01*
X152204857Y-56287904D01*
X152157238Y-56097428D01*
X152157238Y-55859333D01*
X152204857Y-55668857D01*
X152252476Y-55573619D01*
X152300095Y-55526000D01*
X152395333Y-55478380D01*
X153633428Y-55478380D02*
X153157238Y-55478380D01*
X153109619Y-55954571D01*
X153157238Y-55906952D01*
X153252476Y-55859333D01*
X153490571Y-55859333D01*
X153585809Y-55906952D01*
X153633428Y-55954571D01*
X153681047Y-56049809D01*
X153681047Y-56287904D01*
X153633428Y-56383142D01*
X153585809Y-56430761D01*
X153490571Y-56478380D01*
X153252476Y-56478380D01*
X153157238Y-56430761D01*
X153109619Y-56383142D01*
%TO.C,R2*%
X114718571Y-38723380D02*
X114147142Y-38723380D01*
X114432857Y-38723380D02*
X114432857Y-37723380D01*
X114337619Y-37866238D01*
X114242380Y-37961476D01*
X114147142Y-38009095D01*
X115670952Y-38723380D02*
X115099523Y-38723380D01*
X115385238Y-38723380D02*
X115385238Y-37723380D01*
X115290000Y-37866238D01*
X115194761Y-37961476D01*
X115099523Y-38009095D01*
X116290000Y-37723380D02*
X116385238Y-37723380D01*
X116480476Y-37771000D01*
X116528095Y-37818619D01*
X116575714Y-37913857D01*
X116623333Y-38104333D01*
X116623333Y-38342428D01*
X116575714Y-38532904D01*
X116528095Y-38628142D01*
X116480476Y-38675761D01*
X116385238Y-38723380D01*
X116290000Y-38723380D01*
X116194761Y-38675761D01*
X116147142Y-38628142D01*
X116099523Y-38532904D01*
X116051904Y-38342428D01*
X116051904Y-38104333D01*
X116099523Y-37913857D01*
X116147142Y-37818619D01*
X116194761Y-37771000D01*
X116290000Y-37723380D01*
X117051904Y-38723380D02*
X117051904Y-37723380D01*
X117147142Y-38342428D02*
X117432857Y-38723380D01*
X117432857Y-38056714D02*
X117051904Y-38437666D01*
%TO.C,R24*%
X112680952Y-88452380D02*
X112109523Y-88452380D01*
X112395238Y-88452380D02*
X112395238Y-87452380D01*
X112300000Y-87595238D01*
X112204761Y-87690476D01*
X112109523Y-87738095D01*
X113109523Y-88452380D02*
X113109523Y-87452380D01*
X113204761Y-88071428D02*
X113490476Y-88452380D01*
X113490476Y-87785714D02*
X113109523Y-88166666D01*
%TO.C,R16*%
X111628571Y-60006380D02*
X111057142Y-60006380D01*
X111342857Y-60006380D02*
X111342857Y-59006380D01*
X111247619Y-59149238D01*
X111152380Y-59244476D01*
X111057142Y-59292095D01*
X112580952Y-60006380D02*
X112009523Y-60006380D01*
X112295238Y-60006380D02*
X112295238Y-59006380D01*
X112200000Y-59149238D01*
X112104761Y-59244476D01*
X112009523Y-59292095D01*
X113200000Y-59006380D02*
X113295238Y-59006380D01*
X113390476Y-59054000D01*
X113438095Y-59101619D01*
X113485714Y-59196857D01*
X113533333Y-59387333D01*
X113533333Y-59625428D01*
X113485714Y-59815904D01*
X113438095Y-59911142D01*
X113390476Y-59958761D01*
X113295238Y-60006380D01*
X113200000Y-60006380D01*
X113104761Y-59958761D01*
X113057142Y-59911142D01*
X113009523Y-59815904D01*
X112961904Y-59625428D01*
X112961904Y-59387333D01*
X113009523Y-59196857D01*
X113057142Y-59101619D01*
X113104761Y-59054000D01*
X113200000Y-59006380D01*
X113961904Y-60006380D02*
X113961904Y-59006380D01*
X114057142Y-59625428D02*
X114342857Y-60006380D01*
X114342857Y-59339714D02*
X113961904Y-59720666D01*
%TO.C,J16*%
X132000000Y-97261904D02*
X131952380Y-97357142D01*
X131952380Y-97500000D01*
X132000000Y-97642857D01*
X132095238Y-97738095D01*
X132190476Y-97785714D01*
X132380952Y-97833333D01*
X132523809Y-97833333D01*
X132714285Y-97785714D01*
X132809523Y-97738095D01*
X132904761Y-97642857D01*
X132952380Y-97500000D01*
X132952380Y-97404761D01*
X132904761Y-97261904D01*
X132857142Y-97214285D01*
X132523809Y-97214285D01*
X132523809Y-97404761D01*
X132952380Y-96785714D02*
X131952380Y-96785714D01*
X132952380Y-96214285D01*
X131952380Y-96214285D01*
X132952380Y-95738095D02*
X131952380Y-95738095D01*
X131952380Y-95500000D01*
X132000000Y-95357142D01*
X132095238Y-95261904D01*
X132190476Y-95214285D01*
X132380952Y-95166666D01*
X132523809Y-95166666D01*
X132714285Y-95214285D01*
X132809523Y-95261904D01*
X132904761Y-95357142D01*
X132952380Y-95500000D01*
X132952380Y-95738095D01*
%TO.C,R4*%
X114464571Y-56830880D02*
X113893142Y-56830880D01*
X114178857Y-56830880D02*
X114178857Y-55830880D01*
X114083619Y-55973738D01*
X113988380Y-56068976D01*
X113893142Y-56116595D01*
X115416952Y-56830880D02*
X114845523Y-56830880D01*
X115131238Y-56830880D02*
X115131238Y-55830880D01*
X115036000Y-55973738D01*
X114940761Y-56068976D01*
X114845523Y-56116595D01*
X116036000Y-55830880D02*
X116131238Y-55830880D01*
X116226476Y-55878500D01*
X116274095Y-55926119D01*
X116321714Y-56021357D01*
X116369333Y-56211833D01*
X116369333Y-56449928D01*
X116321714Y-56640404D01*
X116274095Y-56735642D01*
X116226476Y-56783261D01*
X116131238Y-56830880D01*
X116036000Y-56830880D01*
X115940761Y-56783261D01*
X115893142Y-56735642D01*
X115845523Y-56640404D01*
X115797904Y-56449928D01*
X115797904Y-56211833D01*
X115845523Y-56021357D01*
X115893142Y-55926119D01*
X115940761Y-55878500D01*
X116036000Y-55830880D01*
X116797904Y-56830880D02*
X116797904Y-55830880D01*
X116893142Y-56449928D02*
X117178857Y-56830880D01*
X117178857Y-56164214D02*
X116797904Y-56545166D01*
%TO.C,C1*%
X129265714Y-49223619D02*
X129313333Y-49176000D01*
X129408571Y-49128380D01*
X129646666Y-49128380D01*
X129741904Y-49176000D01*
X129789523Y-49223619D01*
X129837142Y-49318857D01*
X129837142Y-49414095D01*
X129789523Y-49556952D01*
X129218095Y-50128380D01*
X129837142Y-50128380D01*
X130218095Y-49223619D02*
X130265714Y-49176000D01*
X130360952Y-49128380D01*
X130599047Y-49128380D01*
X130694285Y-49176000D01*
X130741904Y-49223619D01*
X130789523Y-49318857D01*
X130789523Y-49414095D01*
X130741904Y-49556952D01*
X130170476Y-50128380D01*
X130789523Y-50128380D01*
X131218095Y-49461714D02*
X131218095Y-50461714D01*
X131218095Y-49509333D02*
X131313333Y-49461714D01*
X131503809Y-49461714D01*
X131599047Y-49509333D01*
X131646666Y-49556952D01*
X131694285Y-49652190D01*
X131694285Y-49937904D01*
X131646666Y-50033142D01*
X131599047Y-50080761D01*
X131503809Y-50128380D01*
X131313333Y-50128380D01*
X131218095Y-50080761D01*
%TO.C,Q5*%
X131078571Y-82497142D02*
X131126190Y-82354285D01*
X131173809Y-82306666D01*
X131269047Y-82259047D01*
X131411904Y-82259047D01*
X131507142Y-82306666D01*
X131554761Y-82354285D01*
X131602380Y-82449523D01*
X131602380Y-82830476D01*
X130602380Y-82830476D01*
X130602380Y-82497142D01*
X130650000Y-82401904D01*
X130697619Y-82354285D01*
X130792857Y-82306666D01*
X130888095Y-82306666D01*
X130983333Y-82354285D01*
X131030952Y-82401904D01*
X131078571Y-82497142D01*
X131078571Y-82830476D01*
X131507142Y-81259047D02*
X131554761Y-81306666D01*
X131602380Y-81449523D01*
X131602380Y-81544761D01*
X131554761Y-81687619D01*
X131459523Y-81782857D01*
X131364285Y-81830476D01*
X131173809Y-81878095D01*
X131030952Y-81878095D01*
X130840476Y-81830476D01*
X130745238Y-81782857D01*
X130650000Y-81687619D01*
X130602380Y-81544761D01*
X130602380Y-81449523D01*
X130650000Y-81306666D01*
X130697619Y-81259047D01*
X130602380Y-80354285D02*
X130602380Y-80830476D01*
X131078571Y-80878095D01*
X131030952Y-80830476D01*
X130983333Y-80735238D01*
X130983333Y-80497142D01*
X131030952Y-80401904D01*
X131078571Y-80354285D01*
X131173809Y-80306666D01*
X131411904Y-80306666D01*
X131507142Y-80354285D01*
X131554761Y-80401904D01*
X131602380Y-80497142D01*
X131602380Y-80735238D01*
X131554761Y-80830476D01*
X131507142Y-80878095D01*
X130602380Y-79401904D02*
X130602380Y-79878095D01*
X131078571Y-79925714D01*
X131030952Y-79878095D01*
X130983333Y-79782857D01*
X130983333Y-79544761D01*
X131030952Y-79449523D01*
X131078571Y-79401904D01*
X131173809Y-79354285D01*
X131411904Y-79354285D01*
X131507142Y-79401904D01*
X131554761Y-79449523D01*
X131602380Y-79544761D01*
X131602380Y-79782857D01*
X131554761Y-79878095D01*
X131507142Y-79925714D01*
X131030952Y-78782857D02*
X130983333Y-78878095D01*
X130935714Y-78925714D01*
X130840476Y-78973333D01*
X130792857Y-78973333D01*
X130697619Y-78925714D01*
X130650000Y-78878095D01*
X130602380Y-78782857D01*
X130602380Y-78592380D01*
X130650000Y-78497142D01*
X130697619Y-78449523D01*
X130792857Y-78401904D01*
X130840476Y-78401904D01*
X130935714Y-78449523D01*
X130983333Y-78497142D01*
X131030952Y-78592380D01*
X131030952Y-78782857D01*
X131078571Y-78878095D01*
X131126190Y-78925714D01*
X131221428Y-78973333D01*
X131411904Y-78973333D01*
X131507142Y-78925714D01*
X131554761Y-78878095D01*
X131602380Y-78782857D01*
X131602380Y-78592380D01*
X131554761Y-78497142D01*
X131507142Y-78449523D01*
X131411904Y-78401904D01*
X131221428Y-78401904D01*
X131126190Y-78449523D01*
X131078571Y-78497142D01*
X131030952Y-78592380D01*
%TO.C,Q9*%
X116242857Y-87078571D02*
X116385714Y-87126190D01*
X116433333Y-87173809D01*
X116480952Y-87269047D01*
X116480952Y-87411904D01*
X116433333Y-87507142D01*
X116385714Y-87554761D01*
X116290476Y-87602380D01*
X115909523Y-87602380D01*
X115909523Y-86602380D01*
X116242857Y-86602380D01*
X116338095Y-86650000D01*
X116385714Y-86697619D01*
X116433333Y-86792857D01*
X116433333Y-86888095D01*
X116385714Y-86983333D01*
X116338095Y-87030952D01*
X116242857Y-87078571D01*
X115909523Y-87078571D01*
X117480952Y-87507142D02*
X117433333Y-87554761D01*
X117290476Y-87602380D01*
X117195238Y-87602380D01*
X117052380Y-87554761D01*
X116957142Y-87459523D01*
X116909523Y-87364285D01*
X116861904Y-87173809D01*
X116861904Y-87030952D01*
X116909523Y-86840476D01*
X116957142Y-86745238D01*
X117052380Y-86650000D01*
X117195238Y-86602380D01*
X117290476Y-86602380D01*
X117433333Y-86650000D01*
X117480952Y-86697619D01*
X118385714Y-86602380D02*
X117909523Y-86602380D01*
X117861904Y-87078571D01*
X117909523Y-87030952D01*
X118004761Y-86983333D01*
X118242857Y-86983333D01*
X118338095Y-87030952D01*
X118385714Y-87078571D01*
X118433333Y-87173809D01*
X118433333Y-87411904D01*
X118385714Y-87507142D01*
X118338095Y-87554761D01*
X118242857Y-87602380D01*
X118004761Y-87602380D01*
X117909523Y-87554761D01*
X117861904Y-87507142D01*
X119338095Y-86602380D02*
X118861904Y-86602380D01*
X118814285Y-87078571D01*
X118861904Y-87030952D01*
X118957142Y-86983333D01*
X119195238Y-86983333D01*
X119290476Y-87030952D01*
X119338095Y-87078571D01*
X119385714Y-87173809D01*
X119385714Y-87411904D01*
X119338095Y-87507142D01*
X119290476Y-87554761D01*
X119195238Y-87602380D01*
X118957142Y-87602380D01*
X118861904Y-87554761D01*
X118814285Y-87507142D01*
X119957142Y-87030952D02*
X119861904Y-86983333D01*
X119814285Y-86935714D01*
X119766666Y-86840476D01*
X119766666Y-86792857D01*
X119814285Y-86697619D01*
X119861904Y-86650000D01*
X119957142Y-86602380D01*
X120147619Y-86602380D01*
X120242857Y-86650000D01*
X120290476Y-86697619D01*
X120338095Y-86792857D01*
X120338095Y-86840476D01*
X120290476Y-86935714D01*
X120242857Y-86983333D01*
X120147619Y-87030952D01*
X119957142Y-87030952D01*
X119861904Y-87078571D01*
X119814285Y-87126190D01*
X119766666Y-87221428D01*
X119766666Y-87411904D01*
X119814285Y-87507142D01*
X119861904Y-87554761D01*
X119957142Y-87602380D01*
X120147619Y-87602380D01*
X120242857Y-87554761D01*
X120290476Y-87507142D01*
X120338095Y-87411904D01*
X120338095Y-87221428D01*
X120290476Y-87126190D01*
X120242857Y-87078571D01*
X120147619Y-87030952D01*
%TO.C,J2*%
X150570000Y-76952380D02*
X149998571Y-76952380D01*
X150284285Y-76952380D02*
X150284285Y-75952380D01*
X150189047Y-76095238D01*
X150093809Y-76190476D01*
X149998571Y-76238095D01*
X150950952Y-76047619D02*
X150998571Y-76000000D01*
X151093809Y-75952380D01*
X151331904Y-75952380D01*
X151427142Y-76000000D01*
X151474761Y-76047619D01*
X151522380Y-76142857D01*
X151522380Y-76238095D01*
X151474761Y-76380952D01*
X150903333Y-76952380D01*
X151522380Y-76952380D01*
X151808095Y-75952380D02*
X152141428Y-76952380D01*
X152474761Y-75952380D01*
X153236666Y-76952380D02*
X153236666Y-75952380D01*
X153236666Y-76904761D02*
X153141428Y-76952380D01*
X152950952Y-76952380D01*
X152855714Y-76904761D01*
X152808095Y-76857142D01*
X152760476Y-76761904D01*
X152760476Y-76476190D01*
X152808095Y-76380952D01*
X152855714Y-76333333D01*
X152950952Y-76285714D01*
X153141428Y-76285714D01*
X153236666Y-76333333D01*
X154141428Y-76904761D02*
X154046190Y-76952380D01*
X153855714Y-76952380D01*
X153760476Y-76904761D01*
X153712857Y-76857142D01*
X153665238Y-76761904D01*
X153665238Y-76476190D01*
X153712857Y-76380952D01*
X153760476Y-76333333D01*
X153855714Y-76285714D01*
X154046190Y-76285714D01*
X154141428Y-76333333D01*
%TO.C,J4*%
X150500000Y-89452380D02*
X149928571Y-89452380D01*
X150214285Y-89452380D02*
X150214285Y-88452380D01*
X150119047Y-88595238D01*
X150023809Y-88690476D01*
X149928571Y-88738095D01*
X150880952Y-88547619D02*
X150928571Y-88500000D01*
X151023809Y-88452380D01*
X151261904Y-88452380D01*
X151357142Y-88500000D01*
X151404761Y-88547619D01*
X151452380Y-88642857D01*
X151452380Y-88738095D01*
X151404761Y-88880952D01*
X150833333Y-89452380D01*
X151452380Y-89452380D01*
X151738095Y-88452380D02*
X152071428Y-89452380D01*
X152404761Y-88452380D01*
X153166666Y-89452380D02*
X153166666Y-88452380D01*
X153166666Y-89404761D02*
X153071428Y-89452380D01*
X152880952Y-89452380D01*
X152785714Y-89404761D01*
X152738095Y-89357142D01*
X152690476Y-89261904D01*
X152690476Y-88976190D01*
X152738095Y-88880952D01*
X152785714Y-88833333D01*
X152880952Y-88785714D01*
X153071428Y-88785714D01*
X153166666Y-88833333D01*
X154071428Y-89404761D02*
X153976190Y-89452380D01*
X153785714Y-89452380D01*
X153690476Y-89404761D01*
X153642857Y-89357142D01*
X153595238Y-89261904D01*
X153595238Y-88976190D01*
X153642857Y-88880952D01*
X153690476Y-88833333D01*
X153785714Y-88785714D01*
X153976190Y-88785714D01*
X154071428Y-88833333D01*
%TO.C,J11*%
X100976380Y-83814952D02*
X101785904Y-83814952D01*
X101881142Y-83767333D01*
X101928761Y-83719714D01*
X101976380Y-83624476D01*
X101976380Y-83434000D01*
X101928761Y-83338761D01*
X101881142Y-83291142D01*
X101785904Y-83243523D01*
X100976380Y-83243523D01*
X101309714Y-82767333D02*
X102309714Y-82767333D01*
X101357333Y-82767333D02*
X101309714Y-82672095D01*
X101309714Y-82481619D01*
X101357333Y-82386380D01*
X101404952Y-82338761D01*
X101500190Y-82291142D01*
X101785904Y-82291142D01*
X101881142Y-82338761D01*
X101928761Y-82386380D01*
X101976380Y-82481619D01*
X101976380Y-82672095D01*
X101928761Y-82767333D01*
X102071619Y-82100666D02*
X102071619Y-81338761D01*
X101976380Y-81100666D02*
X100976380Y-81100666D01*
X101976380Y-80624476D02*
X100976380Y-80624476D01*
X101976380Y-80053047D01*
X100976380Y-80053047D01*
%TO.C,R15*%
X134582380Y-87036428D02*
X134582380Y-87607857D01*
X134582380Y-87322142D02*
X133582380Y-87322142D01*
X133725238Y-87417380D01*
X133820476Y-87512619D01*
X133868095Y-87607857D01*
X134582380Y-86084047D02*
X134582380Y-86655476D01*
X134582380Y-86369761D02*
X133582380Y-86369761D01*
X133725238Y-86465000D01*
X133820476Y-86560238D01*
X133868095Y-86655476D01*
X133582380Y-85465000D02*
X133582380Y-85369761D01*
X133630000Y-85274523D01*
X133677619Y-85226904D01*
X133772857Y-85179285D01*
X133963333Y-85131666D01*
X134201428Y-85131666D01*
X134391904Y-85179285D01*
X134487142Y-85226904D01*
X134534761Y-85274523D01*
X134582380Y-85369761D01*
X134582380Y-85465000D01*
X134534761Y-85560238D01*
X134487142Y-85607857D01*
X134391904Y-85655476D01*
X134201428Y-85703095D01*
X133963333Y-85703095D01*
X133772857Y-85655476D01*
X133677619Y-85607857D01*
X133630000Y-85560238D01*
X133582380Y-85465000D01*
X134582380Y-84703095D02*
X133582380Y-84703095D01*
X134201428Y-84607857D02*
X134582380Y-84322142D01*
X133915714Y-84322142D02*
X134296666Y-84703095D01*
%TO.C,C6*%
X145870952Y-45556380D02*
X145299523Y-45556380D01*
X145585238Y-45556380D02*
X145585238Y-44556380D01*
X145490000Y-44699238D01*
X145394761Y-44794476D01*
X145299523Y-44842095D01*
X146490000Y-44556380D02*
X146585238Y-44556380D01*
X146680476Y-44604000D01*
X146728095Y-44651619D01*
X146775714Y-44746857D01*
X146823333Y-44937333D01*
X146823333Y-45175428D01*
X146775714Y-45365904D01*
X146728095Y-45461142D01*
X146680476Y-45508761D01*
X146585238Y-45556380D01*
X146490000Y-45556380D01*
X146394761Y-45508761D01*
X146347142Y-45461142D01*
X146299523Y-45365904D01*
X146251904Y-45175428D01*
X146251904Y-44937333D01*
X146299523Y-44746857D01*
X146347142Y-44651619D01*
X146394761Y-44604000D01*
X146490000Y-44556380D01*
X147442380Y-44556380D02*
X147537619Y-44556380D01*
X147632857Y-44604000D01*
X147680476Y-44651619D01*
X147728095Y-44746857D01*
X147775714Y-44937333D01*
X147775714Y-45175428D01*
X147728095Y-45365904D01*
X147680476Y-45461142D01*
X147632857Y-45508761D01*
X147537619Y-45556380D01*
X147442380Y-45556380D01*
X147347142Y-45508761D01*
X147299523Y-45461142D01*
X147251904Y-45365904D01*
X147204285Y-45175428D01*
X147204285Y-44937333D01*
X147251904Y-44746857D01*
X147299523Y-44651619D01*
X147347142Y-44604000D01*
X147442380Y-44556380D01*
X148204285Y-44889714D02*
X148204285Y-45556380D01*
X148204285Y-44984952D02*
X148251904Y-44937333D01*
X148347142Y-44889714D01*
X148490000Y-44889714D01*
X148585238Y-44937333D01*
X148632857Y-45032571D01*
X148632857Y-45556380D01*
%TO.C,J13*%
X136404761Y-99452380D02*
X136404761Y-98452380D01*
X136642857Y-98452380D01*
X136785714Y-98500000D01*
X136880952Y-98595238D01*
X136928571Y-98690476D01*
X136976190Y-98880952D01*
X136976190Y-99023809D01*
X136928571Y-99214285D01*
X136880952Y-99309523D01*
X136785714Y-99404761D01*
X136642857Y-99452380D01*
X136404761Y-99452380D01*
X137547619Y-99452380D02*
X137452380Y-99404761D01*
X137404761Y-99357142D01*
X137357142Y-99261904D01*
X137357142Y-98976190D01*
X137404761Y-98880952D01*
X137452380Y-98833333D01*
X137547619Y-98785714D01*
X137690476Y-98785714D01*
X137785714Y-98833333D01*
X137833333Y-98880952D01*
X137880952Y-98976190D01*
X137880952Y-99261904D01*
X137833333Y-99357142D01*
X137785714Y-99404761D01*
X137690476Y-99452380D01*
X137547619Y-99452380D01*
X138214285Y-98785714D02*
X138404761Y-99452380D01*
X138595238Y-98976190D01*
X138785714Y-99452380D01*
X138976190Y-98785714D01*
X139357142Y-98785714D02*
X139357142Y-99452380D01*
X139357142Y-98880952D02*
X139404761Y-98833333D01*
X139500000Y-98785714D01*
X139642857Y-98785714D01*
X139738095Y-98833333D01*
X139785714Y-98928571D01*
X139785714Y-99452380D01*
X140023809Y-99547619D02*
X140785714Y-99547619D01*
X141595238Y-99452380D02*
X141261904Y-98976190D01*
X141023809Y-99452380D02*
X141023809Y-98452380D01*
X141404761Y-98452380D01*
X141500000Y-98500000D01*
X141547619Y-98547619D01*
X141595238Y-98642857D01*
X141595238Y-98785714D01*
X141547619Y-98880952D01*
X141500000Y-98928571D01*
X141404761Y-98976190D01*
X141023809Y-98976190D01*
X142023809Y-98928571D02*
X142357142Y-98928571D01*
X142500000Y-99452380D02*
X142023809Y-99452380D01*
X142023809Y-98452380D01*
X142500000Y-98452380D01*
X142928571Y-99452380D02*
X142928571Y-98452380D01*
X143261904Y-99166666D01*
X143595238Y-98452380D01*
X143595238Y-99452380D01*
%TO.C,R25*%
X140806761Y-72226380D02*
X140235333Y-72226380D01*
X140521047Y-72226380D02*
X140521047Y-71226380D01*
X140425809Y-71369238D01*
X140330571Y-71464476D01*
X140235333Y-71512095D01*
X141425809Y-71226380D02*
X141521047Y-71226380D01*
X141616285Y-71274000D01*
X141663904Y-71321619D01*
X141711523Y-71416857D01*
X141759142Y-71607333D01*
X141759142Y-71845428D01*
X141711523Y-72035904D01*
X141663904Y-72131142D01*
X141616285Y-72178761D01*
X141521047Y-72226380D01*
X141425809Y-72226380D01*
X141330571Y-72178761D01*
X141282952Y-72131142D01*
X141235333Y-72035904D01*
X141187714Y-71845428D01*
X141187714Y-71607333D01*
X141235333Y-71416857D01*
X141282952Y-71321619D01*
X141330571Y-71274000D01*
X141425809Y-71226380D01*
X142187714Y-72226380D02*
X142187714Y-71226380D01*
X142282952Y-71845428D02*
X142568666Y-72226380D01*
X142568666Y-71559714D02*
X142187714Y-71940666D01*
%TO.C,J18*%
X144704095Y-81434000D02*
X144608857Y-81386380D01*
X144466000Y-81386380D01*
X144323142Y-81434000D01*
X144227904Y-81529238D01*
X144180285Y-81624476D01*
X144132666Y-81814952D01*
X144132666Y-81957809D01*
X144180285Y-82148285D01*
X144227904Y-82243523D01*
X144323142Y-82338761D01*
X144466000Y-82386380D01*
X144561238Y-82386380D01*
X144704095Y-82338761D01*
X144751714Y-82291142D01*
X144751714Y-81957809D01*
X144561238Y-81957809D01*
X145180285Y-82386380D02*
X145180285Y-81386380D01*
X145751714Y-82386380D01*
X145751714Y-81386380D01*
X146227904Y-82386380D02*
X146227904Y-81386380D01*
X146466000Y-81386380D01*
X146608857Y-81434000D01*
X146704095Y-81529238D01*
X146751714Y-81624476D01*
X146799333Y-81814952D01*
X146799333Y-81957809D01*
X146751714Y-82148285D01*
X146704095Y-82243523D01*
X146608857Y-82338761D01*
X146466000Y-82386380D01*
X146227904Y-82386380D01*
%TO.C,R13*%
X114465761Y-49110880D02*
X113894333Y-49110880D01*
X114180047Y-49110880D02*
X114180047Y-48110880D01*
X114084809Y-48253738D01*
X113989571Y-48348976D01*
X113894333Y-48396595D01*
X115084809Y-48110880D02*
X115180047Y-48110880D01*
X115275285Y-48158500D01*
X115322904Y-48206119D01*
X115370523Y-48301357D01*
X115418142Y-48491833D01*
X115418142Y-48729928D01*
X115370523Y-48920404D01*
X115322904Y-49015642D01*
X115275285Y-49063261D01*
X115180047Y-49110880D01*
X115084809Y-49110880D01*
X114989571Y-49063261D01*
X114941952Y-49015642D01*
X114894333Y-48920404D01*
X114846714Y-48729928D01*
X114846714Y-48491833D01*
X114894333Y-48301357D01*
X114941952Y-48206119D01*
X114989571Y-48158500D01*
X115084809Y-48110880D01*
X115846714Y-49110880D02*
X115846714Y-48110880D01*
X115941952Y-48729928D02*
X116227666Y-49110880D01*
X116227666Y-48444214D02*
X115846714Y-48825166D01*
%TO.C,R9*%
X106779523Y-79535714D02*
X106779523Y-80202380D01*
X106541428Y-79154761D02*
X106303333Y-79869047D01*
X106922380Y-79869047D01*
X107303333Y-80202380D02*
X107303333Y-79202380D01*
X107398571Y-79821428D02*
X107684285Y-80202380D01*
X107684285Y-79535714D02*
X107303333Y-79916666D01*
X108017619Y-79202380D02*
X108684285Y-79202380D01*
X108255714Y-80202380D01*
%TO.C,Q3*%
X108128857Y-55857071D02*
X108271714Y-55904690D01*
X108319333Y-55952309D01*
X108366952Y-56047547D01*
X108366952Y-56190404D01*
X108319333Y-56285642D01*
X108271714Y-56333261D01*
X108176476Y-56380880D01*
X107795523Y-56380880D01*
X107795523Y-55380880D01*
X108128857Y-55380880D01*
X108224095Y-55428500D01*
X108271714Y-55476119D01*
X108319333Y-55571357D01*
X108319333Y-55666595D01*
X108271714Y-55761833D01*
X108224095Y-55809452D01*
X108128857Y-55857071D01*
X107795523Y-55857071D01*
X109366952Y-56285642D02*
X109319333Y-56333261D01*
X109176476Y-56380880D01*
X109081238Y-56380880D01*
X108938380Y-56333261D01*
X108843142Y-56238023D01*
X108795523Y-56142785D01*
X108747904Y-55952309D01*
X108747904Y-55809452D01*
X108795523Y-55618976D01*
X108843142Y-55523738D01*
X108938380Y-55428500D01*
X109081238Y-55380880D01*
X109176476Y-55380880D01*
X109319333Y-55428500D01*
X109366952Y-55476119D01*
X110271714Y-55380880D02*
X109795523Y-55380880D01*
X109747904Y-55857071D01*
X109795523Y-55809452D01*
X109890761Y-55761833D01*
X110128857Y-55761833D01*
X110224095Y-55809452D01*
X110271714Y-55857071D01*
X110319333Y-55952309D01*
X110319333Y-56190404D01*
X110271714Y-56285642D01*
X110224095Y-56333261D01*
X110128857Y-56380880D01*
X109890761Y-56380880D01*
X109795523Y-56333261D01*
X109747904Y-56285642D01*
X111176476Y-55714214D02*
X111176476Y-56380880D01*
X110938380Y-55333261D02*
X110700285Y-56047547D01*
X111319333Y-56047547D01*
X111605047Y-55380880D02*
X112271714Y-55380880D01*
X111843142Y-56380880D01*
%TO.C,R19*%
X114612952Y-78322380D02*
X114041523Y-78322380D01*
X114327238Y-78322380D02*
X114327238Y-77322380D01*
X114232000Y-77465238D01*
X114136761Y-77560476D01*
X114041523Y-77608095D01*
X115041523Y-78322380D02*
X115041523Y-77322380D01*
X115136761Y-77941428D02*
X115422476Y-78322380D01*
X115422476Y-77655714D02*
X115041523Y-78036666D01*
%TO.C,D2*%
X108525142Y-78576380D02*
X107953714Y-78576380D01*
X108239428Y-78576380D02*
X108239428Y-77576380D01*
X108144190Y-77719238D01*
X108048952Y-77814476D01*
X107953714Y-77862095D01*
X108953714Y-78576380D02*
X108953714Y-77576380D01*
X109525142Y-78576380D01*
X109525142Y-77576380D01*
X110429904Y-77909714D02*
X110429904Y-78576380D01*
X110191809Y-77528761D02*
X109953714Y-78243047D01*
X110572761Y-78243047D01*
X111144190Y-77576380D02*
X111239428Y-77576380D01*
X111334666Y-77624000D01*
X111382285Y-77671619D01*
X111429904Y-77766857D01*
X111477523Y-77957333D01*
X111477523Y-78195428D01*
X111429904Y-78385904D01*
X111382285Y-78481142D01*
X111334666Y-78528761D01*
X111239428Y-78576380D01*
X111144190Y-78576380D01*
X111048952Y-78528761D01*
X111001333Y-78481142D01*
X110953714Y-78385904D01*
X110906095Y-78195428D01*
X110906095Y-77957333D01*
X110953714Y-77766857D01*
X111001333Y-77671619D01*
X111048952Y-77624000D01*
X111144190Y-77576380D01*
X112096571Y-77576380D02*
X112191809Y-77576380D01*
X112287047Y-77624000D01*
X112334666Y-77671619D01*
X112382285Y-77766857D01*
X112429904Y-77957333D01*
X112429904Y-78195428D01*
X112382285Y-78385904D01*
X112334666Y-78481142D01*
X112287047Y-78528761D01*
X112191809Y-78576380D01*
X112096571Y-78576380D01*
X112001333Y-78528761D01*
X111953714Y-78481142D01*
X111906095Y-78385904D01*
X111858476Y-78195428D01*
X111858476Y-77957333D01*
X111906095Y-77766857D01*
X111953714Y-77671619D01*
X112001333Y-77624000D01*
X112096571Y-77576380D01*
X112763238Y-77576380D02*
X113429904Y-77576380D01*
X113001333Y-78576380D01*
X104034095Y-75982380D02*
X104034095Y-74982380D01*
X104605523Y-75982380D02*
X104176952Y-75410952D01*
X104605523Y-74982380D02*
X104034095Y-75553809D01*
%TO.C,R12*%
X114635261Y-40040380D02*
X114063833Y-40040380D01*
X114349547Y-40040380D02*
X114349547Y-39040380D01*
X114254309Y-39183238D01*
X114159071Y-39278476D01*
X114063833Y-39326095D01*
X115254309Y-39040380D02*
X115349547Y-39040380D01*
X115444785Y-39088000D01*
X115492404Y-39135619D01*
X115540023Y-39230857D01*
X115587642Y-39421333D01*
X115587642Y-39659428D01*
X115540023Y-39849904D01*
X115492404Y-39945142D01*
X115444785Y-39992761D01*
X115349547Y-40040380D01*
X115254309Y-40040380D01*
X115159071Y-39992761D01*
X115111452Y-39945142D01*
X115063833Y-39849904D01*
X115016214Y-39659428D01*
X115016214Y-39421333D01*
X115063833Y-39230857D01*
X115111452Y-39135619D01*
X115159071Y-39088000D01*
X115254309Y-39040380D01*
X116016214Y-40040380D02*
X116016214Y-39040380D01*
X116111452Y-39659428D02*
X116397166Y-40040380D01*
X116397166Y-39373714D02*
X116016214Y-39754666D01*
%TO.C,J1*%
X138988095Y-30202380D02*
X139321428Y-31202380D01*
X139654761Y-30202380D01*
X140416666Y-31154761D02*
X140321428Y-31202380D01*
X140130952Y-31202380D01*
X140035714Y-31154761D01*
X139988095Y-31107142D01*
X139940476Y-31011904D01*
X139940476Y-30726190D01*
X139988095Y-30630952D01*
X140035714Y-30583333D01*
X140130952Y-30535714D01*
X140321428Y-30535714D01*
X140416666Y-30583333D01*
X141273809Y-31154761D02*
X141178571Y-31202380D01*
X140988095Y-31202380D01*
X140892857Y-31154761D01*
X140845238Y-31107142D01*
X140797619Y-31011904D01*
X140797619Y-30726190D01*
X140845238Y-30630952D01*
X140892857Y-30583333D01*
X140988095Y-30535714D01*
X141178571Y-30535714D01*
X141273809Y-30583333D01*
X141464285Y-31297619D02*
X142226190Y-31297619D01*
X142464285Y-31202380D02*
X142464285Y-30535714D01*
X142464285Y-30202380D02*
X142416666Y-30250000D01*
X142464285Y-30297619D01*
X142511904Y-30250000D01*
X142464285Y-30202380D01*
X142464285Y-30297619D01*
X142940476Y-30535714D02*
X142940476Y-31202380D01*
X142940476Y-30630952D02*
X142988095Y-30583333D01*
X143083333Y-30535714D01*
X143226190Y-30535714D01*
X143321428Y-30583333D01*
X143369047Y-30678571D01*
X143369047Y-31202380D01*
%TO.C,D7*%
X105357142Y-88752380D02*
X104785714Y-88752380D01*
X105071428Y-88752380D02*
X105071428Y-87752380D01*
X104976190Y-87895238D01*
X104880952Y-87990476D01*
X104785714Y-88038095D01*
X105785714Y-88752380D02*
X105785714Y-87752380D01*
X106357142Y-88752380D01*
X106357142Y-87752380D01*
X107261904Y-88085714D02*
X107261904Y-88752380D01*
X107023809Y-87704761D02*
X106785714Y-88419047D01*
X107404761Y-88419047D01*
X107976190Y-87752380D02*
X108071428Y-87752380D01*
X108166666Y-87800000D01*
X108214285Y-87847619D01*
X108261904Y-87942857D01*
X108309523Y-88133333D01*
X108309523Y-88371428D01*
X108261904Y-88561904D01*
X108214285Y-88657142D01*
X108166666Y-88704761D01*
X108071428Y-88752380D01*
X107976190Y-88752380D01*
X107880952Y-88704761D01*
X107833333Y-88657142D01*
X107785714Y-88561904D01*
X107738095Y-88371428D01*
X107738095Y-88133333D01*
X107785714Y-87942857D01*
X107833333Y-87847619D01*
X107880952Y-87800000D01*
X107976190Y-87752380D01*
X108928571Y-87752380D02*
X109023809Y-87752380D01*
X109119047Y-87800000D01*
X109166666Y-87847619D01*
X109214285Y-87942857D01*
X109261904Y-88133333D01*
X109261904Y-88371428D01*
X109214285Y-88561904D01*
X109166666Y-88657142D01*
X109119047Y-88704761D01*
X109023809Y-88752380D01*
X108928571Y-88752380D01*
X108833333Y-88704761D01*
X108785714Y-88657142D01*
X108738095Y-88561904D01*
X108690476Y-88371428D01*
X108690476Y-88133333D01*
X108738095Y-87942857D01*
X108785714Y-87847619D01*
X108833333Y-87800000D01*
X108928571Y-87752380D01*
X109595238Y-87752380D02*
X110261904Y-87752380D01*
X109833333Y-88752380D01*
X104138095Y-86152380D02*
X104138095Y-85152380D01*
X104709523Y-86152380D02*
X104280952Y-85580952D01*
X104709523Y-85152380D02*
X104138095Y-85723809D01*
%TO.C,Q2*%
X108298357Y-46786571D02*
X108441214Y-46834190D01*
X108488833Y-46881809D01*
X108536452Y-46977047D01*
X108536452Y-47119904D01*
X108488833Y-47215142D01*
X108441214Y-47262761D01*
X108345976Y-47310380D01*
X107965023Y-47310380D01*
X107965023Y-46310380D01*
X108298357Y-46310380D01*
X108393595Y-46358000D01*
X108441214Y-46405619D01*
X108488833Y-46500857D01*
X108488833Y-46596095D01*
X108441214Y-46691333D01*
X108393595Y-46738952D01*
X108298357Y-46786571D01*
X107965023Y-46786571D01*
X109536452Y-47215142D02*
X109488833Y-47262761D01*
X109345976Y-47310380D01*
X109250738Y-47310380D01*
X109107880Y-47262761D01*
X109012642Y-47167523D01*
X108965023Y-47072285D01*
X108917404Y-46881809D01*
X108917404Y-46738952D01*
X108965023Y-46548476D01*
X109012642Y-46453238D01*
X109107880Y-46358000D01*
X109250738Y-46310380D01*
X109345976Y-46310380D01*
X109488833Y-46358000D01*
X109536452Y-46405619D01*
X110441214Y-46310380D02*
X109965023Y-46310380D01*
X109917404Y-46786571D01*
X109965023Y-46738952D01*
X110060261Y-46691333D01*
X110298357Y-46691333D01*
X110393595Y-46738952D01*
X110441214Y-46786571D01*
X110488833Y-46881809D01*
X110488833Y-47119904D01*
X110441214Y-47215142D01*
X110393595Y-47262761D01*
X110298357Y-47310380D01*
X110060261Y-47310380D01*
X109965023Y-47262761D01*
X109917404Y-47215142D01*
X111345976Y-46643714D02*
X111345976Y-47310380D01*
X111107880Y-46262761D02*
X110869785Y-46977047D01*
X111488833Y-46977047D01*
X111774547Y-46310380D02*
X112441214Y-46310380D01*
X112012642Y-47310380D01*
%TO.C,J5*%
X144023809Y-55962380D02*
X144023809Y-54962380D01*
X145071428Y-55867142D02*
X145023809Y-55914761D01*
X144880952Y-55962380D01*
X144785714Y-55962380D01*
X144642857Y-55914761D01*
X144547619Y-55819523D01*
X144500000Y-55724285D01*
X144452380Y-55533809D01*
X144452380Y-55390952D01*
X144500000Y-55200476D01*
X144547619Y-55105238D01*
X144642857Y-55010000D01*
X144785714Y-54962380D01*
X144880952Y-54962380D01*
X145023809Y-55010000D01*
X145071428Y-55057619D01*
X145452380Y-55914761D02*
X145595238Y-55962380D01*
X145833333Y-55962380D01*
X145928571Y-55914761D01*
X145976190Y-55867142D01*
X146023809Y-55771904D01*
X146023809Y-55676666D01*
X145976190Y-55581428D01*
X145928571Y-55533809D01*
X145833333Y-55486190D01*
X145642857Y-55438571D01*
X145547619Y-55390952D01*
X145500000Y-55343333D01*
X145452380Y-55248095D01*
X145452380Y-55152857D01*
X145500000Y-55057619D01*
X145547619Y-55010000D01*
X145642857Y-54962380D01*
X145880952Y-54962380D01*
X146023809Y-55010000D01*
X146452380Y-55962380D02*
X146452380Y-54962380D01*
X146833333Y-54962380D01*
X146928571Y-55010000D01*
X146976190Y-55057619D01*
X147023809Y-55152857D01*
X147023809Y-55295714D01*
X146976190Y-55390952D01*
X146928571Y-55438571D01*
X146833333Y-55486190D01*
X146452380Y-55486190D01*
%TO.C,J7*%
X100430500Y-46535380D02*
X100430500Y-45535380D01*
X100668595Y-45535380D01*
X100811452Y-45583000D01*
X100906690Y-45678238D01*
X100954309Y-45773476D01*
X101001928Y-45963952D01*
X101001928Y-46106809D01*
X100954309Y-46297285D01*
X100906690Y-46392523D01*
X100811452Y-46487761D01*
X100668595Y-46535380D01*
X100430500Y-46535380D01*
X101573357Y-46535380D02*
X101478119Y-46487761D01*
X101430500Y-46440142D01*
X101382880Y-46344904D01*
X101382880Y-46059190D01*
X101430500Y-45963952D01*
X101478119Y-45916333D01*
X101573357Y-45868714D01*
X101716214Y-45868714D01*
X101811452Y-45916333D01*
X101859071Y-45963952D01*
X101906690Y-46059190D01*
X101906690Y-46344904D01*
X101859071Y-46440142D01*
X101811452Y-46487761D01*
X101716214Y-46535380D01*
X101573357Y-46535380D01*
X102240023Y-45868714D02*
X102430500Y-46535380D01*
X102620976Y-46059190D01*
X102811452Y-46535380D01*
X103001928Y-45868714D01*
X103382880Y-45868714D02*
X103382880Y-46535380D01*
X103382880Y-45963952D02*
X103430500Y-45916333D01*
X103525738Y-45868714D01*
X103668595Y-45868714D01*
X103763833Y-45916333D01*
X103811452Y-46011571D01*
X103811452Y-46535380D01*
X104049547Y-46630619D02*
X104811452Y-46630619D01*
X105240023Y-45535380D02*
X105430500Y-45535380D01*
X105525738Y-45583000D01*
X105620976Y-45678238D01*
X105668595Y-45868714D01*
X105668595Y-46202047D01*
X105620976Y-46392523D01*
X105525738Y-46487761D01*
X105430500Y-46535380D01*
X105240023Y-46535380D01*
X105144785Y-46487761D01*
X105049547Y-46392523D01*
X105001928Y-46202047D01*
X105001928Y-45868714D01*
X105049547Y-45678238D01*
X105144785Y-45583000D01*
X105240023Y-45535380D01*
X106097166Y-45535380D02*
X106097166Y-46344904D01*
X106144785Y-46440142D01*
X106192404Y-46487761D01*
X106287642Y-46535380D01*
X106478119Y-46535380D01*
X106573357Y-46487761D01*
X106620976Y-46440142D01*
X106668595Y-46344904D01*
X106668595Y-45535380D01*
X107001928Y-45535380D02*
X107573357Y-45535380D01*
X107287642Y-46535380D02*
X107287642Y-45535380D01*
%TO.C,J17*%
X142500000Y-97261904D02*
X142452380Y-97357142D01*
X142452380Y-97500000D01*
X142500000Y-97642857D01*
X142595238Y-97738095D01*
X142690476Y-97785714D01*
X142880952Y-97833333D01*
X143023809Y-97833333D01*
X143214285Y-97785714D01*
X143309523Y-97738095D01*
X143404761Y-97642857D01*
X143452380Y-97500000D01*
X143452380Y-97404761D01*
X143404761Y-97261904D01*
X143357142Y-97214285D01*
X143023809Y-97214285D01*
X143023809Y-97404761D01*
X143452380Y-96785714D02*
X142452380Y-96785714D01*
X143452380Y-96214285D01*
X142452380Y-96214285D01*
X143452380Y-95738095D02*
X142452380Y-95738095D01*
X142452380Y-95500000D01*
X142500000Y-95357142D01*
X142595238Y-95261904D01*
X142690476Y-95214285D01*
X142880952Y-95166666D01*
X143023809Y-95166666D01*
X143214285Y-95214285D01*
X143309523Y-95261904D01*
X143404761Y-95357142D01*
X143452380Y-95500000D01*
X143452380Y-95738095D01*
%TO.C,R1*%
X106675523Y-69365714D02*
X106675523Y-70032380D01*
X106437428Y-68984761D02*
X106199333Y-69699047D01*
X106818380Y-69699047D01*
X107199333Y-70032380D02*
X107199333Y-69032380D01*
X107294571Y-69651428D02*
X107580285Y-70032380D01*
X107580285Y-69365714D02*
X107199333Y-69746666D01*
X107913619Y-69032380D02*
X108580285Y-69032380D01*
X108151714Y-70032380D01*
%TO.C,C2*%
X129265714Y-60145619D02*
X129313333Y-60098000D01*
X129408571Y-60050380D01*
X129646666Y-60050380D01*
X129741904Y-60098000D01*
X129789523Y-60145619D01*
X129837142Y-60240857D01*
X129837142Y-60336095D01*
X129789523Y-60478952D01*
X129218095Y-61050380D01*
X129837142Y-61050380D01*
X130218095Y-60145619D02*
X130265714Y-60098000D01*
X130360952Y-60050380D01*
X130599047Y-60050380D01*
X130694285Y-60098000D01*
X130741904Y-60145619D01*
X130789523Y-60240857D01*
X130789523Y-60336095D01*
X130741904Y-60478952D01*
X130170476Y-61050380D01*
X130789523Y-61050380D01*
X131218095Y-60383714D02*
X131218095Y-61383714D01*
X131218095Y-60431333D02*
X131313333Y-60383714D01*
X131503809Y-60383714D01*
X131599047Y-60431333D01*
X131646666Y-60478952D01*
X131694285Y-60574190D01*
X131694285Y-60859904D01*
X131646666Y-60955142D01*
X131599047Y-61002761D01*
X131503809Y-61050380D01*
X131313333Y-61050380D01*
X131218095Y-61002761D01*
%TO.C,Y1*%
X125238095Y-61812380D02*
X124666666Y-61812380D01*
X124952380Y-61812380D02*
X124952380Y-60812380D01*
X124857142Y-60955238D01*
X124761904Y-61050476D01*
X124666666Y-61098095D01*
X126095238Y-60812380D02*
X125904761Y-60812380D01*
X125809523Y-60860000D01*
X125761904Y-60907619D01*
X125666666Y-61050476D01*
X125619047Y-61240952D01*
X125619047Y-61621904D01*
X125666666Y-61717142D01*
X125714285Y-61764761D01*
X125809523Y-61812380D01*
X126000000Y-61812380D01*
X126095238Y-61764761D01*
X126142857Y-61717142D01*
X126190476Y-61621904D01*
X126190476Y-61383809D01*
X126142857Y-61288571D01*
X126095238Y-61240952D01*
X126000000Y-61193333D01*
X125809523Y-61193333D01*
X125714285Y-61240952D01*
X125666666Y-61288571D01*
X125619047Y-61383809D01*
X126619047Y-61812380D02*
X126619047Y-60812380D01*
X126952380Y-61526666D01*
X127285714Y-60812380D01*
X127285714Y-61812380D01*
%TO.C,Q4*%
X116138857Y-76908571D02*
X116281714Y-76956190D01*
X116329333Y-77003809D01*
X116376952Y-77099047D01*
X116376952Y-77241904D01*
X116329333Y-77337142D01*
X116281714Y-77384761D01*
X116186476Y-77432380D01*
X115805523Y-77432380D01*
X115805523Y-76432380D01*
X116138857Y-76432380D01*
X116234095Y-76480000D01*
X116281714Y-76527619D01*
X116329333Y-76622857D01*
X116329333Y-76718095D01*
X116281714Y-76813333D01*
X116234095Y-76860952D01*
X116138857Y-76908571D01*
X115805523Y-76908571D01*
X117376952Y-77337142D02*
X117329333Y-77384761D01*
X117186476Y-77432380D01*
X117091238Y-77432380D01*
X116948380Y-77384761D01*
X116853142Y-77289523D01*
X116805523Y-77194285D01*
X116757904Y-77003809D01*
X116757904Y-76860952D01*
X116805523Y-76670476D01*
X116853142Y-76575238D01*
X116948380Y-76480000D01*
X117091238Y-76432380D01*
X117186476Y-76432380D01*
X117329333Y-76480000D01*
X117376952Y-76527619D01*
X118281714Y-76432380D02*
X117805523Y-76432380D01*
X117757904Y-76908571D01*
X117805523Y-76860952D01*
X117900761Y-76813333D01*
X118138857Y-76813333D01*
X118234095Y-76860952D01*
X118281714Y-76908571D01*
X118329333Y-77003809D01*
X118329333Y-77241904D01*
X118281714Y-77337142D01*
X118234095Y-77384761D01*
X118138857Y-77432380D01*
X117900761Y-77432380D01*
X117805523Y-77384761D01*
X117757904Y-77337142D01*
X119234095Y-76432380D02*
X118757904Y-76432380D01*
X118710285Y-76908571D01*
X118757904Y-76860952D01*
X118853142Y-76813333D01*
X119091238Y-76813333D01*
X119186476Y-76860952D01*
X119234095Y-76908571D01*
X119281714Y-77003809D01*
X119281714Y-77241904D01*
X119234095Y-77337142D01*
X119186476Y-77384761D01*
X119091238Y-77432380D01*
X118853142Y-77432380D01*
X118757904Y-77384761D01*
X118710285Y-77337142D01*
X119853142Y-76860952D02*
X119757904Y-76813333D01*
X119710285Y-76765714D01*
X119662666Y-76670476D01*
X119662666Y-76622857D01*
X119710285Y-76527619D01*
X119757904Y-76480000D01*
X119853142Y-76432380D01*
X120043619Y-76432380D01*
X120138857Y-76480000D01*
X120186476Y-76527619D01*
X120234095Y-76622857D01*
X120234095Y-76670476D01*
X120186476Y-76765714D01*
X120138857Y-76813333D01*
X120043619Y-76860952D01*
X119853142Y-76860952D01*
X119757904Y-76908571D01*
X119710285Y-76956190D01*
X119662666Y-77051428D01*
X119662666Y-77241904D01*
X119710285Y-77337142D01*
X119757904Y-77384761D01*
X119853142Y-77432380D01*
X120043619Y-77432380D01*
X120138857Y-77384761D01*
X120186476Y-77337142D01*
X120234095Y-77241904D01*
X120234095Y-77051428D01*
X120186476Y-76956190D01*
X120138857Y-76908571D01*
X120043619Y-76860952D01*
%TO.C,J19*%
X144738095Y-93150000D02*
X144642857Y-93102380D01*
X144500000Y-93102380D01*
X144357142Y-93150000D01*
X144261904Y-93245238D01*
X144214285Y-93340476D01*
X144166666Y-93530952D01*
X144166666Y-93673809D01*
X144214285Y-93864285D01*
X144261904Y-93959523D01*
X144357142Y-94054761D01*
X144500000Y-94102380D01*
X144595238Y-94102380D01*
X144738095Y-94054761D01*
X144785714Y-94007142D01*
X144785714Y-93673809D01*
X144595238Y-93673809D01*
X145214285Y-94102380D02*
X145214285Y-93102380D01*
X145785714Y-94102380D01*
X145785714Y-93102380D01*
X146261904Y-94102380D02*
X146261904Y-93102380D01*
X146500000Y-93102380D01*
X146642857Y-93150000D01*
X146738095Y-93245238D01*
X146785714Y-93340476D01*
X146833333Y-93530952D01*
X146833333Y-93673809D01*
X146785714Y-93864285D01*
X146738095Y-93959523D01*
X146642857Y-94054761D01*
X146500000Y-94102380D01*
X146261904Y-94102380D01*
%TO.C,J15*%
X150570000Y-83452380D02*
X149998571Y-83452380D01*
X150284285Y-83452380D02*
X150284285Y-82452380D01*
X150189047Y-82595238D01*
X150093809Y-82690476D01*
X149998571Y-82738095D01*
X150950952Y-82547619D02*
X150998571Y-82500000D01*
X151093809Y-82452380D01*
X151331904Y-82452380D01*
X151427142Y-82500000D01*
X151474761Y-82547619D01*
X151522380Y-82642857D01*
X151522380Y-82738095D01*
X151474761Y-82880952D01*
X150903333Y-83452380D01*
X151522380Y-83452380D01*
X151808095Y-82452380D02*
X152141428Y-83452380D01*
X152474761Y-82452380D01*
X153236666Y-83452380D02*
X153236666Y-82452380D01*
X153236666Y-83404761D02*
X153141428Y-83452380D01*
X152950952Y-83452380D01*
X152855714Y-83404761D01*
X152808095Y-83357142D01*
X152760476Y-83261904D01*
X152760476Y-82976190D01*
X152808095Y-82880952D01*
X152855714Y-82833333D01*
X152950952Y-82785714D01*
X153141428Y-82785714D01*
X153236666Y-82833333D01*
X154141428Y-83404761D02*
X154046190Y-83452380D01*
X153855714Y-83452380D01*
X153760476Y-83404761D01*
X153712857Y-83357142D01*
X153665238Y-83261904D01*
X153665238Y-82976190D01*
X153712857Y-82880952D01*
X153760476Y-82833333D01*
X153855714Y-82785714D01*
X154046190Y-82785714D01*
X154141428Y-82833333D01*
%TO.C,J3*%
X153398571Y-67552380D02*
X153398571Y-67219047D01*
X153922380Y-67076190D02*
X153922380Y-67552380D01*
X152922380Y-67552380D01*
X152922380Y-67076190D01*
X153922380Y-66647619D02*
X152922380Y-66647619D01*
X152922380Y-66266666D01*
X152970000Y-66171428D01*
X153017619Y-66123809D01*
X153112857Y-66076190D01*
X153255714Y-66076190D01*
X153350952Y-66123809D01*
X153398571Y-66171428D01*
X153446190Y-66266666D01*
X153446190Y-66647619D01*
X153874761Y-65695238D02*
X153922380Y-65552380D01*
X153922380Y-65314285D01*
X153874761Y-65219047D01*
X153827142Y-65171428D01*
X153731904Y-65123809D01*
X153636666Y-65123809D01*
X153541428Y-65171428D01*
X153493809Y-65219047D01*
X153446190Y-65314285D01*
X153398571Y-65504761D01*
X153350952Y-65600000D01*
X153303333Y-65647619D01*
X153208095Y-65695238D01*
X153112857Y-65695238D01*
X153017619Y-65647619D01*
X152970000Y-65600000D01*
X152922380Y-65504761D01*
X152922380Y-65266666D01*
X152970000Y-65123809D01*
X152922380Y-64790476D02*
X153922380Y-64552380D01*
X153208095Y-64361904D01*
X153922380Y-64171428D01*
X152922380Y-63933333D01*
X154017619Y-63790476D02*
X154017619Y-63028571D01*
X153922380Y-62361904D02*
X153398571Y-62361904D01*
X153303333Y-62409523D01*
X153255714Y-62504761D01*
X153255714Y-62695238D01*
X153303333Y-62790476D01*
X153874761Y-62361904D02*
X153922380Y-62457142D01*
X153922380Y-62695238D01*
X153874761Y-62790476D01*
X153779523Y-62838095D01*
X153684285Y-62838095D01*
X153589047Y-62790476D01*
X153541428Y-62695238D01*
X153541428Y-62457142D01*
X153493809Y-62361904D01*
X153255714Y-61457142D02*
X153922380Y-61457142D01*
X153255714Y-61885714D02*
X153779523Y-61885714D01*
X153874761Y-61838095D01*
X153922380Y-61742857D01*
X153922380Y-61600000D01*
X153874761Y-61504761D01*
X153827142Y-61457142D01*
X153922380Y-61076190D02*
X153255714Y-60552380D01*
X153255714Y-61076190D02*
X153922380Y-60552380D01*
%TO.C,D5*%
X106527142Y-68462380D02*
X105955714Y-68462380D01*
X106241428Y-68462380D02*
X106241428Y-67462380D01*
X106146190Y-67605238D01*
X106050952Y-67700476D01*
X105955714Y-67748095D01*
X106955714Y-68462380D02*
X106955714Y-67462380D01*
X107527142Y-68462380D01*
X107527142Y-67462380D01*
X108431904Y-67795714D02*
X108431904Y-68462380D01*
X108193809Y-67414761D02*
X107955714Y-68129047D01*
X108574761Y-68129047D01*
X109146190Y-67462380D02*
X109241428Y-67462380D01*
X109336666Y-67510000D01*
X109384285Y-67557619D01*
X109431904Y-67652857D01*
X109479523Y-67843333D01*
X109479523Y-68081428D01*
X109431904Y-68271904D01*
X109384285Y-68367142D01*
X109336666Y-68414761D01*
X109241428Y-68462380D01*
X109146190Y-68462380D01*
X109050952Y-68414761D01*
X109003333Y-68367142D01*
X108955714Y-68271904D01*
X108908095Y-68081428D01*
X108908095Y-67843333D01*
X108955714Y-67652857D01*
X109003333Y-67557619D01*
X109050952Y-67510000D01*
X109146190Y-67462380D01*
X110098571Y-67462380D02*
X110193809Y-67462380D01*
X110289047Y-67510000D01*
X110336666Y-67557619D01*
X110384285Y-67652857D01*
X110431904Y-67843333D01*
X110431904Y-68081428D01*
X110384285Y-68271904D01*
X110336666Y-68367142D01*
X110289047Y-68414761D01*
X110193809Y-68462380D01*
X110098571Y-68462380D01*
X110003333Y-68414761D01*
X109955714Y-68367142D01*
X109908095Y-68271904D01*
X109860476Y-68081428D01*
X109860476Y-67843333D01*
X109908095Y-67652857D01*
X109955714Y-67557619D01*
X110003333Y-67510000D01*
X110098571Y-67462380D01*
X110765238Y-67462380D02*
X111431904Y-67462380D01*
X111003333Y-68462380D01*
X104063095Y-66076380D02*
X104063095Y-65076380D01*
X104634523Y-66076380D02*
X104205952Y-65504952D01*
X104634523Y-65076380D02*
X104063095Y-65647809D01*
%TO.C,R6*%
X134035714Y-91960476D02*
X134702380Y-91960476D01*
X133654761Y-92198571D02*
X134369047Y-92436666D01*
X134369047Y-91817619D01*
X134702380Y-91436666D02*
X133702380Y-91436666D01*
X134321428Y-91341428D02*
X134702380Y-91055714D01*
X134035714Y-91055714D02*
X134416666Y-91436666D01*
X133702380Y-90722380D02*
X133702380Y-90055714D01*
X134702380Y-90484285D01*
%TO.C,Q1*%
X108382857Y-37749571D02*
X108525714Y-37797190D01*
X108573333Y-37844809D01*
X108620952Y-37940047D01*
X108620952Y-38082904D01*
X108573333Y-38178142D01*
X108525714Y-38225761D01*
X108430476Y-38273380D01*
X108049523Y-38273380D01*
X108049523Y-37273380D01*
X108382857Y-37273380D01*
X108478095Y-37321000D01*
X108525714Y-37368619D01*
X108573333Y-37463857D01*
X108573333Y-37559095D01*
X108525714Y-37654333D01*
X108478095Y-37701952D01*
X108382857Y-37749571D01*
X108049523Y-37749571D01*
X109620952Y-38178142D02*
X109573333Y-38225761D01*
X109430476Y-38273380D01*
X109335238Y-38273380D01*
X109192380Y-38225761D01*
X109097142Y-38130523D01*
X109049523Y-38035285D01*
X109001904Y-37844809D01*
X109001904Y-37701952D01*
X109049523Y-37511476D01*
X109097142Y-37416238D01*
X109192380Y-37321000D01*
X109335238Y-37273380D01*
X109430476Y-37273380D01*
X109573333Y-37321000D01*
X109620952Y-37368619D01*
X110525714Y-37273380D02*
X110049523Y-37273380D01*
X110001904Y-37749571D01*
X110049523Y-37701952D01*
X110144761Y-37654333D01*
X110382857Y-37654333D01*
X110478095Y-37701952D01*
X110525714Y-37749571D01*
X110573333Y-37844809D01*
X110573333Y-38082904D01*
X110525714Y-38178142D01*
X110478095Y-38225761D01*
X110382857Y-38273380D01*
X110144761Y-38273380D01*
X110049523Y-38225761D01*
X110001904Y-38178142D01*
X111430476Y-37606714D02*
X111430476Y-38273380D01*
X111192380Y-37225761D02*
X110954285Y-37940047D01*
X111573333Y-37940047D01*
X111859047Y-37273380D02*
X112525714Y-37273380D01*
X112097142Y-38273380D01*
%TO.C,D6*%
X105557142Y-98602380D02*
X104985714Y-98602380D01*
X105271428Y-98602380D02*
X105271428Y-97602380D01*
X105176190Y-97745238D01*
X105080952Y-97840476D01*
X104985714Y-97888095D01*
X105985714Y-98602380D02*
X105985714Y-97602380D01*
X106557142Y-98602380D01*
X106557142Y-97602380D01*
X107461904Y-97935714D02*
X107461904Y-98602380D01*
X107223809Y-97554761D02*
X106985714Y-98269047D01*
X107604761Y-98269047D01*
X108176190Y-97602380D02*
X108271428Y-97602380D01*
X108366666Y-97650000D01*
X108414285Y-97697619D01*
X108461904Y-97792857D01*
X108509523Y-97983333D01*
X108509523Y-98221428D01*
X108461904Y-98411904D01*
X108414285Y-98507142D01*
X108366666Y-98554761D01*
X108271428Y-98602380D01*
X108176190Y-98602380D01*
X108080952Y-98554761D01*
X108033333Y-98507142D01*
X107985714Y-98411904D01*
X107938095Y-98221428D01*
X107938095Y-97983333D01*
X107985714Y-97792857D01*
X108033333Y-97697619D01*
X108080952Y-97650000D01*
X108176190Y-97602380D01*
X109128571Y-97602380D02*
X109223809Y-97602380D01*
X109319047Y-97650000D01*
X109366666Y-97697619D01*
X109414285Y-97792857D01*
X109461904Y-97983333D01*
X109461904Y-98221428D01*
X109414285Y-98411904D01*
X109366666Y-98507142D01*
X109319047Y-98554761D01*
X109223809Y-98602380D01*
X109128571Y-98602380D01*
X109033333Y-98554761D01*
X108985714Y-98507142D01*
X108938095Y-98411904D01*
X108890476Y-98221428D01*
X108890476Y-97983333D01*
X108938095Y-97792857D01*
X108985714Y-97697619D01*
X109033333Y-97650000D01*
X109128571Y-97602380D01*
X109795238Y-97602380D02*
X110461904Y-97602380D01*
X110033333Y-98602380D01*
X104338095Y-96002380D02*
X104338095Y-95002380D01*
X104909523Y-96002380D02*
X104480952Y-95430952D01*
X104909523Y-95002380D02*
X104338095Y-95573809D01*
%TO.C,R26*%
X144394571Y-77306380D02*
X143823142Y-77306380D01*
X144108857Y-77306380D02*
X144108857Y-76306380D01*
X144013619Y-76449238D01*
X143918380Y-76544476D01*
X143823142Y-76592095D01*
X145346952Y-77306380D02*
X144775523Y-77306380D01*
X145061238Y-77306380D02*
X145061238Y-76306380D01*
X144966000Y-76449238D01*
X144870761Y-76544476D01*
X144775523Y-76592095D01*
X145966000Y-76306380D02*
X146061238Y-76306380D01*
X146156476Y-76354000D01*
X146204095Y-76401619D01*
X146251714Y-76496857D01*
X146299333Y-76687333D01*
X146299333Y-76925428D01*
X146251714Y-77115904D01*
X146204095Y-77211142D01*
X146156476Y-77258761D01*
X146061238Y-77306380D01*
X145966000Y-77306380D01*
X145870761Y-77258761D01*
X145823142Y-77211142D01*
X145775523Y-77115904D01*
X145727904Y-76925428D01*
X145727904Y-76687333D01*
X145775523Y-76496857D01*
X145823142Y-76401619D01*
X145870761Y-76354000D01*
X145966000Y-76306380D01*
X146727904Y-77306380D02*
X146727904Y-76306380D01*
X146823142Y-76925428D02*
X147108857Y-77306380D01*
X147108857Y-76639714D02*
X146727904Y-77020666D01*
%TO.C,Q8*%
X116142857Y-96928571D02*
X116285714Y-96976190D01*
X116333333Y-97023809D01*
X116380952Y-97119047D01*
X116380952Y-97261904D01*
X116333333Y-97357142D01*
X116285714Y-97404761D01*
X116190476Y-97452380D01*
X115809523Y-97452380D01*
X115809523Y-96452380D01*
X116142857Y-96452380D01*
X116238095Y-96500000D01*
X116285714Y-96547619D01*
X116333333Y-96642857D01*
X116333333Y-96738095D01*
X116285714Y-96833333D01*
X116238095Y-96880952D01*
X116142857Y-96928571D01*
X115809523Y-96928571D01*
X117380952Y-97357142D02*
X117333333Y-97404761D01*
X117190476Y-97452380D01*
X117095238Y-97452380D01*
X116952380Y-97404761D01*
X116857142Y-97309523D01*
X116809523Y-97214285D01*
X116761904Y-97023809D01*
X116761904Y-96880952D01*
X116809523Y-96690476D01*
X116857142Y-96595238D01*
X116952380Y-96500000D01*
X117095238Y-96452380D01*
X117190476Y-96452380D01*
X117333333Y-96500000D01*
X117380952Y-96547619D01*
X118285714Y-96452380D02*
X117809523Y-96452380D01*
X117761904Y-96928571D01*
X117809523Y-96880952D01*
X117904761Y-96833333D01*
X118142857Y-96833333D01*
X118238095Y-96880952D01*
X118285714Y-96928571D01*
X118333333Y-97023809D01*
X118333333Y-97261904D01*
X118285714Y-97357142D01*
X118238095Y-97404761D01*
X118142857Y-97452380D01*
X117904761Y-97452380D01*
X117809523Y-97404761D01*
X117761904Y-97357142D01*
X119238095Y-96452380D02*
X118761904Y-96452380D01*
X118714285Y-96928571D01*
X118761904Y-96880952D01*
X118857142Y-96833333D01*
X119095238Y-96833333D01*
X119190476Y-96880952D01*
X119238095Y-96928571D01*
X119285714Y-97023809D01*
X119285714Y-97261904D01*
X119238095Y-97357142D01*
X119190476Y-97404761D01*
X119095238Y-97452380D01*
X118857142Y-97452380D01*
X118761904Y-97404761D01*
X118714285Y-97357142D01*
X119857142Y-96880952D02*
X119761904Y-96833333D01*
X119714285Y-96785714D01*
X119666666Y-96690476D01*
X119666666Y-96642857D01*
X119714285Y-96547619D01*
X119761904Y-96500000D01*
X119857142Y-96452380D01*
X120047619Y-96452380D01*
X120142857Y-96500000D01*
X120190476Y-96547619D01*
X120238095Y-96642857D01*
X120238095Y-96690476D01*
X120190476Y-96785714D01*
X120142857Y-96833333D01*
X120047619Y-96880952D01*
X119857142Y-96880952D01*
X119761904Y-96928571D01*
X119714285Y-96976190D01*
X119666666Y-97071428D01*
X119666666Y-97261904D01*
X119714285Y-97357142D01*
X119761904Y-97404761D01*
X119857142Y-97452380D01*
X120047619Y-97452380D01*
X120142857Y-97404761D01*
X120190476Y-97357142D01*
X120238095Y-97261904D01*
X120238095Y-97071428D01*
X120190476Y-96976190D01*
X120142857Y-96928571D01*
X120047619Y-96880952D01*
%TO.C,R22*%
X113850952Y-68162380D02*
X113279523Y-68162380D01*
X113565238Y-68162380D02*
X113565238Y-67162380D01*
X113470000Y-67305238D01*
X113374761Y-67400476D01*
X113279523Y-67448095D01*
X114279523Y-68162380D02*
X114279523Y-67162380D01*
X114374761Y-67781428D02*
X114660476Y-68162380D01*
X114660476Y-67495714D02*
X114279523Y-67876666D01*
%TO.C,D1*%
X104969142Y-58256380D02*
X104397714Y-58256380D01*
X104683428Y-58256380D02*
X104683428Y-57256380D01*
X104588190Y-57399238D01*
X104492952Y-57494476D01*
X104397714Y-57542095D01*
X105397714Y-58256380D02*
X105397714Y-57256380D01*
X105969142Y-58256380D01*
X105969142Y-57256380D01*
X106873904Y-57589714D02*
X106873904Y-58256380D01*
X106635809Y-57208761D02*
X106397714Y-57923047D01*
X107016761Y-57923047D01*
X107588190Y-57256380D02*
X107683428Y-57256380D01*
X107778666Y-57304000D01*
X107826285Y-57351619D01*
X107873904Y-57446857D01*
X107921523Y-57637333D01*
X107921523Y-57875428D01*
X107873904Y-58065904D01*
X107826285Y-58161142D01*
X107778666Y-58208761D01*
X107683428Y-58256380D01*
X107588190Y-58256380D01*
X107492952Y-58208761D01*
X107445333Y-58161142D01*
X107397714Y-58065904D01*
X107350095Y-57875428D01*
X107350095Y-57637333D01*
X107397714Y-57446857D01*
X107445333Y-57351619D01*
X107492952Y-57304000D01*
X107588190Y-57256380D01*
X108540571Y-57256380D02*
X108635809Y-57256380D01*
X108731047Y-57304000D01*
X108778666Y-57351619D01*
X108826285Y-57446857D01*
X108873904Y-57637333D01*
X108873904Y-57875428D01*
X108826285Y-58065904D01*
X108778666Y-58161142D01*
X108731047Y-58208761D01*
X108635809Y-58256380D01*
X108540571Y-58256380D01*
X108445333Y-58208761D01*
X108397714Y-58161142D01*
X108350095Y-58065904D01*
X108302476Y-57875428D01*
X108302476Y-57637333D01*
X108350095Y-57446857D01*
X108397714Y-57351619D01*
X108445333Y-57304000D01*
X108540571Y-57256380D01*
X109207238Y-57256380D02*
X109873904Y-57256380D01*
X109445333Y-58256380D01*
X102738380Y-63214138D02*
X101738380Y-63214138D01*
X102738380Y-62642710D02*
X102166952Y-63071281D01*
X101738380Y-62642710D02*
X102309809Y-63214138D01*
%TO.C,Q7*%
X116167857Y-67002571D02*
X116310714Y-67050190D01*
X116358333Y-67097809D01*
X116405952Y-67193047D01*
X116405952Y-67335904D01*
X116358333Y-67431142D01*
X116310714Y-67478761D01*
X116215476Y-67526380D01*
X115834523Y-67526380D01*
X115834523Y-66526380D01*
X116167857Y-66526380D01*
X116263095Y-66574000D01*
X116310714Y-66621619D01*
X116358333Y-66716857D01*
X116358333Y-66812095D01*
X116310714Y-66907333D01*
X116263095Y-66954952D01*
X116167857Y-67002571D01*
X115834523Y-67002571D01*
X117405952Y-67431142D02*
X117358333Y-67478761D01*
X117215476Y-67526380D01*
X117120238Y-67526380D01*
X116977380Y-67478761D01*
X116882142Y-67383523D01*
X116834523Y-67288285D01*
X116786904Y-67097809D01*
X116786904Y-66954952D01*
X116834523Y-66764476D01*
X116882142Y-66669238D01*
X116977380Y-66574000D01*
X117120238Y-66526380D01*
X117215476Y-66526380D01*
X117358333Y-66574000D01*
X117405952Y-66621619D01*
X118310714Y-66526380D02*
X117834523Y-66526380D01*
X117786904Y-67002571D01*
X117834523Y-66954952D01*
X117929761Y-66907333D01*
X118167857Y-66907333D01*
X118263095Y-66954952D01*
X118310714Y-67002571D01*
X118358333Y-67097809D01*
X118358333Y-67335904D01*
X118310714Y-67431142D01*
X118263095Y-67478761D01*
X118167857Y-67526380D01*
X117929761Y-67526380D01*
X117834523Y-67478761D01*
X117786904Y-67431142D01*
X119263095Y-66526380D02*
X118786904Y-66526380D01*
X118739285Y-67002571D01*
X118786904Y-66954952D01*
X118882142Y-66907333D01*
X119120238Y-66907333D01*
X119215476Y-66954952D01*
X119263095Y-67002571D01*
X119310714Y-67097809D01*
X119310714Y-67335904D01*
X119263095Y-67431142D01*
X119215476Y-67478761D01*
X119120238Y-67526380D01*
X118882142Y-67526380D01*
X118786904Y-67478761D01*
X118739285Y-67431142D01*
X119882142Y-66954952D02*
X119786904Y-66907333D01*
X119739285Y-66859714D01*
X119691666Y-66764476D01*
X119691666Y-66716857D01*
X119739285Y-66621619D01*
X119786904Y-66574000D01*
X119882142Y-66526380D01*
X120072619Y-66526380D01*
X120167857Y-66574000D01*
X120215476Y-66621619D01*
X120263095Y-66716857D01*
X120263095Y-66764476D01*
X120215476Y-66859714D01*
X120167857Y-66907333D01*
X120072619Y-66954952D01*
X119882142Y-66954952D01*
X119786904Y-67002571D01*
X119739285Y-67050190D01*
X119691666Y-67145428D01*
X119691666Y-67335904D01*
X119739285Y-67431142D01*
X119786904Y-67478761D01*
X119882142Y-67526380D01*
X120072619Y-67526380D01*
X120167857Y-67478761D01*
X120215476Y-67431142D01*
X120263095Y-67335904D01*
X120263095Y-67145428D01*
X120215476Y-67050190D01*
X120167857Y-67002571D01*
X120072619Y-66954952D01*
%TO.C,R11*%
X114719761Y-31003380D02*
X114148333Y-31003380D01*
X114434047Y-31003380D02*
X114434047Y-30003380D01*
X114338809Y-30146238D01*
X114243571Y-30241476D01*
X114148333Y-30289095D01*
X115338809Y-30003380D02*
X115434047Y-30003380D01*
X115529285Y-30051000D01*
X115576904Y-30098619D01*
X115624523Y-30193857D01*
X115672142Y-30384333D01*
X115672142Y-30622428D01*
X115624523Y-30812904D01*
X115576904Y-30908142D01*
X115529285Y-30955761D01*
X115434047Y-31003380D01*
X115338809Y-31003380D01*
X115243571Y-30955761D01*
X115195952Y-30908142D01*
X115148333Y-30812904D01*
X115100714Y-30622428D01*
X115100714Y-30384333D01*
X115148333Y-30193857D01*
X115195952Y-30098619D01*
X115243571Y-30051000D01*
X115338809Y-30003380D01*
X116100714Y-31003380D02*
X116100714Y-30003380D01*
X116195952Y-30622428D02*
X116481666Y-31003380D01*
X116481666Y-30336714D02*
X116100714Y-30717666D01*
%TO.C,R21*%
X142952380Y-86059047D02*
X142952380Y-86630476D01*
X142952380Y-86344761D02*
X141952380Y-86344761D01*
X142095238Y-86440000D01*
X142190476Y-86535238D01*
X142238095Y-86630476D01*
X142952380Y-85630476D02*
X141952380Y-85630476D01*
X142571428Y-85535238D02*
X142952380Y-85249523D01*
X142285714Y-85249523D02*
X142666666Y-85630476D01*
%TO.C,R8*%
X106979523Y-89385714D02*
X106979523Y-90052380D01*
X106741428Y-89004761D02*
X106503333Y-89719047D01*
X107122380Y-89719047D01*
X107503333Y-90052380D02*
X107503333Y-89052380D01*
X107598571Y-89671428D02*
X107884285Y-90052380D01*
X107884285Y-89385714D02*
X107503333Y-89766666D01*
X108217619Y-89052380D02*
X108884285Y-89052380D01*
X108455714Y-90052380D01*
%TO.C,J9*%
X100222571Y-68384666D02*
X100698761Y-68384666D01*
X100127333Y-68670380D02*
X100460666Y-67670380D01*
X100794000Y-68670380D01*
X101555904Y-68003714D02*
X101555904Y-68670380D01*
X101127333Y-68003714D02*
X101127333Y-68527523D01*
X101174952Y-68622761D01*
X101270190Y-68670380D01*
X101413047Y-68670380D01*
X101508285Y-68622761D01*
X101555904Y-68575142D01*
X101889238Y-68003714D02*
X102270190Y-68003714D01*
X102032095Y-67670380D02*
X102032095Y-68527523D01*
X102079714Y-68622761D01*
X102174952Y-68670380D01*
X102270190Y-68670380D01*
X102603523Y-68670380D02*
X102603523Y-67670380D01*
X103032095Y-68670380D02*
X103032095Y-68146571D01*
X102984476Y-68051333D01*
X102889238Y-68003714D01*
X102746380Y-68003714D01*
X102651142Y-68051333D01*
X102603523Y-68098952D01*
X103270190Y-68765619D02*
X104032095Y-68765619D01*
X104270190Y-68670380D02*
X104270190Y-67670380D01*
X104746380Y-68670380D02*
X104746380Y-67670380D01*
X105317809Y-68670380D01*
X105317809Y-67670380D01*
%TO.C,C4*%
X145870952Y-47080380D02*
X145299523Y-47080380D01*
X145585238Y-47080380D02*
X145585238Y-46080380D01*
X145490000Y-46223238D01*
X145394761Y-46318476D01*
X145299523Y-46366095D01*
X146490000Y-46080380D02*
X146585238Y-46080380D01*
X146680476Y-46128000D01*
X146728095Y-46175619D01*
X146775714Y-46270857D01*
X146823333Y-46461333D01*
X146823333Y-46699428D01*
X146775714Y-46889904D01*
X146728095Y-46985142D01*
X146680476Y-47032761D01*
X146585238Y-47080380D01*
X146490000Y-47080380D01*
X146394761Y-47032761D01*
X146347142Y-46985142D01*
X146299523Y-46889904D01*
X146251904Y-46699428D01*
X146251904Y-46461333D01*
X146299523Y-46270857D01*
X146347142Y-46175619D01*
X146394761Y-46128000D01*
X146490000Y-46080380D01*
X147442380Y-46080380D02*
X147537619Y-46080380D01*
X147632857Y-46128000D01*
X147680476Y-46175619D01*
X147728095Y-46270857D01*
X147775714Y-46461333D01*
X147775714Y-46699428D01*
X147728095Y-46889904D01*
X147680476Y-46985142D01*
X147632857Y-47032761D01*
X147537619Y-47080380D01*
X147442380Y-47080380D01*
X147347142Y-47032761D01*
X147299523Y-46985142D01*
X147251904Y-46889904D01*
X147204285Y-46699428D01*
X147204285Y-46461333D01*
X147251904Y-46270857D01*
X147299523Y-46175619D01*
X147347142Y-46128000D01*
X147442380Y-46080380D01*
X148204285Y-46413714D02*
X148204285Y-47080380D01*
X148204285Y-46508952D02*
X148251904Y-46461333D01*
X148347142Y-46413714D01*
X148490000Y-46413714D01*
X148585238Y-46461333D01*
X148632857Y-46556571D01*
X148632857Y-47080380D01*
%TO.C,J8*%
X100522904Y-55320166D02*
X100999095Y-55320166D01*
X100427666Y-55605880D02*
X100761000Y-54605880D01*
X101094333Y-55605880D01*
X101856238Y-54939214D02*
X101856238Y-55605880D01*
X101427666Y-54939214D02*
X101427666Y-55463023D01*
X101475285Y-55558261D01*
X101570523Y-55605880D01*
X101713380Y-55605880D01*
X101808619Y-55558261D01*
X101856238Y-55510642D01*
X102189571Y-54939214D02*
X102570523Y-54939214D01*
X102332428Y-54605880D02*
X102332428Y-55463023D01*
X102380047Y-55558261D01*
X102475285Y-55605880D01*
X102570523Y-55605880D01*
X102903857Y-55605880D02*
X102903857Y-54605880D01*
X103332428Y-55605880D02*
X103332428Y-55082071D01*
X103284809Y-54986833D01*
X103189571Y-54939214D01*
X103046714Y-54939214D01*
X102951476Y-54986833D01*
X102903857Y-55034452D01*
X103570523Y-55701119D02*
X104332428Y-55701119D01*
X104761000Y-54605880D02*
X104951476Y-54605880D01*
X105046714Y-54653500D01*
X105141952Y-54748738D01*
X105189571Y-54939214D01*
X105189571Y-55272547D01*
X105141952Y-55463023D01*
X105046714Y-55558261D01*
X104951476Y-55605880D01*
X104761000Y-55605880D01*
X104665761Y-55558261D01*
X104570523Y-55463023D01*
X104522904Y-55272547D01*
X104522904Y-54939214D01*
X104570523Y-54748738D01*
X104665761Y-54653500D01*
X104761000Y-54605880D01*
X105618142Y-54605880D02*
X105618142Y-55415404D01*
X105665761Y-55510642D01*
X105713380Y-55558261D01*
X105808619Y-55605880D01*
X105999095Y-55605880D01*
X106094333Y-55558261D01*
X106141952Y-55510642D01*
X106189571Y-55415404D01*
X106189571Y-54605880D01*
X106522904Y-54605880D02*
X107094333Y-54605880D01*
X106808619Y-55605880D02*
X106808619Y-54605880D01*
%TO.C,Q6*%
X141578571Y-82497142D02*
X141626190Y-82354285D01*
X141673809Y-82306666D01*
X141769047Y-82259047D01*
X141911904Y-82259047D01*
X142007142Y-82306666D01*
X142054761Y-82354285D01*
X142102380Y-82449523D01*
X142102380Y-82830476D01*
X141102380Y-82830476D01*
X141102380Y-82497142D01*
X141150000Y-82401904D01*
X141197619Y-82354285D01*
X141292857Y-82306666D01*
X141388095Y-82306666D01*
X141483333Y-82354285D01*
X141530952Y-82401904D01*
X141578571Y-82497142D01*
X141578571Y-82830476D01*
X142007142Y-81259047D02*
X142054761Y-81306666D01*
X142102380Y-81449523D01*
X142102380Y-81544761D01*
X142054761Y-81687619D01*
X141959523Y-81782857D01*
X141864285Y-81830476D01*
X141673809Y-81878095D01*
X141530952Y-81878095D01*
X141340476Y-81830476D01*
X141245238Y-81782857D01*
X141150000Y-81687619D01*
X141102380Y-81544761D01*
X141102380Y-81449523D01*
X141150000Y-81306666D01*
X141197619Y-81259047D01*
X141102380Y-80354285D02*
X141102380Y-80830476D01*
X141578571Y-80878095D01*
X141530952Y-80830476D01*
X141483333Y-80735238D01*
X141483333Y-80497142D01*
X141530952Y-80401904D01*
X141578571Y-80354285D01*
X141673809Y-80306666D01*
X141911904Y-80306666D01*
X142007142Y-80354285D01*
X142054761Y-80401904D01*
X142102380Y-80497142D01*
X142102380Y-80735238D01*
X142054761Y-80830476D01*
X142007142Y-80878095D01*
X141102380Y-79401904D02*
X141102380Y-79878095D01*
X141578571Y-79925714D01*
X141530952Y-79878095D01*
X141483333Y-79782857D01*
X141483333Y-79544761D01*
X141530952Y-79449523D01*
X141578571Y-79401904D01*
X141673809Y-79354285D01*
X141911904Y-79354285D01*
X142007142Y-79401904D01*
X142054761Y-79449523D01*
X142102380Y-79544761D01*
X142102380Y-79782857D01*
X142054761Y-79878095D01*
X142007142Y-79925714D01*
X141530952Y-78782857D02*
X141483333Y-78878095D01*
X141435714Y-78925714D01*
X141340476Y-78973333D01*
X141292857Y-78973333D01*
X141197619Y-78925714D01*
X141150000Y-78878095D01*
X141102380Y-78782857D01*
X141102380Y-78592380D01*
X141150000Y-78497142D01*
X141197619Y-78449523D01*
X141292857Y-78401904D01*
X141340476Y-78401904D01*
X141435714Y-78449523D01*
X141483333Y-78497142D01*
X141530952Y-78592380D01*
X141530952Y-78782857D01*
X141578571Y-78878095D01*
X141626190Y-78925714D01*
X141721428Y-78973333D01*
X141911904Y-78973333D01*
X142007142Y-78925714D01*
X142054761Y-78878095D01*
X142102380Y-78782857D01*
X142102380Y-78592380D01*
X142054761Y-78497142D01*
X142007142Y-78449523D01*
X141911904Y-78401904D01*
X141721428Y-78401904D01*
X141626190Y-78449523D01*
X141578571Y-78497142D01*
X141530952Y-78592380D01*
%TO.C,R20*%
X132452380Y-86059047D02*
X132452380Y-86630476D01*
X132452380Y-86344761D02*
X131452380Y-86344761D01*
X131595238Y-86440000D01*
X131690476Y-86535238D01*
X131738095Y-86630476D01*
X132452380Y-85630476D02*
X131452380Y-85630476D01*
X132071428Y-85535238D02*
X132452380Y-85249523D01*
X131785714Y-85249523D02*
X132166666Y-85630476D01*
%TO.C,J14*%
X101183047Y-78481142D02*
X101135428Y-78528761D01*
X100992571Y-78576380D01*
X100897333Y-78576380D01*
X100754476Y-78528761D01*
X100659238Y-78433523D01*
X100611619Y-78338285D01*
X100564000Y-78147809D01*
X100564000Y-78004952D01*
X100611619Y-77814476D01*
X100659238Y-77719238D01*
X100754476Y-77624000D01*
X100897333Y-77576380D01*
X100992571Y-77576380D01*
X101135428Y-77624000D01*
X101183047Y-77671619D01*
X102183047Y-78481142D02*
X102135428Y-78528761D01*
X101992571Y-78576380D01*
X101897333Y-78576380D01*
X101754476Y-78528761D01*
X101659238Y-78433523D01*
X101611619Y-78338285D01*
X101564000Y-78147809D01*
X101564000Y-78004952D01*
X101611619Y-77814476D01*
X101659238Y-77719238D01*
X101754476Y-77624000D01*
X101897333Y-77576380D01*
X101992571Y-77576380D01*
X102135428Y-77624000D01*
X102183047Y-77671619D01*
X102754476Y-78576380D02*
X102659238Y-78528761D01*
X102611619Y-78433523D01*
X102611619Y-77576380D01*
X103278285Y-78576380D02*
X103183047Y-78528761D01*
X103135428Y-78481142D01*
X103087809Y-78385904D01*
X103087809Y-78100190D01*
X103135428Y-78004952D01*
X103183047Y-77957333D01*
X103278285Y-77909714D01*
X103421142Y-77909714D01*
X103516380Y-77957333D01*
X103564000Y-78004952D01*
X103611619Y-78100190D01*
X103611619Y-78385904D01*
X103564000Y-78481142D01*
X103516380Y-78528761D01*
X103421142Y-78576380D01*
X103278285Y-78576380D01*
X103992571Y-78528761D02*
X104087809Y-78576380D01*
X104278285Y-78576380D01*
X104373523Y-78528761D01*
X104421142Y-78433523D01*
X104421142Y-78385904D01*
X104373523Y-78290666D01*
X104278285Y-78243047D01*
X104135428Y-78243047D01*
X104040190Y-78195428D01*
X103992571Y-78100190D01*
X103992571Y-78052571D01*
X104040190Y-77957333D01*
X104135428Y-77909714D01*
X104278285Y-77909714D01*
X104373523Y-77957333D01*
X105230666Y-78528761D02*
X105135428Y-78576380D01*
X104944952Y-78576380D01*
X104849714Y-78528761D01*
X104802095Y-78433523D01*
X104802095Y-78052571D01*
X104849714Y-77957333D01*
X104944952Y-77909714D01*
X105135428Y-77909714D01*
X105230666Y-77957333D01*
X105278285Y-78052571D01*
X105278285Y-78147809D01*
X104802095Y-78243047D01*
X105468761Y-78671619D02*
X106230666Y-78671619D01*
X106468761Y-78576380D02*
X106468761Y-77576380D01*
X106944952Y-78576380D02*
X106944952Y-77576380D01*
X107516380Y-78576380D01*
X107516380Y-77576380D01*
%TO.C,Q10*%
X148867857Y-69428571D02*
X149010714Y-69476190D01*
X149058333Y-69523809D01*
X149105952Y-69619047D01*
X149105952Y-69761904D01*
X149058333Y-69857142D01*
X149010714Y-69904761D01*
X148915476Y-69952380D01*
X148534523Y-69952380D01*
X148534523Y-68952380D01*
X148867857Y-68952380D01*
X148963095Y-69000000D01*
X149010714Y-69047619D01*
X149058333Y-69142857D01*
X149058333Y-69238095D01*
X149010714Y-69333333D01*
X148963095Y-69380952D01*
X148867857Y-69428571D01*
X148534523Y-69428571D01*
X150105952Y-69857142D02*
X150058333Y-69904761D01*
X149915476Y-69952380D01*
X149820238Y-69952380D01*
X149677380Y-69904761D01*
X149582142Y-69809523D01*
X149534523Y-69714285D01*
X149486904Y-69523809D01*
X149486904Y-69380952D01*
X149534523Y-69190476D01*
X149582142Y-69095238D01*
X149677380Y-69000000D01*
X149820238Y-68952380D01*
X149915476Y-68952380D01*
X150058333Y-69000000D01*
X150105952Y-69047619D01*
X151010714Y-68952380D02*
X150534523Y-68952380D01*
X150486904Y-69428571D01*
X150534523Y-69380952D01*
X150629761Y-69333333D01*
X150867857Y-69333333D01*
X150963095Y-69380952D01*
X151010714Y-69428571D01*
X151058333Y-69523809D01*
X151058333Y-69761904D01*
X151010714Y-69857142D01*
X150963095Y-69904761D01*
X150867857Y-69952380D01*
X150629761Y-69952380D01*
X150534523Y-69904761D01*
X150486904Y-69857142D01*
X151915476Y-69285714D02*
X151915476Y-69952380D01*
X151677380Y-68904761D02*
X151439285Y-69619047D01*
X152058333Y-69619047D01*
X152344047Y-68952380D02*
X153010714Y-68952380D01*
X152582142Y-69952380D01*
%TO.C,J6*%
X102367380Y-36423380D02*
X102367380Y-37232904D01*
X102415000Y-37328142D01*
X102462619Y-37375761D01*
X102557857Y-37423380D01*
X102748333Y-37423380D01*
X102843571Y-37375761D01*
X102891190Y-37328142D01*
X102938809Y-37232904D01*
X102938809Y-36423380D01*
X103415000Y-36756714D02*
X103415000Y-37756714D01*
X103415000Y-36804333D02*
X103510238Y-36756714D01*
X103700714Y-36756714D01*
X103795952Y-36804333D01*
X103843571Y-36851952D01*
X103891190Y-36947190D01*
X103891190Y-37232904D01*
X103843571Y-37328142D01*
X103795952Y-37375761D01*
X103700714Y-37423380D01*
X103510238Y-37423380D01*
X103415000Y-37375761D01*
X104081666Y-37518619D02*
X104843571Y-37518619D01*
X105272142Y-36423380D02*
X105462619Y-36423380D01*
X105557857Y-36471000D01*
X105653095Y-36566238D01*
X105700714Y-36756714D01*
X105700714Y-37090047D01*
X105653095Y-37280523D01*
X105557857Y-37375761D01*
X105462619Y-37423380D01*
X105272142Y-37423380D01*
X105176904Y-37375761D01*
X105081666Y-37280523D01*
X105034047Y-37090047D01*
X105034047Y-36756714D01*
X105081666Y-36566238D01*
X105176904Y-36471000D01*
X105272142Y-36423380D01*
X106129285Y-36423380D02*
X106129285Y-37232904D01*
X106176904Y-37328142D01*
X106224523Y-37375761D01*
X106319761Y-37423380D01*
X106510238Y-37423380D01*
X106605476Y-37375761D01*
X106653095Y-37328142D01*
X106700714Y-37232904D01*
X106700714Y-36423380D01*
X107034047Y-36423380D02*
X107605476Y-36423380D01*
X107319761Y-37423380D02*
X107319761Y-36423380D01*
%TO.C,R7*%
X106704523Y-59459714D02*
X106704523Y-60126380D01*
X106466428Y-59078761D02*
X106228333Y-59793047D01*
X106847380Y-59793047D01*
X107228333Y-60126380D02*
X107228333Y-59126380D01*
X107323571Y-59745428D02*
X107609285Y-60126380D01*
X107609285Y-59459714D02*
X107228333Y-59840666D01*
X107942619Y-59126380D02*
X108609285Y-59126380D01*
X108180714Y-60126380D01*
%TO.C,R18*%
X111703571Y-80082380D02*
X111132142Y-80082380D01*
X111417857Y-80082380D02*
X111417857Y-79082380D01*
X111322619Y-79225238D01*
X111227380Y-79320476D01*
X111132142Y-79368095D01*
X112655952Y-80082380D02*
X112084523Y-80082380D01*
X112370238Y-80082380D02*
X112370238Y-79082380D01*
X112275000Y-79225238D01*
X112179761Y-79320476D01*
X112084523Y-79368095D01*
X113275000Y-79082380D02*
X113370238Y-79082380D01*
X113465476Y-79130000D01*
X113513095Y-79177619D01*
X113560714Y-79272857D01*
X113608333Y-79463333D01*
X113608333Y-79701428D01*
X113560714Y-79891904D01*
X113513095Y-79987142D01*
X113465476Y-80034761D01*
X113370238Y-80082380D01*
X113275000Y-80082380D01*
X113179761Y-80034761D01*
X113132142Y-79987142D01*
X113084523Y-79891904D01*
X113036904Y-79701428D01*
X113036904Y-79463333D01*
X113084523Y-79272857D01*
X113132142Y-79177619D01*
X113179761Y-79130000D01*
X113275000Y-79082380D01*
X114036904Y-80082380D02*
X114036904Y-79082380D01*
X114132142Y-79701428D02*
X114417857Y-80082380D01*
X114417857Y-79415714D02*
X114036904Y-79796666D01*
%TO.C,C3*%
X144227904Y-40571714D02*
X144227904Y-41238380D01*
X143989809Y-40190761D02*
X143751714Y-40905047D01*
X144370761Y-40905047D01*
X144656476Y-40238380D02*
X145323142Y-40238380D01*
X144894571Y-41238380D01*
X146132666Y-40571714D02*
X146132666Y-41238380D01*
X145704095Y-40571714D02*
X145704095Y-41095523D01*
X145751714Y-41190761D01*
X145846952Y-41238380D01*
X145989809Y-41238380D01*
X146085047Y-41190761D01*
X146132666Y-41143142D01*
%TO.C,R14*%
X124082380Y-87036428D02*
X124082380Y-87607857D01*
X124082380Y-87322142D02*
X123082380Y-87322142D01*
X123225238Y-87417380D01*
X123320476Y-87512619D01*
X123368095Y-87607857D01*
X124082380Y-86084047D02*
X124082380Y-86655476D01*
X124082380Y-86369761D02*
X123082380Y-86369761D01*
X123225238Y-86465000D01*
X123320476Y-86560238D01*
X123368095Y-86655476D01*
X123082380Y-85465000D02*
X123082380Y-85369761D01*
X123130000Y-85274523D01*
X123177619Y-85226904D01*
X123272857Y-85179285D01*
X123463333Y-85131666D01*
X123701428Y-85131666D01*
X123891904Y-85179285D01*
X123987142Y-85226904D01*
X124034761Y-85274523D01*
X124082380Y-85369761D01*
X124082380Y-85465000D01*
X124034761Y-85560238D01*
X123987142Y-85607857D01*
X123891904Y-85655476D01*
X123701428Y-85703095D01*
X123463333Y-85703095D01*
X123272857Y-85655476D01*
X123177619Y-85607857D01*
X123130000Y-85560238D01*
X123082380Y-85465000D01*
X124082380Y-84703095D02*
X123082380Y-84703095D01*
X123701428Y-84607857D02*
X124082380Y-84322142D01*
X123415714Y-84322142D02*
X123796666Y-84703095D01*
%TO.C,R3*%
X114634071Y-47760380D02*
X114062642Y-47760380D01*
X114348357Y-47760380D02*
X114348357Y-46760380D01*
X114253119Y-46903238D01*
X114157880Y-46998476D01*
X114062642Y-47046095D01*
X115586452Y-47760380D02*
X115015023Y-47760380D01*
X115300738Y-47760380D02*
X115300738Y-46760380D01*
X115205500Y-46903238D01*
X115110261Y-46998476D01*
X115015023Y-47046095D01*
X116205500Y-46760380D02*
X116300738Y-46760380D01*
X116395976Y-46808000D01*
X116443595Y-46855619D01*
X116491214Y-46950857D01*
X116538833Y-47141333D01*
X116538833Y-47379428D01*
X116491214Y-47569904D01*
X116443595Y-47665142D01*
X116395976Y-47712761D01*
X116300738Y-47760380D01*
X116205500Y-47760380D01*
X116110261Y-47712761D01*
X116062642Y-47665142D01*
X116015023Y-47569904D01*
X115967404Y-47379428D01*
X115967404Y-47141333D01*
X116015023Y-46950857D01*
X116062642Y-46855619D01*
X116110261Y-46808000D01*
X116205500Y-46760380D01*
X116967404Y-47760380D02*
X116967404Y-46760380D01*
X117062642Y-47379428D02*
X117348357Y-47760380D01*
X117348357Y-47093714D02*
X116967404Y-47474666D01*
%TO.C,J12*%
X126452380Y-99642857D02*
X127261904Y-99642857D01*
X127357142Y-99595238D01*
X127404761Y-99547619D01*
X127452380Y-99452380D01*
X127452380Y-99261904D01*
X127404761Y-99166666D01*
X127357142Y-99119047D01*
X127261904Y-99071428D01*
X126452380Y-99071428D01*
X126785714Y-98595238D02*
X127785714Y-98595238D01*
X126833333Y-98595238D02*
X126785714Y-98500000D01*
X126785714Y-98309523D01*
X126833333Y-98214285D01*
X126880952Y-98166666D01*
X126976190Y-98119047D01*
X127261904Y-98119047D01*
X127357142Y-98166666D01*
X127404761Y-98214285D01*
X127452380Y-98309523D01*
X127452380Y-98500000D01*
X127404761Y-98595238D01*
X127547619Y-97928571D02*
X127547619Y-97166666D01*
X127452380Y-96357142D02*
X126976190Y-96690476D01*
X127452380Y-96928571D02*
X126452380Y-96928571D01*
X126452380Y-96547619D01*
X126500000Y-96452380D01*
X126547619Y-96404761D01*
X126642857Y-96357142D01*
X126785714Y-96357142D01*
X126880952Y-96404761D01*
X126928571Y-96452380D01*
X126976190Y-96547619D01*
X126976190Y-96928571D01*
X126928571Y-95928571D02*
X126928571Y-95595238D01*
X127452380Y-95452380D02*
X127452380Y-95928571D01*
X126452380Y-95928571D01*
X126452380Y-95452380D01*
X127452380Y-95023809D02*
X126452380Y-95023809D01*
X127166666Y-94690476D01*
X126452380Y-94357142D01*
X127452380Y-94357142D01*
%TO.C,R17*%
X111903571Y-89932380D02*
X111332142Y-89932380D01*
X111617857Y-89932380D02*
X111617857Y-88932380D01*
X111522619Y-89075238D01*
X111427380Y-89170476D01*
X111332142Y-89218095D01*
X112855952Y-89932380D02*
X112284523Y-89932380D01*
X112570238Y-89932380D02*
X112570238Y-88932380D01*
X112475000Y-89075238D01*
X112379761Y-89170476D01*
X112284523Y-89218095D01*
X113475000Y-88932380D02*
X113570238Y-88932380D01*
X113665476Y-88980000D01*
X113713095Y-89027619D01*
X113760714Y-89122857D01*
X113808333Y-89313333D01*
X113808333Y-89551428D01*
X113760714Y-89741904D01*
X113713095Y-89837142D01*
X113665476Y-89884761D01*
X113570238Y-89932380D01*
X113475000Y-89932380D01*
X113379761Y-89884761D01*
X113332142Y-89837142D01*
X113284523Y-89741904D01*
X113236904Y-89551428D01*
X113236904Y-89313333D01*
X113284523Y-89122857D01*
X113332142Y-89027619D01*
X113379761Y-88980000D01*
X113475000Y-88932380D01*
X114236904Y-89932380D02*
X114236904Y-88932380D01*
X114332142Y-89551428D02*
X114617857Y-89932380D01*
X114617857Y-89265714D02*
X114236904Y-89646666D01*
%TO.C,R23*%
X112880952Y-98302380D02*
X112309523Y-98302380D01*
X112595238Y-98302380D02*
X112595238Y-97302380D01*
X112500000Y-97445238D01*
X112404761Y-97540476D01*
X112309523Y-97588095D01*
X113309523Y-98302380D02*
X113309523Y-97302380D01*
X113404761Y-97921428D02*
X113690476Y-98302380D01*
X113690476Y-97635714D02*
X113309523Y-98016666D01*
%TO.C,R10*%
X111599571Y-69912380D02*
X111028142Y-69912380D01*
X111313857Y-69912380D02*
X111313857Y-68912380D01*
X111218619Y-69055238D01*
X111123380Y-69150476D01*
X111028142Y-69198095D01*
X112551952Y-69912380D02*
X111980523Y-69912380D01*
X112266238Y-69912380D02*
X112266238Y-68912380D01*
X112171000Y-69055238D01*
X112075761Y-69150476D01*
X111980523Y-69198095D01*
X113171000Y-68912380D02*
X113266238Y-68912380D01*
X113361476Y-68960000D01*
X113409095Y-69007619D01*
X113456714Y-69102857D01*
X113504333Y-69293333D01*
X113504333Y-69531428D01*
X113456714Y-69721904D01*
X113409095Y-69817142D01*
X113361476Y-69864761D01*
X113266238Y-69912380D01*
X113171000Y-69912380D01*
X113075761Y-69864761D01*
X113028142Y-69817142D01*
X112980523Y-69721904D01*
X112932904Y-69531428D01*
X112932904Y-69293333D01*
X112980523Y-69102857D01*
X113028142Y-69007619D01*
X113075761Y-68960000D01*
X113171000Y-68912380D01*
X113932904Y-69912380D02*
X113932904Y-68912380D01*
X114028142Y-69531428D02*
X114313857Y-69912380D01*
X114313857Y-69245714D02*
X113932904Y-69626666D01*
%TO.C,R5*%
X123535714Y-91960476D02*
X124202380Y-91960476D01*
X123154761Y-92198571D02*
X123869047Y-92436666D01*
X123869047Y-91817619D01*
X124202380Y-91436666D02*
X123202380Y-91436666D01*
X123821428Y-91341428D02*
X124202380Y-91055714D01*
X123535714Y-91055714D02*
X123916666Y-91436666D01*
X123202380Y-90722380D02*
X123202380Y-90055714D01*
X124202380Y-90484285D01*
D12*
%TO.C,U1*%
X135260000Y-33645000D02*
X135260000Y-69325000D01*
X139760000Y-33645000D02*
X138510000Y-33645000D01*
X142760000Y-69385000D02*
X142760000Y-33585000D01*
X132260000Y-69385000D02*
X142760000Y-69385000D01*
X136510000Y-33645000D02*
X135260000Y-33645000D01*
X139760000Y-69325000D02*
X139760000Y-33645000D01*
X132260000Y-33585000D02*
X132260000Y-69385000D01*
X142760000Y-33585000D02*
X132260000Y-33585000D01*
X135260000Y-69325000D02*
X139760000Y-69325000D01*
X136510000Y-33645000D02*
G75*
G03*
X138510000Y-33645000I1000000J0D01*
G01*
%TO.C,D3*%
X130867366Y-91411551D02*
G75*
G03*
X128600000Y-91471153I-1167366J1251551D01*
G01*
%TO.C,C5*%
X130120000Y-45630000D02*
X122880000Y-45630000D01*
X122880000Y-48370000D02*
X122880000Y-45630000D01*
X130120000Y-48370000D02*
X130120000Y-45630000D01*
X130120000Y-48370000D02*
X122880000Y-48370000D01*
%TO.C,D4*%
X141367366Y-91411551D02*
G75*
G03*
X139100000Y-91471153I-1167366J1251551D01*
G01*
%TO.C,U2*%
X153825000Y-44880000D02*
X149184000Y-44880000D01*
X153825000Y-48150000D02*
X152315000Y-48150000D01*
X149184000Y-44880000D02*
X149184000Y-55120000D01*
X153825000Y-55120000D02*
X149184000Y-55120000D01*
X152315000Y-44880000D02*
X152315000Y-55120000D01*
X153825000Y-51851000D02*
X152315000Y-51851000D01*
X153825000Y-44880000D02*
X153825000Y-55120000D01*
%TO.C,R2*%
X115145000Y-36021000D02*
X115075000Y-36021000D01*
X117885000Y-36021000D02*
G75*
G03*
X117885000Y-36021000I-1370000J0D01*
G01*
%TO.C,R24*%
X112675000Y-85700000D02*
X112605000Y-85700000D01*
X115415000Y-85700000D02*
G75*
G03*
X115415000Y-85700000I-1370000J0D01*
G01*
%TO.C,R16*%
X112600000Y-61924000D02*
X112530000Y-61924000D01*
X115340000Y-61924000D02*
G75*
G03*
X115340000Y-61924000I-1370000J0D01*
G01*
%TO.C,R4*%
X114891000Y-54128500D02*
X114821000Y-54128500D01*
X117631000Y-54128500D02*
G75*
G03*
X117631000Y-54128500I-1370000J0D01*
G01*
%TO.C,C1*%
X131620000Y-54120000D02*
X131620000Y-50880000D01*
X131555000Y-54120000D02*
X131620000Y-54120000D01*
X131555000Y-50880000D02*
X131620000Y-50880000D01*
X129380000Y-54120000D02*
X129445000Y-54120000D01*
X129380000Y-50880000D02*
X129445000Y-50880000D01*
X129380000Y-54120000D02*
X129380000Y-50880000D01*
%TO.C,Q5*%
X129450000Y-78070000D02*
X125850000Y-78070000D01*
X128470000Y-82370000D02*
G75*
G03*
X129461875Y-78078259I-820000J2450000D01*
G01*
X125841555Y-78092316D02*
G75*
G03*
X126870000Y-82370000I1808445J-1827684D01*
G01*
%TO.C,Q9*%
X120670000Y-85450000D02*
X120670000Y-81850000D01*
X120647684Y-81841555D02*
G75*
G03*
X116370000Y-82870000I-1827684J-1808445D01*
G01*
X116370000Y-84470000D02*
G75*
G03*
X120661741Y-85461875I2450000J820000D01*
G01*
%TO.C,R15*%
X136500000Y-86065000D02*
X136500000Y-86135000D01*
X137870000Y-84695000D02*
G75*
G03*
X137870000Y-84695000I-1370000J0D01*
G01*
%TO.C,C6*%
X146380000Y-41630000D02*
X146380000Y-44370000D01*
X146380000Y-44370000D02*
X153620000Y-44370000D01*
X153620000Y-41630000D02*
X153620000Y-44370000D01*
X146380000Y-41630000D02*
X153620000Y-41630000D01*
%TO.C,R25*%
X145825000Y-71500000D02*
X145895000Y-71500000D01*
X145825000Y-71500000D02*
G75*
G03*
X145825000Y-71500000I-1370000J0D01*
G01*
%TO.C,R13*%
X114886000Y-50928500D02*
X114816000Y-50928500D01*
X117626000Y-50928500D02*
G75*
G03*
X117626000Y-50928500I-1370000J0D01*
G01*
%TO.C,R9*%
X107570000Y-82000000D02*
X107640000Y-82000000D01*
X107570000Y-82000000D02*
G75*
G03*
X107570000Y-82000000I-1370000J0D01*
G01*
%TO.C,Q3*%
X107666000Y-50703500D02*
X107666000Y-54303500D01*
X107688316Y-54311945D02*
G75*
G03*
X111966000Y-53283500I1827684J1808445D01*
G01*
X111966000Y-51683500D02*
G75*
G03*
X107674259Y-50691625I-2450000J-820000D01*
G01*
%TO.C,R19*%
X112571000Y-75530000D02*
X112501000Y-75530000D01*
X115311000Y-75530000D02*
G75*
G03*
X115311000Y-75530000I-1370000J0D01*
G01*
%TO.C,D2*%
X107224449Y-76697366D02*
G75*
G03*
X107164847Y-74430000I1251551J1167366D01*
G01*
%TO.C,R12*%
X115055500Y-41858000D02*
X114985500Y-41858000D01*
X117795500Y-41858000D02*
G75*
G03*
X117795500Y-41858000I-1370000J0D01*
G01*
%TO.C,D7*%
X107328449Y-86867366D02*
G75*
G03*
X107268847Y-84600000I1251551J1167366D01*
G01*
%TO.C,Q2*%
X107835500Y-41633000D02*
X107835500Y-45233000D01*
X112135500Y-42613000D02*
G75*
G03*
X107843759Y-41621125I-2450000J-820000D01*
G01*
X107857816Y-45241445D02*
G75*
G03*
X112135500Y-44213000I1827684J1808445D01*
G01*
%TO.C,J5*%
X146830000Y-66730000D02*
X146830000Y-56510000D01*
X146830000Y-56510000D02*
X144170000Y-56510000D01*
X146830000Y-68000000D02*
X146830000Y-69330000D01*
X146830000Y-69330000D02*
X145500000Y-69330000D01*
X146830000Y-66730000D02*
X144170000Y-66730000D01*
X144170000Y-66730000D02*
X144170000Y-56510000D01*
%TO.C,R1*%
X107466000Y-71830000D02*
X107536000Y-71830000D01*
X107466000Y-71830000D02*
G75*
G03*
X107466000Y-71830000I-1370000J0D01*
G01*
%TO.C,C2*%
X131620000Y-55880000D02*
X131555000Y-55880000D01*
X129445000Y-59120000D02*
X129380000Y-59120000D01*
X131620000Y-55880000D02*
X131620000Y-59120000D01*
X129380000Y-55880000D02*
X129380000Y-59120000D01*
X129445000Y-55880000D02*
X129380000Y-55880000D01*
X131620000Y-59120000D02*
X131555000Y-59120000D01*
%TO.C,Y1*%
X128525000Y-57635000D02*
X128525000Y-51385000D01*
X123475000Y-57635000D02*
X123475000Y-51385000D01*
X123475000Y-57635000D02*
G75*
G03*
X128525000Y-57635000I2525000J0D01*
G01*
X128525000Y-51385000D02*
G75*
G03*
X123475000Y-51385000I-2525000J0D01*
G01*
%TO.C,Q4*%
X120566000Y-75280000D02*
X120566000Y-71680000D01*
X116266000Y-74300000D02*
G75*
G03*
X120557741Y-75291875I2450000J820000D01*
G01*
X120543684Y-71671555D02*
G75*
G03*
X116266000Y-72700000I-1827684J-1808445D01*
G01*
%TO.C,D5*%
X107253449Y-66791366D02*
G75*
G03*
X107193847Y-64524000I1251551J1167366D01*
G01*
%TO.C,R6*%
X136500000Y-91170000D02*
X136500000Y-91100000D01*
X137870000Y-92540000D02*
G75*
G03*
X137870000Y-92540000I-1370000J0D01*
G01*
%TO.C,Q1*%
X107920000Y-32596000D02*
X107920000Y-36196000D01*
X107942316Y-36204445D02*
G75*
G03*
X112220000Y-35176000I1827684J1808445D01*
G01*
X112220000Y-33576000D02*
G75*
G03*
X107928259Y-32584125I-2450000J-820000D01*
G01*
%TO.C,D6*%
X107528449Y-96717366D02*
G75*
G03*
X107468847Y-94450000I1251551J1167366D01*
G01*
%TO.C,R26*%
X145825000Y-74500000D02*
X145895000Y-74500000D01*
X145825000Y-74500000D02*
G75*
G03*
X145825000Y-74500000I-1370000J0D01*
G01*
%TO.C,Q8*%
X116570000Y-94320000D02*
G75*
G03*
X120861741Y-95311875I2450000J820000D01*
G01*
X120847684Y-91691555D02*
G75*
G03*
X116570000Y-92720000I-1827684J-1808445D01*
G01*
X120870000Y-95300000D02*
X120870000Y-91700000D01*
%TO.C,R22*%
X112600000Y-65624000D02*
X112530000Y-65624000D01*
X115340000Y-65624000D02*
G75*
G03*
X115340000Y-65624000I-1370000J0D01*
G01*
%TO.C,D1*%
X103453366Y-59563785D02*
G75*
G03*
X101186000Y-59623387I-1167366J1251551D01*
G01*
%TO.C,Q7*%
X120595000Y-65374000D02*
X120595000Y-61774000D01*
X116295000Y-64394000D02*
G75*
G03*
X120586741Y-65385875I2450000J820000D01*
G01*
X120572684Y-61765555D02*
G75*
G03*
X116295000Y-62794000I-1827684J-1808445D01*
G01*
%TO.C,R11*%
X115140000Y-32821000D02*
X115070000Y-32821000D01*
X117880000Y-32821000D02*
G75*
G03*
X117880000Y-32821000I-1370000J0D01*
G01*
%TO.C,R21*%
X140200000Y-86065000D02*
X140200000Y-86135000D01*
X141570000Y-84695000D02*
G75*
G03*
X141570000Y-84695000I-1370000J0D01*
G01*
%TO.C,R8*%
X107770000Y-91850000D02*
G75*
G03*
X107770000Y-91850000I-1370000J0D01*
G01*
X107770000Y-91850000D02*
X107840000Y-91850000D01*
%TO.C,C4*%
X145630000Y-54620000D02*
X145630000Y-47380000D01*
X148370000Y-54620000D02*
X148370000Y-47380000D01*
X145630000Y-54620000D02*
X148370000Y-54620000D01*
X145630000Y-47380000D02*
X148370000Y-47380000D01*
%TO.C,Q6*%
X139950000Y-78070000D02*
X136350000Y-78070000D01*
X138970000Y-82370000D02*
G75*
G03*
X139961875Y-78078259I-820000J2450000D01*
G01*
X136341555Y-78092316D02*
G75*
G03*
X137370000Y-82370000I1808445J-1827684D01*
G01*
%TO.C,R20*%
X129700000Y-86065000D02*
X129700000Y-86135000D01*
X131070000Y-84695000D02*
G75*
G03*
X131070000Y-84695000I-1370000J0D01*
G01*
%TO.C,Q10*%
X153045000Y-74725000D02*
X153045000Y-71125000D01*
X153022684Y-71116555D02*
G75*
G03*
X148745000Y-72145000I-1827684J-1808445D01*
G01*
X148745000Y-73745000D02*
G75*
G03*
X153036741Y-74736875I2450000J820000D01*
G01*
%TO.C,R7*%
X107495000Y-61924000D02*
X107565000Y-61924000D01*
X107495000Y-61924000D02*
G75*
G03*
X107495000Y-61924000I-1370000J0D01*
G01*
%TO.C,R18*%
X112675000Y-82000000D02*
X112605000Y-82000000D01*
X115415000Y-82000000D02*
G75*
G03*
X115415000Y-82000000I-1370000J0D01*
G01*
%TO.C,C3*%
X151411000Y-33531000D02*
X151411000Y-35960000D01*
X150531000Y-33123000D02*
X150531000Y-35960000D01*
X152171000Y-34133000D02*
X152171000Y-39867000D01*
X152371000Y-34349000D02*
X152371000Y-39651000D01*
X149971000Y-32983000D02*
X149971000Y-35960000D01*
X150891000Y-33260000D02*
X150891000Y-35960000D01*
X150251000Y-38040000D02*
X150251000Y-40957000D01*
X149610000Y-32935000D02*
X149610000Y-35960000D01*
X149890000Y-32970000D02*
X149890000Y-35960000D01*
X153211000Y-35902000D02*
X153211000Y-38098000D01*
X150611000Y-33150000D02*
X150611000Y-35960000D01*
X151291000Y-33460000D02*
X151291000Y-35960000D01*
X145240302Y-34285000D02*
X145240302Y-35085000D01*
X150011000Y-38040000D02*
X150011000Y-41010000D01*
X151091000Y-38040000D02*
X151091000Y-40647000D01*
X151251000Y-38040000D02*
X151251000Y-40562000D01*
X151131000Y-38040000D02*
X151131000Y-40627000D01*
X149930000Y-32976000D02*
X149930000Y-35960000D01*
X149770000Y-32952000D02*
X149770000Y-35960000D01*
X150651000Y-33165000D02*
X150651000Y-35960000D01*
X150091000Y-33006000D02*
X150091000Y-35960000D01*
X152451000Y-34444000D02*
X152451000Y-39556000D01*
X149650000Y-32939000D02*
X149650000Y-35960000D01*
X151531000Y-38040000D02*
X151531000Y-40392000D01*
X152971000Y-35269000D02*
X152971000Y-38731000D01*
X152251000Y-34216000D02*
X152251000Y-39784000D01*
X150211000Y-38040000D02*
X150211000Y-40967000D01*
X150451000Y-38040000D02*
X150451000Y-40902000D01*
X150691000Y-38040000D02*
X150691000Y-40821000D01*
X150531000Y-38040000D02*
X150531000Y-40877000D01*
X150131000Y-33015000D02*
X150131000Y-35960000D01*
X151531000Y-33608000D02*
X151531000Y-35960000D01*
X151011000Y-38040000D02*
X151011000Y-40686000D01*
X150171000Y-33024000D02*
X150171000Y-35960000D01*
X151891000Y-33876000D02*
X151891000Y-40124000D01*
X151731000Y-33750000D02*
X151731000Y-40250000D01*
X150971000Y-33296000D02*
X150971000Y-35960000D01*
X149490000Y-38040000D02*
X149490000Y-41074000D01*
X149570000Y-38040000D02*
X149570000Y-41068000D01*
X152651000Y-34713000D02*
X152651000Y-39287000D01*
X152611000Y-34655000D02*
X152611000Y-39345000D01*
X150091000Y-38040000D02*
X150091000Y-40994000D01*
X144840302Y-34685000D02*
X145640302Y-34685000D01*
X151571000Y-33635000D02*
X151571000Y-40365000D01*
X150971000Y-38040000D02*
X150971000Y-40704000D01*
X149971000Y-38040000D02*
X149971000Y-41017000D01*
X151011000Y-33314000D02*
X151011000Y-35960000D01*
X151451000Y-33556000D02*
X151451000Y-35960000D01*
X151931000Y-33910000D02*
X151931000Y-40090000D01*
X152211000Y-34174000D02*
X152211000Y-39826000D01*
X149850000Y-38040000D02*
X149850000Y-41037000D01*
X149690000Y-38040000D02*
X149690000Y-41057000D01*
X153011000Y-35355000D02*
X153011000Y-38645000D01*
X150011000Y-32990000D02*
X150011000Y-35960000D01*
X150051000Y-32998000D02*
X150051000Y-35960000D01*
X151851000Y-33844000D02*
X151851000Y-40156000D01*
X151411000Y-38040000D02*
X151411000Y-40469000D01*
X152811000Y-34966000D02*
X152811000Y-39034000D01*
X149730000Y-38040000D02*
X149730000Y-41052000D01*
X152691000Y-34772000D02*
X152691000Y-39228000D01*
X149490000Y-32926000D02*
X149490000Y-35960000D01*
X152731000Y-34834000D02*
X152731000Y-39166000D01*
X151451000Y-38040000D02*
X151451000Y-40444000D01*
X149530000Y-32929000D02*
X149530000Y-35960000D01*
X151211000Y-33416000D02*
X151211000Y-35960000D01*
X152931000Y-35187000D02*
X152931000Y-38813000D01*
X150171000Y-38040000D02*
X150171000Y-40976000D01*
X149650000Y-38040000D02*
X149650000Y-41061000D01*
X150931000Y-38040000D02*
X150931000Y-40722000D01*
X151291000Y-38040000D02*
X151291000Y-40540000D01*
X149730000Y-32948000D02*
X149730000Y-35960000D01*
X150331000Y-33064000D02*
X150331000Y-35960000D01*
X150451000Y-33098000D02*
X150451000Y-35960000D01*
X150331000Y-38040000D02*
X150331000Y-40936000D01*
X153131000Y-35654000D02*
X153131000Y-38346000D01*
X151211000Y-38040000D02*
X151211000Y-40584000D01*
X152891000Y-35110000D02*
X152891000Y-38890000D01*
X150251000Y-33043000D02*
X150251000Y-35960000D01*
X149410000Y-32923000D02*
X149410000Y-41077000D01*
X153171000Y-35771000D02*
X153171000Y-38229000D01*
X149570000Y-32932000D02*
X149570000Y-35960000D01*
X151051000Y-38040000D02*
X151051000Y-40666000D01*
X149930000Y-38040000D02*
X149930000Y-41024000D01*
X149450000Y-32924000D02*
X149450000Y-41076000D01*
X149530000Y-38040000D02*
X149530000Y-41071000D01*
X150891000Y-38040000D02*
X150891000Y-40740000D01*
X150571000Y-38040000D02*
X150571000Y-40863000D01*
X151051000Y-33334000D02*
X151051000Y-35960000D01*
X152331000Y-34303000D02*
X152331000Y-39697000D01*
X152571000Y-34600000D02*
X152571000Y-39400000D01*
X150371000Y-33075000D02*
X150371000Y-35960000D01*
X150491000Y-33111000D02*
X150491000Y-35960000D01*
X150611000Y-38040000D02*
X150611000Y-40850000D01*
X151171000Y-38040000D02*
X151171000Y-40606000D01*
X152051000Y-34017000D02*
X152051000Y-39983000D01*
X151331000Y-33483000D02*
X151331000Y-35960000D01*
X152291000Y-34259000D02*
X152291000Y-39741000D01*
X152011000Y-33981000D02*
X152011000Y-40019000D01*
X151491000Y-33582000D02*
X151491000Y-35960000D01*
X150291000Y-33053000D02*
X150291000Y-35960000D01*
X149850000Y-32963000D02*
X149850000Y-35960000D01*
X150491000Y-38040000D02*
X150491000Y-40889000D01*
X150571000Y-33137000D02*
X150571000Y-35960000D01*
X150211000Y-33033000D02*
X150211000Y-35960000D01*
X150811000Y-38040000D02*
X150811000Y-40774000D01*
X149330000Y-32920000D02*
X149330000Y-41080000D01*
X152771000Y-34898000D02*
X152771000Y-39102000D01*
X150851000Y-33243000D02*
X150851000Y-35960000D01*
X150051000Y-38040000D02*
X150051000Y-41002000D01*
X150131000Y-38040000D02*
X150131000Y-40985000D01*
X152851000Y-35036000D02*
X152851000Y-38964000D01*
X151371000Y-33507000D02*
X151371000Y-35960000D01*
X149610000Y-38040000D02*
X149610000Y-41065000D01*
X151371000Y-38040000D02*
X151371000Y-40493000D01*
X152091000Y-34055000D02*
X152091000Y-39945000D01*
X153291000Y-36232000D02*
X153291000Y-37768000D01*
X149810000Y-32958000D02*
X149810000Y-35960000D01*
X151691000Y-33720000D02*
X151691000Y-40280000D01*
X152131000Y-34093000D02*
X152131000Y-39907000D01*
X151611000Y-33662000D02*
X151611000Y-40338000D01*
X150291000Y-38040000D02*
X150291000Y-40947000D01*
X151251000Y-33438000D02*
X151251000Y-35960000D01*
X150731000Y-33195000D02*
X150731000Y-35960000D01*
X149770000Y-38040000D02*
X149770000Y-41048000D01*
X151811000Y-33811000D02*
X151811000Y-40189000D01*
X151131000Y-33373000D02*
X151131000Y-35960000D01*
X149250000Y-32920000D02*
X149250000Y-41080000D01*
X149290000Y-32920000D02*
X149290000Y-41080000D01*
X151971000Y-33945000D02*
X151971000Y-40055000D01*
X150411000Y-38040000D02*
X150411000Y-40914000D01*
X153051000Y-35448000D02*
X153051000Y-38552000D01*
X151331000Y-38040000D02*
X151331000Y-40517000D01*
X150651000Y-38040000D02*
X150651000Y-40835000D01*
X149370000Y-32921000D02*
X149370000Y-41079000D01*
X153091000Y-35547000D02*
X153091000Y-38453000D01*
X150771000Y-38040000D02*
X150771000Y-40790000D01*
X153331000Y-36467000D02*
X153331000Y-37533000D01*
X149690000Y-32943000D02*
X149690000Y-35960000D01*
X150731000Y-38040000D02*
X150731000Y-40805000D01*
X153251000Y-36052000D02*
X153251000Y-37948000D01*
X151091000Y-33353000D02*
X151091000Y-35960000D01*
X152491000Y-34495000D02*
X152491000Y-39505000D01*
X149890000Y-38040000D02*
X149890000Y-41030000D01*
X150811000Y-33226000D02*
X150811000Y-35960000D01*
X151651000Y-33691000D02*
X151651000Y-40309000D01*
X150931000Y-33278000D02*
X150931000Y-35960000D01*
X150411000Y-33086000D02*
X150411000Y-35960000D01*
X150771000Y-33210000D02*
X150771000Y-35960000D01*
X150851000Y-38040000D02*
X150851000Y-40757000D01*
X152531000Y-34546000D02*
X152531000Y-39454000D01*
X152411000Y-34396000D02*
X152411000Y-39604000D01*
X150371000Y-38040000D02*
X150371000Y-40925000D01*
X151171000Y-33394000D02*
X151171000Y-35960000D01*
X150691000Y-33179000D02*
X150691000Y-35960000D01*
X151771000Y-33780000D02*
X151771000Y-40220000D01*
X149810000Y-38040000D02*
X149810000Y-41042000D01*
X151491000Y-38040000D02*
X151491000Y-40418000D01*
X153370000Y-37000000D02*
G75*
G03*
X153370000Y-37000000I-4120000J0D01*
G01*
%TO.C,R14*%
X126000000Y-86065000D02*
X126000000Y-86135000D01*
X127370000Y-84695000D02*
G75*
G03*
X127370000Y-84695000I-1370000J0D01*
G01*
%TO.C,R3*%
X115060500Y-45058000D02*
X114990500Y-45058000D01*
X117800500Y-45058000D02*
G75*
G03*
X117800500Y-45058000I-1370000J0D01*
G01*
%TO.C,R17*%
X115615000Y-91850000D02*
G75*
G03*
X115615000Y-91850000I-1370000J0D01*
G01*
X112875000Y-91850000D02*
X112805000Y-91850000D01*
%TO.C,R23*%
X115615000Y-95550000D02*
G75*
G03*
X115615000Y-95550000I-1370000J0D01*
G01*
X112875000Y-95550000D02*
X112805000Y-95550000D01*
%TO.C,R10*%
X112571000Y-71830000D02*
X112501000Y-71830000D01*
X115311000Y-71830000D02*
G75*
G03*
X115311000Y-71830000I-1370000J0D01*
G01*
%TO.C,R5*%
X126000000Y-91170000D02*
X126000000Y-91100000D01*
X127370000Y-92540000D02*
G75*
G03*
X127370000Y-92540000I-1370000J0D01*
G01*
%TD*%
M02*
