%TF.GenerationSoftware,KiCad,Pcbnew,(6.0.4)*%
%TF.CreationDate,2023-03-03T22:10:40+01:00*%
%TF.ProjectId,OT_windows_remapper,4f545f77-696e-4646-9f77-735f72656d61,rev?*%
%TF.SameCoordinates,Original*%
%TF.FileFunction,Soldermask,Top*%
%TF.FilePolarity,Negative*%
%FSLAX46Y46*%
G04 Gerber Fmt 4.6, Leading zero omitted, Abs format (unit mm)*
G04 Created by KiCad (PCBNEW (6.0.4)) date 2023-03-03 22:10:40*
%MOMM*%
%LPD*%
G01*
G04 APERTURE LIST*
G04 Aperture macros list*
%AMRoundRect*
0 Rectangle with rounded corners*
0 $1 Rounding radius*
0 $2 $3 $4 $5 $6 $7 $8 $9 X,Y pos of 4 corners*
0 Add a 4 corners polygon primitive as box body*
4,1,4,$2,$3,$4,$5,$6,$7,$8,$9,$2,$3,0*
0 Add four circle primitives for the rounded corners*
1,1,$1+$1,$2,$3*
1,1,$1+$1,$4,$5*
1,1,$1+$1,$6,$7*
1,1,$1+$1,$8,$9*
0 Add four rect primitives between the rounded corners*
20,1,$1+$1,$2,$3,$4,$5,0*
20,1,$1+$1,$4,$5,$6,$7,0*
20,1,$1+$1,$6,$7,$8,$9,0*
20,1,$1+$1,$8,$9,$2,$3,0*%
G04 Aperture macros list end*
%ADD10R,2.400000X1.600000*%
%ADD11O,2.400000X1.600000*%
%ADD12R,2.200000X2.200000*%
%ADD13O,2.200000X2.200000*%
%ADD14C,1.600000*%
%ADD15RoundRect,0.249999X-1.025001X-1.025001X1.025001X-1.025001X1.025001X1.025001X-1.025001X1.025001X0*%
%ADD16R,2.000000X1.905000*%
%ADD17O,2.000000X1.905000*%
%ADD18O,1.600000X1.600000*%
%ADD19R,1.100000X1.800000*%
%ADD20RoundRect,0.275000X0.275000X0.625000X-0.275000X0.625000X-0.275000X-0.625000X0.275000X-0.625000X0*%
%ADD21R,1.800000X1.100000*%
%ADD22RoundRect,0.275000X0.625000X-0.275000X0.625000X0.275000X-0.625000X0.275000X-0.625000X-0.275000X0*%
%ADD23RoundRect,0.250002X1.699998X-1.699998X1.699998X1.699998X-1.699998X1.699998X-1.699998X-1.699998X0*%
%ADD24RoundRect,0.249999X1.025001X-1.025001X1.025001X1.025001X-1.025001X1.025001X-1.025001X-1.025001X0*%
%ADD25RoundRect,0.250002X-1.699998X-1.699998X1.699998X-1.699998X1.699998X1.699998X-1.699998X1.699998X0*%
%ADD26RoundRect,0.275000X-0.625000X0.275000X-0.625000X-0.275000X0.625000X-0.275000X0.625000X0.275000X0*%
%ADD27R,1.700000X1.700000*%
%ADD28O,1.700000X1.700000*%
%ADD29C,1.500000*%
%ADD30C,2.550000*%
%ADD31R,1.600000X1.600000*%
G04 APERTURE END LIST*
D10*
%TO.C,U1*%
X133700000Y-34975000D03*
D11*
X133700000Y-37515000D03*
X133700000Y-40055000D03*
X133700000Y-42595000D03*
X133700000Y-45135000D03*
X133700000Y-47675000D03*
X133700000Y-50215000D03*
X133700000Y-52755000D03*
X133700000Y-55295000D03*
X133700000Y-57835000D03*
X133700000Y-60375000D03*
X133700000Y-62915000D03*
X133700000Y-65455000D03*
X133700000Y-67995000D03*
X141320000Y-67995000D03*
X141320000Y-65455000D03*
X141320000Y-62915000D03*
X141320000Y-60375000D03*
X141320000Y-57835000D03*
X141320000Y-55295000D03*
X141320000Y-52755000D03*
X141320000Y-50215000D03*
X141320000Y-47675000D03*
X141320000Y-45135000D03*
X141320000Y-42595000D03*
X141320000Y-40055000D03*
X141320000Y-37515000D03*
X141320000Y-34975000D03*
%TD*%
D12*
%TO.C,D3*%
X129700000Y-92700000D03*
D13*
X129700000Y-90160000D03*
%TD*%
D14*
%TO.C,C5*%
X129000000Y-47000000D03*
X124000000Y-47000000D03*
%TD*%
D15*
%TO.C,J10*%
X102750000Y-95550000D03*
%TD*%
D12*
%TO.C,D4*%
X140200000Y-92700000D03*
D13*
X140200000Y-90160000D03*
%TD*%
D16*
%TO.C,U2*%
X150555000Y-47460000D03*
D17*
X150555000Y-50000000D03*
X150555000Y-52540000D03*
%TD*%
D14*
%TO.C,R2*%
X116515000Y-36021000D03*
D18*
X113975000Y-36021000D03*
%TD*%
D14*
%TO.C,R24*%
X114045000Y-85700000D03*
D18*
X111505000Y-85700000D03*
%TD*%
D14*
%TO.C,R16*%
X113970000Y-61924000D03*
D18*
X111430000Y-61924000D03*
%TD*%
D15*
%TO.C,J16*%
X135000000Y-96190000D03*
%TD*%
D14*
%TO.C,R4*%
X116261000Y-54128500D03*
D18*
X113721000Y-54128500D03*
%TD*%
D14*
%TO.C,C1*%
X130500000Y-53750000D03*
X130500000Y-51250000D03*
%TD*%
D19*
%TO.C,Q5*%
X128920000Y-79520000D03*
D20*
X127650000Y-81590000D03*
X126380000Y-79520000D03*
%TD*%
D21*
%TO.C,Q9*%
X119220000Y-84920000D03*
D22*
X117150000Y-83650000D03*
X119220000Y-82380000D03*
%TD*%
D23*
%TO.C,J2*%
X152000000Y-80000000D03*
%TD*%
%TO.C,J4*%
X152000000Y-92000000D03*
%TD*%
D15*
%TO.C,J11*%
X102550000Y-85700000D03*
%TD*%
D14*
%TO.C,R15*%
X136500000Y-84695000D03*
D18*
X136500000Y-87235000D03*
%TD*%
D14*
%TO.C,C6*%
X147500000Y-43000000D03*
X152500000Y-43000000D03*
%TD*%
D24*
%TO.C,J13*%
X140200000Y-96190000D03*
%TD*%
D14*
%TO.C,R25*%
X144455000Y-71500000D03*
D18*
X146995000Y-71500000D03*
%TD*%
D25*
%TO.C,J18*%
X145500000Y-85000000D03*
%TD*%
D14*
%TO.C,R13*%
X116256000Y-50928500D03*
D18*
X113716000Y-50928500D03*
%TD*%
D14*
%TO.C,R9*%
X106200000Y-82000000D03*
D18*
X108740000Y-82000000D03*
%TD*%
D21*
%TO.C,Q3*%
X109116000Y-51233500D03*
D26*
X111186000Y-52503500D03*
X109116000Y-53773500D03*
%TD*%
D14*
%TO.C,R19*%
X113941000Y-75530000D03*
D18*
X111401000Y-75530000D03*
%TD*%
D12*
%TO.C,D2*%
X105936000Y-75530000D03*
D13*
X108476000Y-75530000D03*
%TD*%
D14*
%TO.C,R12*%
X116425500Y-41858000D03*
D18*
X113885500Y-41858000D03*
%TD*%
D15*
%TO.C,J1*%
X145500000Y-31000000D03*
%TD*%
D12*
%TO.C,D7*%
X106040000Y-85700000D03*
D13*
X108580000Y-85700000D03*
%TD*%
D21*
%TO.C,Q2*%
X109285500Y-42163000D03*
D26*
X111355500Y-43433000D03*
X109285500Y-44703000D03*
%TD*%
D27*
%TO.C,J5*%
X145500000Y-68000000D03*
D28*
X145500000Y-65460000D03*
X145500000Y-62920000D03*
X145500000Y-60380000D03*
X145500000Y-57840000D03*
%TD*%
D15*
%TO.C,J7*%
X105180500Y-43483000D03*
%TD*%
%TO.C,J17*%
X145500000Y-96500000D03*
%TD*%
D14*
%TO.C,R1*%
X106096000Y-71830000D03*
D18*
X108636000Y-71830000D03*
%TD*%
D14*
%TO.C,C2*%
X130500000Y-56250000D03*
X130500000Y-58750000D03*
%TD*%
D29*
%TO.C,Y1*%
X126000000Y-56950000D03*
X126000000Y-52070000D03*
%TD*%
D21*
%TO.C,Q4*%
X119116000Y-74750000D03*
D22*
X117046000Y-73480000D03*
X119116000Y-72210000D03*
%TD*%
D25*
%TO.C,J19*%
X145500000Y-90500000D03*
%TD*%
D23*
%TO.C,J15*%
X152000000Y-85950000D03*
%TD*%
D24*
%TO.C,J3*%
X151000000Y-66500000D03*
D30*
X151000000Y-61700000D03*
%TD*%
D12*
%TO.C,D5*%
X105965000Y-65624000D03*
D13*
X108505000Y-65624000D03*
%TD*%
D14*
%TO.C,R6*%
X136500000Y-92540000D03*
D18*
X136500000Y-90000000D03*
%TD*%
D21*
%TO.C,Q1*%
X109370000Y-33126000D03*
D26*
X111440000Y-34396000D03*
X109370000Y-35666000D03*
%TD*%
D13*
%TO.C,D6*%
X108780000Y-95550000D03*
D12*
X106240000Y-95550000D03*
%TD*%
D14*
%TO.C,R26*%
X144455000Y-74500000D03*
D18*
X146995000Y-74500000D03*
%TD*%
D22*
%TO.C,Q8*%
X119420000Y-92230000D03*
X117350000Y-93500000D03*
D21*
X119420000Y-94770000D03*
%TD*%
D14*
%TO.C,R22*%
X113970000Y-65624000D03*
D18*
X111430000Y-65624000D03*
%TD*%
D12*
%TO.C,D1*%
X102286000Y-60852234D03*
D13*
X102286000Y-58312234D03*
%TD*%
D21*
%TO.C,Q7*%
X119145000Y-64844000D03*
D22*
X117075000Y-63574000D03*
X119145000Y-62304000D03*
%TD*%
D14*
%TO.C,R11*%
X116510000Y-32821000D03*
D18*
X113970000Y-32821000D03*
%TD*%
D14*
%TO.C,R21*%
X140200000Y-84695000D03*
D18*
X140200000Y-87235000D03*
%TD*%
%TO.C,R8*%
X108940000Y-91850000D03*
D14*
X106400000Y-91850000D03*
%TD*%
D15*
%TO.C,J9*%
X102475000Y-65624000D03*
%TD*%
D14*
%TO.C,C4*%
X147000000Y-53500000D03*
X147000000Y-48500000D03*
%TD*%
D15*
%TO.C,J8*%
X105011000Y-52553500D03*
%TD*%
D19*
%TO.C,Q6*%
X139420000Y-79520000D03*
D20*
X138150000Y-81590000D03*
X136880000Y-79520000D03*
%TD*%
D14*
%TO.C,R20*%
X129700000Y-84695000D03*
D18*
X129700000Y-87235000D03*
%TD*%
D15*
%TO.C,J14*%
X102446000Y-75530000D03*
%TD*%
D21*
%TO.C,Q10*%
X151595000Y-74195000D03*
D22*
X149525000Y-72925000D03*
X151595000Y-71655000D03*
%TD*%
D15*
%TO.C,J6*%
X105265000Y-34446000D03*
%TD*%
D14*
%TO.C,R7*%
X106125000Y-61924000D03*
D18*
X108665000Y-61924000D03*
%TD*%
D14*
%TO.C,R18*%
X114045000Y-82000000D03*
D18*
X111505000Y-82000000D03*
%TD*%
D31*
%TO.C,C3*%
X148000000Y-37000000D03*
D14*
X150500000Y-37000000D03*
%TD*%
%TO.C,R14*%
X126000000Y-84695000D03*
D18*
X126000000Y-87235000D03*
%TD*%
D14*
%TO.C,R3*%
X116430500Y-45058000D03*
D18*
X113890500Y-45058000D03*
%TD*%
D24*
%TO.C,J12*%
X129700000Y-96190000D03*
%TD*%
D18*
%TO.C,R17*%
X111705000Y-91850000D03*
D14*
X114245000Y-91850000D03*
%TD*%
D18*
%TO.C,R23*%
X111705000Y-95550000D03*
D14*
X114245000Y-95550000D03*
%TD*%
%TO.C,R10*%
X113941000Y-71830000D03*
D18*
X111401000Y-71830000D03*
%TD*%
D14*
%TO.C,R5*%
X126000000Y-92540000D03*
D18*
X126000000Y-90000000D03*
%TD*%
M02*
